<?xml version="1.0" encoding="utf-8"?>
<!-- Generator: Adobe Illustrator 25.2.1, SVG Export Plug-In . SVG Version: 6.00 Build 0)  -->
<svg version="1.1" id="Capa_1" xmlns="http://www.w3.org/2000/svg" xmlns:xlink="http://www.w3.org/1999/xlink" x="0px" y="0px"
	 viewBox="0 0 566.93 566.93" style="enable-background:new 0 0 566.93 566.93;" xml:space="preserve">
<style type="text/css">
	.st0{fill:#C41627;}
	.st1{fill:#646363;}
	.st2{font-family:'AmerTypewriterITCbyBT-Medium';}
	.st3{font-size:118.3394px;}
</style>
<g>
	<path class="st0" d="M561.73,48.49c0-1.29-1.56-1.92-2.45-1c-6.74,6.94-26.75,22.15-59.3,22.56c-0.68,0.01-1.13-0.77-1.11-1.45
		c0.19-5.04,0.64-29.5,0.74-38.43c0.02-1.34-1.63-1.97-2.51-0.96c-6.62,7.7-23.46,23.38-69.54,25.12
		C391.09,55.72,398,37.07,335.6,29.02c-34.29-4.43-46.71,17.46-49.88,23.18c-0.48,0.86-1.64,1.01-2.3,0.28
		c-4.97-5.47-23.04-23.6-48.08-24.61c-0.05,0-0.11,0-0.17,0c-53.34,2.11-81.2,43.58-122.37,44.04
		c-40.2,0.45-75.56-7.25-104.21-23.48c-0.95-0.54-2.13,0.13-2.13,1.23L4.97,336.62c0,0.45,0.2,0.86,0.55,1.14
		c5.2,3.98,46.02,34.13,87.94,33.06c31.99,0.46,70.66-21.64,120.84-43.96c32.15-13.58,50.3,11.39,52.18,14.53l0.76,7.8
		c0,0.19,0.04,15.46,0.05,20.24c0,0.79,0.64,1.42,1.43,1.42h27.93c0.79,0,1.43-0.64,1.43-1.43v-19.26c0-0.03,0-0.07,0-0.11
		c-0.03-0.56-0.07-4.9-0.05-7.32c0-0.54,0.14-1.06,0.42-1.53c5.31-8.81,18.15-18.23,32.09-17.33c24.4,0,88.38,47.7,141.55,46.98
		c39.1,0.4,83.42-28.65,89.14-32.52c0.39-0.27,0.62-0.7,0.62-1.18L561.73,48.49z M256.18,296.67c-6.85-2.58-16.32-4.23-29.31-2.85
		c-11.55,1.22-94.32,43.71-123.2,44.14c-42.54,2.19-59.23-12.86-67.47-17.84c-2.33-1.41-3.78-3.91-3.82-6.63V95.64
		c0-2.72,2.81-4.51,5.28-3.38c10.39,4.74,45.2,17.62,75.68,12.77c40.51-6.44,93.91-48.33,117.85-46.95
		c17.64,1.02,26.28,9.04,29.61,13.19c1.09,1.36,4.7,8.89,4.73,10.64l0.12,206.8C265.75,294.28,261.4,298.64,256.18,296.67z
		 M468.53,299.23c-0.04,2.73-1.49,5.22-3.82,6.63c0,0-11.83,11.84-44.75,11.61c-28.88-0.43-69-22.37-80.55-23.59
		c-12.99-1.37-22.45,0.28-29.31,2.85c-5.22,1.96-9.57-2.39-9.46-7.97l0.12-206.8c0.04-1.75,3.64-9.27,4.73-10.64
		c3.32-4.15,11.95-12.5,29.61-13.19c35.39-1.38,32.84,13.46,72.67,23.25c26.24,6.44,45.1,1.35,55.48-3.38
		c2.47-1.13,5.28,0.66,5.28,3.38V299.23z M530.21,315.52c0,1.43-0.41,2.84-1.23,4.01c-3.7,5.28-16.84,18.76-53.78,17.28
		c-3.54-0.14-4.91-4.51-1.76-6.13c8.62-4.44,26.41-12.46,25.93-18.49l-0.75-206.53c-0.01-2.72,1.96-5.07,4.65-5.45
		c8.23-1.16,17.54-5.86,22.64-7.86c2.07-0.81,4.3,0.72,4.3,2.94V315.52z"/>
	<path class="st0" d="M555.61,383.19H332.59c-1.71,0-3.2,1.18-3.56,2.85c-1.79,8.37-11.72,33.38-45.61,33.38
		c-34.45,0-45.55-25.78-48.82-33.94c-0.55-1.38-1.87-2.29-3.35-2.29H8.58c-1.99,0-3.6,1.61-3.6,3.6v29.02c0,1.99,1.61,3.6,3.6,3.6
		h204.9c1.15,0,2.22,0.54,2.9,1.47c5.02,6.81,28.07,34.98,65.71,34.58c41.09,2.82,62.08-28.2,66.69-35.99
		c0.64-1.08,1.79-1.76,3.05-1.78l203.82-2.24c1.97-0.02,3.56-1.63,3.56-3.6v-25.06C559.21,384.8,557.6,383.19,555.61,383.19z"/>
</g>
<text transform="matrix(1 0 0 1 102.2089 546.416)" class="st1 st2 st3">cahier</text>
</svg>
