<?xml version="1.0" encoding="utf-8"?>
<!-- Generator: Adobe Illustrator 25.2.1, SVG Export Plug-In . SVG Version: 6.00 Build 0)  -->
<svg version="1.1" id="Capa_1" xmlns="http://www.w3.org/2000/svg" xmlns:xlink="http://www.w3.org/1999/xlink" x="0px" y="0px"
	 viewBox="0 0 725.67 201.26" style="enable-background:new 0 0 725.67 201.26;" xml:space="preserve">
<style type="text/css">
	.st0{fill:#C41627;}
	.st1{fill:#878787;}
	.st2{fill:#666666;}
</style>
<g>
	<path class="st0" d="M224.32,26.88c0-0.5-0.6-0.75-0.95-0.39c-2.61,2.69-10.37,8.59-22.99,8.75c-0.26,0-0.44-0.3-0.43-0.56
		c0.07-1.96,0.25-11.44,0.29-14.9c0.01-0.52-0.63-0.76-0.97-0.37c-2.57,2.99-9.1,9.06-26.96,9.74c-14.14,0.54-11.47-6.69-35.66-9.81
		c-13.3-1.72-18.11,6.77-19.34,8.99c-0.18,0.33-0.64,0.39-0.89,0.11c-1.93-2.12-8.93-9.15-18.64-9.54c-0.02,0-0.04,0-0.06,0
		c-20.68,0.82-31.48,16.9-47.44,17.07c-15.59,0.17-29.3-2.81-40.4-9.1c-0.37-0.21-0.82,0.05-0.83,0.48L8.46,138.59
		c0,0.17,0.08,0.34,0.21,0.44c2.01,1.54,17.84,13.23,34.1,12.82c12.4,0.18,27.4-8.39,46.85-17.04c12.46-5.27,19.5,4.42,20.23,5.63
		l0.3,3.02c0,0.08,0.01,5.99,0.02,7.85c0,0.31,0.25,0.55,0.56,0.55h10.83c0.31,0,0.56-0.25,0.56-0.56v-7.47c0-0.01,0-0.03,0-0.04
		c-0.01-0.22-0.03-1.9-0.02-2.84c0-0.21,0.05-0.41,0.16-0.59c2.06-3.41,7.04-7.07,12.44-6.72c9.46,0,34.27,18.49,54.88,18.22
		c15.16,0.16,32.34-11.11,34.56-12.61c0.15-0.1,0.24-0.27,0.24-0.46L224.32,26.88z M105.85,123.1c-2.66-1-6.33-1.64-11.36-1.11
		c-4.48,0.47-36.57,16.95-47.77,17.11c-16.49,0.85-22.96-4.99-26.16-6.92c-0.9-0.55-1.47-1.52-1.48-2.57V45.16
		c0-1.05,1.09-1.75,2.05-1.31c4.03,1.84,17.52,6.83,29.34,4.95c15.71-2.5,36.41-18.74,45.69-18.2c6.84,0.39,10.19,3.5,11.48,5.11
		c0.42,0.53,1.82,3.45,1.83,4.12l0.04,80.18C109.56,122.17,107.88,123.86,105.85,123.1z M188.18,124.09
		c-0.02,1.06-0.58,2.03-1.48,2.57c0,0-4.59,4.59-17.35,4.5c-11.2-0.17-26.75-8.67-31.23-9.15c-5.04-0.53-8.71,0.11-11.36,1.11
		c-2.02,0.76-3.71-0.93-3.67-3.09l0.04-80.18c0.01-0.68,1.41-3.6,1.83-4.12c1.29-1.61,4.63-4.84,11.48-5.11
		c13.72-0.54,12.73,5.22,28.18,9.01c10.17,2.5,17.48,0.52,21.51-1.31c0.96-0.44,2.05,0.26,2.05,1.31V124.09z M212.1,130.41
		c0,0.55-0.16,1.1-0.48,1.55c-1.43,2.05-6.53,7.27-20.85,6.7c-1.37-0.06-1.91-1.75-0.68-2.38c3.34-1.72,10.24-4.83,10.05-7.17
		l-0.29-80.07c0-1.05,0.76-1.97,1.8-2.11c3.19-0.45,6.8-2.27,8.78-3.05c0.8-0.31,1.67,0.28,1.67,1.14V130.41z"/>
	<path class="st0" d="M221.95,156.64h-86.47c-0.66,0-1.24,0.46-1.38,1.1c-0.69,3.24-4.54,12.94-17.68,12.94
		c-13.36,0-17.66-10-18.93-13.16c-0.21-0.53-0.73-0.89-1.3-0.89H9.86c-0.77,0-1.4,0.63-1.4,1.4v11.25c0,0.77,0.63,1.4,1.4,1.4H89.3
		c0.45,0,0.86,0.21,1.13,0.57c1.95,2.64,10.88,13.56,25.48,13.41c15.93,1.09,24.07-10.93,25.85-13.95c0.25-0.42,0.7-0.68,1.18-0.69
		l79.02-0.87c0.77-0.01,1.38-0.63,1.38-1.4v-9.71C223.34,157.26,222.72,156.64,221.95,156.64z"/>
</g>
<path class="st1" d="M259.51,26.88l0.25,0.17v0.38l0.13,0.17l0.46,0.13l0.38-0.04l1.43,0.25l1.1,0.34l0.89,0.13l0.8,0.21l0.46,0.34
	l1.52,0.17l0.55,0.25l0.51,0.38l0.88,0.42l0.97,0.88l0.17,0.04l0.8,0.93l0.59,0.17l0.08,0.3v0.42h-0.17l-0.13,0.13l0.17,0.04
	l0.25-0.13l0.17,0.08l0.25,0.63l1.22,2.06l0.8,2.95L274,39.31l-0.25,0.72l-0.04,0.76l-0.38,1.05l-0.46,1.81l-0.25,0.59l-0.46,0.04
	l-0.17,0.21v1.1l-0.34,0.29l-1.43,0.84l-1.05,0.17l-1.73,0.08l-0.21-0.04l-0.3-0.38l-1.64-0.04l-0.34-0.34l-0.46,0.04l-0.17-0.13
	l-0.46-0.67l-0.13-1.1l0.17-1.48l0.08-0.04l0.38-1.05l0.72-0.97l0.21-0.8l1.26-0.8l0.29-0.34l0.29-0.72l-0.04-0.72l-0.25-0.8
	l-0.46-0.76h-0.08l-0.76-0.84l-1.43-1.1l-1.77-0.67l-1.64-0.21l-2.95,0.25l-2.65,0.38l-0.29,0.13v0.08h-0.13l-0.55,0.59l-0.97,0.8
	l-0.21,0.67l-0.17,0.13l-0.46,0.17l-0.25,0.25l-0.72,0.46l-1.1,1.05l-0.08,0.46l-0.13,0.29l-0.29,0.17l-0.08,0.21v0.46l-0.08,0.17
	l-0.55,0.25l-0.38,1.69l-0.21,0.55l-0.72,1.35l-0.38,1.81l0.04,1.81l0.34,2.06l0.17,1.73l0.08,2.15l0.29,2.74l0.34,1.01l0.34,0.42
	v0.29l-0.21,0.21l0.13,0.3l0.38,0.38l0.13,1.43h0.25l0.17-0.08l0.13,0.04l0.55,0.93l0.13,0.42l0.17,0.25l0.25,0.13l0.29,0.3
	l0.29,0.63l0.25,0.21l0.17,0.25l-0.04,0.51l1.39,1.52l0.04,0.21l0.34,0.42l-0.08,0.42l0.08,0.08l0.25-0.08l0.34,0.17l0.51,0.42
	l0.42,0.04v-0.08l0.17-0.13l0.34,0.04l0.42,0.21l1.18,0.13l0.89-0.08l0.55-0.38l0.59-0.04l0.34-0.38l2.02-0.21l0.46-0.17l0.04-0.17
	l-0.13-0.25l0.04-0.13l0.34-0.21l1.01-0.17l0.59,0.13l2.74-2.53l0.42-0.55l0.17-0.51l0.46-0.55l0.21-0.8l0.51-1.26l0.21-1.1
	l0.25-0.46l0.13-0.04l0.42-0.67l-0.08-0.46l0.08-0.17l0.63-0.55l0.29-0.51l-0.08-0.38l0.04-0.17l0.97-0.93l0.42,0.04l0.63,0.42
	l0.67,0.08l0.67,0.63l0.42,0.59l0.34,1.14v1.01l-0.08,0.72l-0.38,1.6l-0.8,2.4l-0.29,1.73l-0.25,0.38l-0.55,1.22l-0.72,0.67
	l-0.34,0.13l-1.85,1.31l-0.8,0.8l-0.63,0.38l-0.63,0.76l-0.51,0.46l-0.55,0.17l-2.19,1.01l-0.88,0.08l-0.97,0.38l-0.42,0.29h-1.05
	l-0.51,0.76l-1.39,0.13l-1.39-0.13l-1.1-0.34l-0.59-0.04l-0.84-0.34l-2.02-0.34l-2.19-1.1l-1.22-0.93l-0.38-0.42l-0.67-0.42
	l-0.04-0.13l-0.42-0.34l-0.08-0.72l-0.51,0.04l-0.17-0.13l-0.17-0.29l-1.1-1.22l-0.59-1.05L244.84,64l-0.13-1.01l-0.08-0.13
	l-0.51-0.25l-0.55-0.55l-0.17-0.25l0.04-0.21l-0.13-1.31l-0.21-0.21l-0.21-0.42l-0.04-2.82l-0.29-1.18l-0.55-3.24v-2.23l0.17-2.02
	l-0.17-3.83l0.13-2.44l0.46-1.77l0.21-0.25l0.51-0.88l0.34-1.14l-0.04-0.51l0.08-0.17l0.97-0.72l0.04-0.51l-0.08-0.04l-0.04-0.21
	l0.13-0.25l0.42-0.38l0.72-0.93l0.93-0.93l1.47-1.14l0.72-0.84v-0.34l0.08,0.08h0.25l0.13-0.13l0.08-0.55l0.21-0.29l0.25,0.04
	l0.21,0.55l0.21-0.04l0.25-0.8l0.55-0.72l0.72-0.55l1.14-0.13l1.39-0.42l2.87-0.13l1.43-0.25v-0.59l0.13-0.08H259.51z"/>
<g>
	<path class="st2" d="M322.29,47.23l0.08-0.21l-0.04-0.25L322,46.56l-0.13-0.17l0.21-1.48v-0.46l-0.25-1.69l-0.25-0.38l-0.17-0.46
		l-0.34-0.29l0.21-0.8l-0.17-0.13l-0.38-0.72l-0.08-0.76l-0.38-0.59l-0.55-0.46l-0.13-0.25l-0.13-0.63l-0.93-1.35l-0.17-0.42
		l-1.14-1.6l-1.35-1.39h-0.08l-0.25-0.38l0.08-0.51l-0.13-0.08L315,31.64v-0.55l-0.08-0.13l-0.17-0.08h-0.34l-0.21,0.21h-0.29
		l-0.25-0.25l-1.05-0.46l-0.34-0.67l-0.55-0.42l-1.56-0.21l-0.25-0.46l-0.34-0.21l-0.34-0.04l-0.25,0.25l-0.21-0.04l-0.29-0.42
		h-0.38l-0.17,0.13v0.08l-0.97-0.13l-0.25-0.13h-0.29l-0.38,0.25l-1.52,0.13h-1.35l-1.52-0.21l-2.15,0.04l-0.76,0.38l-0.88,0.55
		l-1.47,0.25l-1.9,0.76l-0.63,0.13l-0.93,0.67l-0.51,0.46l-0.76,1.31l-0.46,0.34l-0.21,0.29l-0.04,0.21l-1.81,1.94l-0.59,0.38
		l-0.51,0.55v0.08l-0.51-0.13l-0.04,0.29l0.13,0.13l0.04,0.21l-0.08,0.34l-0.21,0.25l-0.21,0.46l-0.38,0.46l-0.13,1.18l-0.17,0.55
		l-0.46,0.59l-0.17,0.59l-0.38,0.46l-0.04,1.05l-0.46,2.02L285,46.9l0.25,1.64l0.13,1.35v3.16l-0.46,0.42l0.04,0.88l0.46,1.6v0.21
		l0.21,0.21h0.42l0.25,0.72l0.29,1.98l0.59,2.11l0.25,1.43l0.38,0.63l0.04,0.59l1.14,1.69l0.21,0.46l0.3,0.17l0.38-0.08l0.34,0.97
		l0.55,0.55l0.13,0.21l0.76,0.63h0.08l1.05,1.01l0.67,0.21l1.26,0.88l0.72,0.29l0.97,0.63l0.04,0.13l1.56,0.63l0.42,0.08l0.38,0.59
		l0.55,0.04l0.25-0.08l0.29-0.25l0.55,0.08l1.47-0.21l0.84-0.21l2.32-0.25l2.36-0.38l0.29-0.29l0.76-0.34l0.34-0.04l0.21,0.25
		l0.42,0.04l0.34-0.46l0.84-0.29h0.51l0.38-0.3l1.05-0.08l0.72-0.42l1.26-0.42l1.81-1.48l0.13-0.17l0.89-0.25l0.13-0.21l0.04-0.67
		l0.76-1.31h0.51l0.17-0.21v-0.13l-0.29-0.25l0.04-0.34l0.46-0.08l0.25-0.17l0.04-0.21l-0.17-0.51l0.34-1.01v-0.59l0.42-0.46
		l0.29-0.63l0.17-1.01l0.08-1.26l0.25-1.39l0.84-3.12l0.34-2.44v-0.84l-0.25-2.74l0.08-0.34L322.29,47.23z M316.22,50.44l-0.21,1.1
		l-0.08,0.17l-0.55,6.03l-0.21,0.59l-0.72,1.14l-0.3,0.84l-0.46,0.55l-0.97,2.28l-0.42,0.42l-0.08,0.21l-0.17,0.08l-0.21-0.13
		l-0.29,0.04l0.04,0.63l-0.17,0.17l-1.56,0.59h-0.55l-1.35,0.3l-0.63,0.34h-0.13l-1.18,0.46l-1.56,0.13l-0.34-0.04l-0.21,0.25
		l-0.21,0.08h-0.25l-0.21-0.38l-0.17-0.08l-0.46,0.04l-0.38,0.51l-0.8,0.04l-0.63-0.21l-1.94-0.38l-0.67-0.04l-0.25-0.17v-0.55
		l-0.42-0.13l-0.38-0.29v-0.08l-0.55-0.21l-0.63-0.51v-0.08l-1.39-1.56l-0.46-0.72l-0.08-0.42l-0.46-0.42l-0.13-0.38l-0.42-0.59
		l-0.04-0.67l-0.13-0.17l-0.21-0.13l-0.29-0.04l-0.38-1.73l-0.46-0.51l0.04-0.51l-0.38-3.46l-0.08-1.35l-0.34-0.8l-0.21-2.49
		l0.21-2.36l0.08-0.13l0.34-1.26l0.08-0.04l0.42-1.22l0.34-0.34l0.08-0.25l0.04-0.63l0.13-0.29l0.55-0.59v-0.46l0.13-0.42l0.55-0.84
		l0.17-0.13l0.59-0.04l0.21-0.08l0.08-0.93l0.25-0.42l0.8-0.93l0.46,0.04l0.76-0.93l0.17-0.38l0.25-0.17l0.59-0.17l0.8-0.46
		l3.24-1.1l1.26-0.08l1.39,0.13l1.22,0.34l3.03,0.29l0.55,0.38l1.43,0.55l1.52,1.35l0.63,0.8l0.17,0.13h0.55l0.13,0.17l0.04,0.97
		l0.59,0.88l0.63,1.98l0.21,0.42l0.17,2.15l0.08,0.42l0.25,0.46l0.34,0.25l0.21,3.83L316.22,50.44z"/>
</g>
<path class="st1" d="M359.08,28.1l0.29,0.08h1.22l0.55,0.29h0.55l0.25,0.13l0.51,0.08l1.22,0.63l0.42,0.04l1.05,0.34l1.01-0.08
	l1.05,0.08l0.21,0.13l1.14,1.14l0.21,0.38l0.38-0.13l0.17,0.17l0.08,0.38l-0.25,0.46l0.17,0.34l0.38,0.13l0.34-0.08l0.72,0.38
	l0.46,0.84l-0.17,0.51l0.38,0.13l0.04,1.39l0.21,0.72l0.59,1.14l0.21,0.97v1.26l0.21,1.56l0.84,3.88l0.42,2.44v0.88l-0.17,1.73v2.91
	l0.21,1.73l-0.08,1.85l-0.76,3.16v0.97l0.17,2.02l0.08,0.13l0.34,1.39l0.21,0.34l1.64,0.72l0.71,0.08v-0.08l0.42-0.42h0.67
	l1.18,0.17l1.05,0.38l1.01,0.51l0.34-0.17l0.46,0.42h0.59l0.42,0.51l0.17,0.04l0.29-0.08v0.59l0.25,0.51l0.08,1.31l-0.08,1.14
	l-0.13,0.13l-0.59,0.17l-1.81-0.17l-0.88,0.17l-1.9-0.13l-2.53,0.08l-2.53-0.42h-2.11l-0.8,0.17L368.9,71l-1.64,0.55l-5.39,0.13
	l-0.67-0.08l-0.84-0.67l0.08-0.55l-0.46-0.42l-0.08-0.34l0.08-0.84l0.08-0.21l0.17-0.13l0.25-0.42l-0.04-0.55l0.46-0.51l0.38-0.25
	l0.76-0.34l1.22-0.04l1.43,0.42h0.67l0.46-0.25l0.34-0.46l0.25-0.13l0.34,0.13l0.17-0.08l-0.04-0.72l0.38-0.51l0.17-0.46l0.17-1.73
	l-0.46-0.21l-0.04-1.22l0.13-0.25l0.34-0.17v-0.76l-0.25-2.99l0.25-1.81l0.34-0.46l0.08-1.39l-0.17-5.6l0.08-0.21l0.21-2.06
	l-0.13-1.9l-0.63-2.57l-0.42-0.93l-0.46-0.46l-0.08-0.89l-0.93-1.64l-0.46-0.13l-0.17-0.17l-0.04-0.63l-0.51-0.67l-0.25-0.51h-0.46
	l-0.46-0.21l-0.67-0.55l-1.1-0.25l-1.9,0.08l-2.06-0.13l-0.76-0.13h-1.26l-0.88,0.34l-0.04,0.13l-0.38,0.25l-0.42-0.13l-0.46,0.21
	v0.08l-0.63,0.59l-0.25,0.76l-1.64,1.22l-0.72,0.63l-0.34,0.55l-0.21,0.97l-0.42,0.72l-0.29,1.05l-0.08,0.93l-0.13,0.38l-0.84,1.64
	l-0.34,1.01l-0.13,5.69l-0.29,2.19l-0.08,1.85l0.55,4.72l-0.21,1.64l0.04,2.49l0.17,0.42l0.04,0.88l0.21,0.17l0.21,0.04l0.46,0.25
	l0.08,0.55l0.13,0.25l0.51,0.21l0.46,0.08l2.44-0.51l1.35,0.21l1.31,1.01l0.25,0.38l0.08,0.55l-0.04,1.14l-0.46,0.67l-0.88,0.8
	L352.88,71l-1.43,0.13l-0.84-0.08l-2.23-0.46h-1.43l-3.08,0.72l-1.47-0.04l-0.21-0.08h-2.7l-1.94,0.46l-1.9-0.04l-1.52-0.42
	l-0.88-0.76v-0.72l-0.51-0.08l-0.13-0.34l0.04-1.26h0.25l0.08,0.21l-0.04,0.46h0.17l0.04-0.67l0.42-0.93l0.17-0.13l0.13,0.08
	l0.29-0.04l0.46-0.46l0.46-0.04l0.21-0.08l4.21-0.08l0.72-0.17l0.29-0.51l0.67-0.29l0.25-0.63v-5.44l0.29-0.21l0.08-0.17l-0.08-0.21
	l-0.29-0.29l0.04-0.84l-0.13-3.58l-0.25-1.22L341,51.28l0.04-1.31l0.38-2.4v-1.85l-0.17-3.79l0.29-2.32l-0.04-0.29l0.13-1.01
	l-0.29-2.19l-0.29-0.51l-0.8-0.76l-0.38-0.21l-0.13-0.29l0.04-0.42l-0.34-0.34L338.22,34l-2.49,0.21l-0.29-0.04l-0.34-0.25h-0.59
	l-0.51-0.46l-0.59-0.84l-0.04-1.47l0.76-1.22v-0.08l0.55-0.55l1.47-0.46l0.84-0.04l3.96,0.76l0.72-0.04l0.38,0.13l1.48,0.04
	l0.67-0.08l0.21-0.34h0.25l0.34,0.38l0.89,0.13l0.25,0.21l0.42,0.76l0.17,0.55v2.23l-0.17,0.88l0.04,0.46l0.13,0.17l0.25,0.08
	l0.42-0.21l0.67-0.63h0.08l0.63-0.51l0.29-0.42l0.51-0.38l0.72-0.93l0.34-0.21l1.1-1.35l0.59-0.29l0.42-0.34h0.21l0.46-0.51
	l0.17-0.08l2.74-0.25l0.72-0.21l0.51-0.04l0.25-0.13l0.46-0.51H359.08z"/>
<path class="st1" d="M408.51,27.93l0.55,0.21l2.61-0.04l0.51,0.08l0.51,0.34l0.76,0.17l1.85,0.84l0.25,0.59l0.72,0.08l0.93,0.63
	l0.29,0.59l0.29,0.13l0.25-0.08l0.13-0.25l0.04-1.48l0.34-0.59l0.38-0.13l0.51-0.34h0.42l0.63-0.21h0.76l0.46,0.13l0.13,0.13
	l0.46,1.26l0.04,1.35l-0.08,0.89l0.21,4.38l0.42,0.29l0.08,0.29l-0.04,0.63l-0.21,0.34l-0.17,0.08v-0.08l-0.13-0.08h-0.17
	l-0.21,1.39l0.04,4.42l-0.13,0.46l-0.25,0.34l-1.52,0.72h-0.97l-0.38-0.17l-0.55-0.55l-0.17-0.38l-0.13-3.5l-0.25-0.63l-0.13-1.35
	l-0.17-0.59l-0.08-0.04l-0.55-0.88l-0.08-0.59l-0.42-0.29l-0.88-1.14l-1.69-1.1l-0.29-0.08L412.09,34l-2.07-0.63l-0.63-0.13
	l-1.56-0.13l-1.26,0.21l-0.34,0.38l-0.67,0.08l-0.76,0.34l-1.31,1.05l-0.38-0.04l-0.25-0.21l-0.04,0.04l0.08,0.25l-0.13,0.38
	l-0.38,0.13l-1.43,1.43l-0.25,0.72l-0.04,4.09l1.22,2.11l0.46,0.42l1.6,0.42l1.22,0.55l0.38,0.42h0.25l0.29-0.17l1.43,0.34
	l1.35,0.46l3.37,0.17l0.42,0.29l1.14,0.13l1.81,0.59l0.13,0.13l1.56,0.84l1.1,0.29l1.05,0.67l0.8,0.21l1.14,0.84l0.51,0.21
	l0.38,0.76l0.29,0.25l0.38,0.55l0.46,0.93l0.46,0.29l0.13,0.38v0.38l0.25,1.1v1.98l-0.13,1.81l0.29,0.46v2.74l-0.08,1.69l-0.17,0.46
	l-0.42,0.46l-0.29,0.08l-0.42,0.42l-0.72,0.17l-0.51,0.59l-0.55-0.13l-0.21,0.21l0.04,0.63l-0.21,0.17l-0.67,0.97h-0.08l-1.35,1.39
	l-0.42,0.34l-0.72,0.17l-1.05,0.55l-0.13,0.13L415,71.5l-1.01,0.25l-0.38,0.29l-0.42,0.13l-0.42,0.55l-0.63,0.04l-0.51,0.17
	l-0.8-0.04l-3.24-0.55l-0.38,0.38h-0.97l-0.72-0.13l-0.21-0.17l-0.08-0.21h0.08l0.13-0.17l-0.04-0.08l-1.18-0.51h-0.51l-0.29-0.21
	l-0.63-0.67l-0.46-0.13l-0.13-0.21l-0.76-0.25l-1.22-1.35l-0.34-0.25l-0.34-0.46h-0.55l-0.21,0.17l-0.38,1.14l-0.13,0.97l-0.59,0.93
	h-0.5l-0.21,0.29l-0.04,0.46l-0.29,0.25l-0.89-0.13l-0.72-0.55l-0.59-0.72l-0.38-1.14v-2.78l0.17-0.59l0.13-1.52l-0.13-4.93
	l0.29-1.43l0.46-3.88l0.13-0.17l0.42-0.21l0.17-0.38l0.46-0.08l0.51-0.34h0.55l0.38-0.13l0.93,0.51l0.29,0.42l0.42,1.18l0.25,2.91
	l0.04,2.11l0.17,1.1l0.29,1.18l0.25,0.46l0.21,0.17l0.17,0.38l0.67,0.89l0.97,0.63l0.55,0.55l0.97,0.29h0.51l0.29,0.25l1.39,0.46
	l1.05,0.13l0.13,0.13l0.59,0.17l0.17,0.46l0.17,0.13l0.42,0.08l0.08-0.04l0.25-0.46h0.46l0.38,0.08l1.22-0.13l2.06-0.93l1.43-0.38
	l0.59-0.29l0.25-0.21l1.1-0.46l1.01-1.05l0.5-0.08l0.13-0.08v-0.72l0.51-0.63v-0.13l0.21-0.46l0.34-0.34v-2.15l-0.46-1.73
	l-0.63-0.93l-0.34-0.34l-0.29-0.59l-0.97-0.88l-0.88-0.46l-1.22-0.25l-1.01-0.34l-1.35-0.17l-4.47-1.31l-1.14-0.21l-2.32-0.08
	l-1.73-0.93l-0.72-0.21l-0.63-0.46l-0.34-0.42L400,49.72l-0.17-0.17l-0.42-0.21l-0.34-0.42l-1.14-1.01l-0.76-0.3l-0.13-0.29
	l0.08-0.38L397,46.77l-0.38-0.17l-0.17-0.21l-0.04-0.72l-0.88-1.6l-0.34-1.39v-2.36l0.13-1.01l0.08-0.17l0.08-1.94l0.42-1.26
	l-0.17-0.51l0.42-1.85l0.42-0.21h0.51l0.21-0.25v-0.55l0.08-0.17l1.22-1.26l0.38-0.25l0.42-0.04l0.04-0.29l0.25-0.29l0.72-0.25
	l0.76-0.89l0.84-0.34l0.8,0.25l1.47-0.76l1.64-0.29h1.26l0.76,0.08l0.29-0.08L408.51,27.93z"/>
<g>
	<path class="st2" d="M473.07,47.23l0.08-0.21l-0.04-0.25l-0.34-0.21l-0.13-0.17l0.21-1.48v-0.46l-0.25-1.69l-0.25-0.38l-0.17-0.46
		l-0.34-0.29l0.21-0.8l-0.17-0.13l-0.38-0.72l-0.08-0.76l-0.38-0.59l-0.55-0.46l-0.13-0.25l-0.13-0.63l-0.93-1.35l-0.17-0.42
		l-1.14-1.6l-1.35-1.39h-0.08l-0.25-0.38l0.08-0.51l-0.13-0.08l-0.51,0.08v-0.55l-0.08-0.13l-0.17-0.08h-0.34l-0.21,0.21h-0.29
		l-0.25-0.25l-1.05-0.46l-0.34-0.67l-0.55-0.42l-1.56-0.21l-0.25-0.46l-0.34-0.21L460,28.35l-0.25,0.25l-0.21-0.04l-0.29-0.42h-0.38
		l-0.17,0.13v0.08l-0.97-0.13l-0.25-0.13h-0.29l-0.38,0.25l-1.52,0.13h-1.35l-1.52-0.21l-2.15,0.04l-0.76,0.38l-0.88,0.55
		l-1.48,0.25l-1.9,0.76l-0.63,0.13l-0.93,0.67l-0.51,0.46l-0.76,1.31l-0.46,0.34l-0.21,0.29l-0.04,0.21l-1.81,1.94l-0.59,0.38
		l-0.5,0.55v0.08l-0.51-0.13l-0.04,0.29l0.13,0.13l0.04,0.21l-0.08,0.34l-0.21,0.25l-0.21,0.46l-0.38,0.46l-0.13,1.18l-0.17,0.55
		l-0.46,0.59l-0.17,0.59l-0.38,0.46l-0.04,1.05l-0.46,2.02l0.04,1.81l0.25,1.64l0.13,1.35v3.16l-0.46,0.42l0.04,0.88l0.46,1.6v0.21
		l0.21,0.21h0.42l0.25,0.72l0.29,1.98l0.59,2.11l0.25,1.43l0.38,0.63l0.04,0.59l1.14,1.69l0.21,0.46l0.29,0.17l0.38-0.08l0.34,0.97
		l0.55,0.55l0.13,0.21l0.76,0.63h0.08l1.05,1.01l0.67,0.21l1.26,0.88l0.72,0.29l0.97,0.63l0.04,0.13l1.56,0.63l0.42,0.08l0.38,0.59
		l0.55,0.04l0.25-0.08l0.29-0.25l0.55,0.08l1.47-0.21l0.84-0.21l2.32-0.25l2.36-0.38l0.29-0.29l0.76-0.34l0.34-0.04l0.21,0.25
		l0.42,0.04l0.34-0.46l0.84-0.29h0.51l0.38-0.3l1.05-0.08l0.72-0.42l1.26-0.42l1.81-1.48l0.13-0.17l0.88-0.25l0.13-0.21l0.04-0.67
		l0.76-1.31h0.5l0.17-0.21v-0.13l-0.29-0.25l0.04-0.34l0.46-0.08l0.25-0.17l0.04-0.21l-0.17-0.51l0.34-1.01v-0.59l0.42-0.46
		l0.29-0.63l0.17-1.01l0.08-1.26l0.25-1.39l0.84-3.12l0.34-2.44v-0.84l-0.25-2.74l0.08-0.34L473.07,47.23z M467,50.44l-0.21,1.1
		l-0.08,0.17l-0.55,6.03l-0.21,0.59l-0.72,1.14l-0.29,0.84l-0.46,0.55l-0.97,2.28l-0.42,0.42l-0.08,0.21l-0.17,0.08l-0.21-0.13
		l-0.29,0.04l0.04,0.63l-0.17,0.17l-1.56,0.59h-0.55l-1.35,0.3l-0.63,0.34h-0.13l-1.18,0.46l-1.56,0.13l-0.34-0.04l-0.21,0.25
		l-0.21,0.08h-0.25l-0.21-0.38l-0.17-0.08l-0.46,0.04l-0.38,0.51l-0.8,0.04l-0.63-0.21l-1.94-0.38l-0.67-0.04l-0.25-0.17v-0.55
		l-0.42-0.13l-0.38-0.29v-0.08l-0.55-0.21l-0.63-0.51v-0.08l-1.39-1.56l-0.46-0.72l-0.08-0.42l-0.46-0.42l-0.13-0.38l-0.42-0.59
		l-0.04-0.67l-0.13-0.17l-0.21-0.13l-0.29-0.04l-0.38-1.73l-0.46-0.51l0.04-0.51l-0.38-3.46l-0.08-1.35l-0.34-0.8l-0.21-2.49
		l0.21-2.36l0.08-0.13l0.34-1.26l0.08-0.04l0.42-1.22l0.34-0.34l0.08-0.25l0.04-0.63l0.13-0.29l0.55-0.59v-0.46l0.13-0.42l0.55-0.84
		l0.17-0.13l0.59-0.04l0.21-0.08l0.08-0.93l0.25-0.42l0.8-0.93l0.46,0.04l0.76-0.93l0.17-0.38l0.25-0.17l0.59-0.17l0.8-0.46
		l3.25-1.1l1.26-0.08l1.39,0.13l1.22,0.34l3.03,0.29l0.55,0.38l1.43,0.55l1.52,1.35l0.63,0.8l0.17,0.13h0.55l0.13,0.17l0.04,0.97
		l0.59,0.88l0.63,1.98l0.21,0.42l0.17,2.15l0.08,0.42l0.25,0.46l0.34,0.25l0.21,3.83L467,50.44z"/>
</g>
<path class="st1" d="M507.66,27.93l2.06,0.25l0.25,0.17l0.76,0.17l0.42,0.21h0.55l1.69,0.42l0.46,0.38l0.67,0.76l0.13,0.67
	l1.35,1.85l0.59,1.43l0.34,0.59l0.55,3.79l0.13,0.34l0.04,2.74l-0.17,1.14l-0.63,1.31l-0.42,0.42l-0.63,0.97l-0.42,0.38l-0.46,0.21
	l-0.13,0.13l0.08,0.51l-0.21,0.21l-0.59,0.29l-0.55-0.13l-0.17,0.04l-0.38,0.34l-0.46-0.51l-0.67,0.21l-1.64,0.04l-0.55-0.17
	l-0.42-0.25l-0.59-0.88h-0.34l-0.25-0.29l-0.34-1.73l0.04-1.52l0.21-0.51l0.34-0.55l0.84-1.01l0.59-0.46l1.73-0.72l0.04-0.76
	l0.42-0.04l0.13-0.21L512,37.58l-0.17-0.63l-0.67-1.18l-0.97-1.1l-1.05-0.93l-1.56-0.76l-1.31-0.13l-0.17,0.08l-0.13,0.17
	l-0.59,0.04l-0.17,0.17l-0.13,0.29l-0.63,0.04l-0.38,0.38l-0.8,0.04l-0.76,0.46l-0.42,0.63l-0.42,0.42l-0.55,0.04l-0.72,0.8
	l-0.21,0.42l-0.42,1.64l-0.25,0.51l-0.29,2.23l-0.25,0.67l-0.04,0.59l-0.34,0.42l-0.21,0.63l-0.34,1.85l0.17,1.05v2.49l-0.17,2.15
	l0.17,0.72l0.25,0.3v0.55l-0.13,0.25l-0.38,0.04l-0.08,0.21l0.04,0.29l0.13,0.13l0.38,0.08l0.21,1.9l-0.04,3.41l-0.17,0.13
	l-0.08,0.21l0.29,0.42l-0.04,0.29l-0.34,0.29l-0.13,0.21l0.08,1.1l-0.08,0.97l0.46,1.52l0.8,0.8l0.59,0.42l0.29,0.13l1.1,0.21
	l1.6-0.13l1.22-0.25l0.55,0.04l1.05,0.29l0.21,0.13l0.72,0.72l0.46,0.93v0.93l-0.25,0.84l-0.67,0.89l-0.51,0.46l-0.34,0.17v0.25
	l0.08,0.21l-0.25,0.25l-1.22,0.08l-0.51-0.46L502.86,71l-0.38-0.21l-1.85-0.17l-3.5,0.42l-1.69,0.04l-0.93-0.17l-0.38,0.13h-2.57
	l-2.61,0.17l-2.7-0.17L486,70.83h-0.59l-0.42-0.29l-0.38-0.13l-0.29-0.21l-0.84-1.22l-0.08-0.59l0.04-0.97l0.08-0.38l0.21-0.34
	l1.05-0.46l2.11-0.08l0.93,0.29l1.05-0.04l1.31-0.38l0.67-0.34l1.26-0.29l0.08-0.08v-0.72l0.17-0.51v-3.71l-0.13-2.74l0.13-1.43
	v-1.94l-0.38-2.61l-0.17-2.57l0.08-1.05l0.17-1.01l0.13-0.38l0.04,0.13l0.08-0.04l0.08,0.38l0.08,0.08l0.13-0.08v-0.38l-0.42-0.17
	l0.04-0.46l0.17-0.21h0.08l0.38-0.34v-0.34l-0.55-0.55l-0.13-1.94l0.08-0.25l0.04,0.08l0.29-0.08l0.08-0.08l-0.08-0.59l0.04-0.51
	l-0.38-0.04l-0.04,0.08l-0.04-2.19l0.17-0.84l-0.08-2.28l-0.17-0.42l-0.08-0.04l-0.34,0.13l-0.17-0.13l-0.04-0.76l-0.55-0.25
	l-0.34-0.46L487.31,34l-1.6-0.25l-0.63-0.34v-0.08l-0.34-0.42l-0.38-0.8l-0.08-1.1l-0.13-0.25l0.04-0.46l0.21-0.17l0.63-0.25
	l0.08-0.21l0.42-0.34l0.46-0.17l3.03-0.38l1.98,0.04l0.93,0.17l0.38,0.17l3.54,0.04l0.93,0.38l0.34,0.42l0.34,0.97l0.04,0.59
	l-0.25,2.15l0.21,0.34l0.29-0.04l1.43-1.6l0.38-0.59l1.31-1.26l0.55-0.34l0.51-0.55l0.59-0.21l0.63-0.38l0.42-0.38l0.93-0.51h0.25
	l0.55-0.21l0.17,0.04l0.29,0.38l0.34-0.17l0.13-0.25l0.17-0.08L507.66,27.93z"/>
<path class="st1" d="M532.94,17.61l0.51,0.13l0.88,0.67l0.67,0.72l0.17,0.46l0.25,1.22l0.08,1.73l-0.17,1.22l-0.17,2.87l0.21,1.43
	l0.46,0.67l0.42,0.25l1.39,0.46l1.94-0.04l1.73-0.34l1.73-0.17l1.64,0.08l0.72,0.42l1.1,1.05l0.21,0.63l0.04,0.51l-0.08,0.34
	l-0.25-0.08l-0.17,0.04v0.25h0.38v0.46l-0.08,0.21l-0.42,0.25l-0.08,0.51l-1.31,0.93l-0.34,0.04l-1.22,0.38l-2.53,0.13l-3.29-0.21
	l-0.51,0.04l-0.51,0.17l-0.29,0.51l-0.42,0.34l-0.17,2.02l0.21,0.42v0.51l-0.13,0.42l0.04,1.43l-0.46,3.37l0.04,1.94l0.34,3.62
	l0.46,0.29v1.1l-0.29,0.25l-0.25-0.13l-0.29,1.94l0.8,5.52v2.57l0.21,1.69l0.13,0.51l0.42,0.8l0.67,0.72l0.8,0.59l0.93,0.38
	l0.17,0.13l1.09,0.04l0.67-0.08l0.55-0.42l0.84-0.34l0.63-0.04l0.72-0.25l0.46-0.25l0.04-0.13l0.63-0.51l0.76-1.56l-0.13-3.2
	l0.04-1.98l0.13-1.01l-0.04-0.04l0.08-1.77l-0.13-1.9l0.08-0.3l0.38-0.63l0.67-0.67l0.59-0.17l1.18,0.04l0.42,0.17l0.38,0.3
	l0.76,0.97l0.25,0.46l0.34,1.47l0.51,4.05l-0.08,1.14l-0.17,1.1l0.04,0.29l-0.38,2.15l-0.38,0.84l-0.04,0.88l0.17,0.38v0.59
	l-0.17,0.8l0.04,0.55l-0.63,0.46h-0.5l-0.67,0.84l-1.9,1.43l-0.42,0.21l-0.46,0.04l-0.46,0.34l-1.05,0.51l-0.88,0.25l-0.34,0.25
	h-0.55l-0.38,0.42l-1.18,0.17l-6.36-0.17l-0.25-0.08l-0.21-0.42h-0.55l-0.67-0.55l-0.21-0.76l-0.46-0.55l-0.72-1.35v-0.72
	l-0.25-0.42l0.13-0.55l-0.21-0.59l0.25-0.55l-0.08-0.67l-0.38-0.34l-0.38-0.55v-0.89l-0.55-2.95v-1.81l0.17-2.65l0.08-0.08
	l0.13-0.42l-0.08-0.25l-0.21-0.25l-0.17-1.98l-0.21-0.8l-0.13-1.22v-0.76l0.46-3.16l-0.08-6.07l0.38-1.81l0.04-2.65l-0.25-0.59
	l-0.38-0.34l-0.55-0.21l-0.59-0.04l-2.49,0.25l-0.55-0.29l-0.84-0.72l-0.38-0.59l-0.17-2.53l0.17-0.51l0.76-1.14l0.46-0.29
	l0.59-0.17l1.1-0.13l1.56,0.29l0.97,0.04l0.21-0.17l0.25-0.46l-0.46-4.64v-1.39l0.38-2.65l0.29-0.63l0.25-0.25l0.25-0.55l0.8-0.55
	H532.94z"/>
<path class="st1" d="M562.48,28.65l2.28,0.34l4.13-0.13l4.68,0.51l0.46,0.42l0.55,1.1l0.34,1.26l0.04,0.67l0.17,0.55L575,36.36
	l0.13,0.76l-0.08,0.42l-0.25,0.38l0.17,5.48l0.13,0.17l0.29,0.13l0.04,0.59l-0.17,0.59l-0.17-0.04V44.7l-0.25-0.21l-0.29,1.43
	l-0.04,2.91l0.29,2.19v2.74l-0.21,2.36l0.38,3.29l0.34,1.47v1.14l0.13,1.94l0.13,0.21l0.59,0.59l1.56,0.72l0.97,0.29l1.85,0.13
	l0.63,0.13l0.21,0.13l0.84,0.25l0.38,0.25l0.34,0.34l0.38,0.63l0.08,0.88l-0.13,0.84l-0.29,0.55l-1.22,0.84h-1.01l-0.84-0.29
	l-2.02-0.42h-3.83l-1.56-0.17l-0.84,0.04l-1.35,0.25l-1.77,0.8l-1.1,0.29l-4.89-0.04l-1.52-0.67l-0.25-0.29l-0.42-0.93l-0.42-0.21
	l-0.13-0.42l0.08-1.1l0.17-0.34h0.29l0.17,0.08l0.04-0.13l0.63-0.72l0.25-0.04l1.18-0.51h1.14l1.31,0.29l0.46-0.04l0.72-0.21
	l0.84-0.42l0.51-0.42l1.01-1.22l0.21-0.72v-0.72l0.17-1.73l0.29-1.31v-2.53l-0.38-2.49v-3.12l0.17-1.56v-2.44l-0.08-0.21v-0.93
	l-0.13-0.76v-2.11l0.42-0.72l-0.08-5.48l-0.13-0.76l-0.46,0.08l-0.25-0.29l-0.13-0.38l-0.67-0.76l-1.26-0.17l-1.01-0.42l-2.32-0.17
	l-1.18-0.34l-0.25-0.63l-0.38-0.13l-0.08-0.17l0.13-0.51l-0.08-0.21l-0.34-0.17l-0.29-0.88l0.08-0.93l0.29-1.22l0.25-0.21l1.31-0.17
	L562.48,28.65z M571.16,15.42l0.34,0.08l0.97,0.46l0.51,0.42l0.42,0.25l0.38,0.55l0.34,0.8l0.29,2.57l-0.29,1.6l-0.13,0.17
	l-0.13,0.04l-0.17,0.34l0.21,0.34l0.04,0.21l-0.08,0.17l-0.59,0.17l-0.5,0.67l-0.17,0.59l-0.8,0.63l-0.88,0.17l-0.25,0.51
	l-0.29-0.04l-0.29-0.63l-0.93-0.46l-0.17-0.21l-0.76-0.55l-0.29-0.29l-0.08-0.38l0.13-0.29v-0.25l-0.5-0.93l-0.04-1.1l-0.08-0.21
	l-0.34-0.17l-0.08-0.25l0.04-0.29l0.25-0.67l0.51-0.04l0.17-0.13l0.13-0.29l-0.13-1.1l0.08-0.17l1.35-1.31l1.35-0.89l0.42-0.04
	L571.16,15.42z"/>
<path class="st1" d="M600.03,28.4l0.38,0.17l0.08,0.21l-0.08,0.34l0.08,0.25l0.46,0.42l0.13,0.46v0.72l0.55,6.28l-0.21,1.85v0.76
	l-0.13,0.21l-0.21,2.78l0.17,1.77v2.61l-0.29,1.73l-0.13,2.06l0.72,3.96l0.38,4.09l0.55,1.56l0.08,0.72l0.13,0.29l0.34,0.34
	l1.31,1.69l1.14,0.13l0.59,0.29v0.67l1.14,0.72l0.67,0.29l0.59,0.04l0.38,0.21l0.88,0.21l0.38-0.34l0.34,0.04l0.34,0.25h0.21
	l0.38-0.17l1.98-0.13l1.73-0.42l1.47-0.08l0.89-0.51l0.5-0.42l0.72-1.01l0.42-0.93V61.9l0.34-0.42l0.29-0.67l0.67-1.01l0.38-0.93
	l-0.04-0.34l-0.17-0.08l-0.17-0.29l0.08-0.59l0.13-0.13l0.42-0.04l0.21-0.13v-0.13l0.08-0.08l0.04-4.51l0.42-2.11l0.08-0.76
	l0.04-6.57l0.42-1.98l0.04-0.67l-0.21-1.98L621.9,38l0.04-0.63l-0.17-0.55v-0.76l-0.17-0.55l-0.51-0.88l-0.88-0.42V34h0.08v-0.25
	l-0.13-0.08L620,34h-0.38l-0.25-0.42h-1.18l-0.38,0.34l-2.82-0.55l-0.72-0.88l-0.29-1.43l0.17-0.8l0.17-0.38l0.72-0.72l1.01-0.17
	h2.57l0.72-0.17l1.56-0.13l1.69,0.25l1.85,0.08l1.35,0.17l0.59,0.25l0.3,0.25l0.29,0.67l0.04,0.76l0.51,2.19l0.04,0.84l-0.08,0.21
	l-0.25,0.25l-0.08,3.29l0.29,0.55l0.21,2.02l0.08,0.17l0.25,1.73l0.04,2.28l-0.17,1.01l0.04,0.34l-0.29,1.01v5.82l-0.46,3.08v1.56
	l0.29,1.56l0.08,1.26l0.17,0.46l0.17,0.8l0.25,1.94l0.8,1.14l1.22,0.42l1.77,0.46l2.7,0.21l0.04-0.08l0.42-0.04l0.34,1.1l0.29,0.42
	l-0.04,0.55l-0.3,0.34v0.63l-0.17,0.25l-0.25,0.67l-0.25,0.38l-0.38,0.38l-0.8,0.17l-1.18,0.04l-0.21,0.13h-0.84l-1.43,0.25
	l-1.22,0.51l-0.8,0.04l-0.38,0.59l-1.14,0.04l-0.29-0.46l-1.47-0.29l-1.01-0.55l-0.25-0.29l-0.34-0.59l-0.04-2.95l-0.08-1.05
	l-0.42-0.55l-0.25,0.04l-1.64,1.94l-0.76,0.8l-0.51,0.17l-0.38,0.38l-1.39,0.51l-0.04,0.08l-0.67,0.34l-1.6,0.29l-0.63,0.51
	l-1.1,0.46l-1.6,0.25l-3.62,0.04l-2.53,0.55h-0.51l-1.31-0.17l-0.67-0.63l-0.29-0.04l-0.97-0.51l-1.73-1.43l-0.08-0.38l-0.21-0.25
	l-0.25-0.04l-0.25-0.17l-0.55,0.04l-0.42-0.76v-0.72l-0.34-0.76l-0.21-0.21l-0.29-0.97l-0.08-0.97l-0.63-2.32l-0.13-1.1l-0.46-1.94
	l-0.34-0.88l-0.21-2.49l-0.08-3.08l-0.17-0.63l-0.13-1.14l-0.38-1.94l0.04-2.11l0.13-1.26l0.29-1.69l-0.04-4.76l0.34-2.78
	l-0.59-1.05l-0.93-0.67l-1.26-0.25l-1.77,0.04L589.62,34h-1.43l-0.46-0.21l-0.46-0.42l-0.29-0.38l-0.08-0.34V31.6l0.8-1.26
	l0.67-0.76l0.59-0.55l1.43-0.21l1.1,0.04l2.36,0.29h0.67l1.05-0.13l0.38-0.13l0.13-0.13l0.93-0.04l0.29-0.34H600.03z"/>
<path class="st1" d="M671.75,28.06l1.22,0.34l0.13,0.13l0.51,0.21h0.59l0.59,0.55l0.29,0.42l0.55-0.04l0.38,0.38l0.34-0.25
	l0.51,0.04l0.17,0.21l0.04,0.67l0.59,0.55l0.67,0.29l0.67,0.76l0.59,0.42l0.13,0.67l0.13,0.13h0.67l0.34-0.13l0.97-1.39l0.55-0.59
	l3.96-2.32l1.22,0.17v0.17l0.17,0.25l0.72,0.67l1.31,0.88v0.08l0.42,0.21l0.59,0.67l0.25,0.46l-0.04,0.21l-0.34,0.13l-1.81,0.25
	l-0.97,0.46L687.64,34l-0.42,0.29l-1.56,1.39l-1.05,1.69l-0.29,0.76l-1.05,2.19l-0.29,1.14l-0.25,3.92l-0.38,1.43l-0.04,0.46
	l-0.29,1.35l-0.08,0.88l0.04,1.94l0.17,0.55l0.21,2.02l-0.21,5.01l0.29,2.82l-0.25,0.25l-0.04,0.59l0.08,0.55l0.17-0.04l0.13-0.46
	l0.17,0.04l0.25,1.77l0.08,0.08l0.04,0.25l0.34,0.51l0.34,0.34l0.63,0.34h0.42l0.8,0.13l1.31-0.34l0.21-0.13l1.6-0.04l0.51,0.21
	v0.63l0.29,0.34l0.21,0.63v1.26l-0.34,0.97l-0.29,0.51l-0.72,0.59l-0.59,0.34l-0.55,0.08l-0.55-0.13h-0.34l-0.21,0.21l-0.34-0.04
	l-0.29-0.51h-0.17l-0.25,0.42h-0.42L684.39,71l-0.04-0.29l0.08-0.17l-0.08-0.13l-0.5-0.25l-1.98-0.55h-1.39l-2.07,0.29l-3.2,0.25
	l-2.02,0.8l-0.21,0.29l-1.14,0.25l-0.8-0.04l-0.38-0.13l-0.63-0.97l-0.08-0.25l-0.29-0.25v-1.47l0.38-0.93l0.46-0.76l0.97-1.18
	l0.29-0.21h0.55l0.17-0.17l0.38-0.13l1.52,0.29l0.63-0.04l0.34-0.13l0.63-0.51l0.25-0.63l0.25-0.21l0.21-0.59l0.34-2.15l0.04-1.85
	l-0.42-2.65V54.1l0.13-2.44l-0.38-6.11l0.25-2.02v-2.44l-0.55-1.98l-0.38-0.63l-0.04-0.29l-0.25-0.63l-0.46-0.13l-0.17-0.17
	l-0.08-0.29l-0.04-1.26l-0.42-0.59l-0.21-0.17l-0.34-0.59h-0.34l-0.25,0.08L672.68,34l-0.72-0.25l-1.6-0.08l-2.7-0.46l-0.97,0.04
	l-0.46,0.21l0.17,0.42l-0.13,0.25l-0.21,0.04l-0.29-0.46l-0.13-0.04l-0.25,0.17l-0.34,0.59l-1.77,1.6l-0.25,0.38l-0.46,0.21
	l-0.38,0.29l-0.42,0.13l-0.21,0.72l-0.63,1.01l-0.25,0.59l-0.08,1.31l-0.84,2.4l-0.34,1.31l-0.13,0.97l0.17,2.49l0.08,0.21
	l0.34,2.15l0.08,1.6l-0.08,2.87l0.42,4.47l-0.04,1.48l-0.55,2.19v1.77l0.17,0.46l0.34,0.38l0.34,0.21l0.34-0.04l0.04,0.34l0.59,0.29
	l1.77-0.29h1.14l0.21,0.08l0.08,0.13l0.72,0.55l0.38,0.51l0.13,0.63l0.04,1.69l-0.29,0.59l-0.97,0.97l-0.25,0.13l-0.42,0.08
	l-1.1-0.13l-1.73-0.59l-0.63-0.34l-1.22-0.34l-0.93-0.17h-2.02l-1.52,0.25l-2.78,0.17l-0.76,0.21l-0.34-0.17l-0.29,0.17l-0.17,0.29
	l-0.21,0.08l-0.25-0.21h-0.21l-0.29,0.67l-0.25,0.13l-1.1,0.21h-0.59l-0.29-0.08L646.8,71l-0.76-1.18l-0.13-0.76l0.25-1.52
	l0.34-0.93l0.84-0.93l0.8-0.51l0.55-0.17l1.22,0.08l0.59,0.17l1.14-0.04l1.14-0.46l0.46-0.42l0.21-0.55l0.08-0.67l0.08-2.11
	l0.59-2.95l0.21-0.51l0.13-0.72l0.08-1.69l-0.17-3.08l0.08-5.06l-0.17-0.59l0.08-0.17l0.38-0.25l0.13-0.29l-0.34-0.46l-0.38-0.08
	l-0.29-0.97l-0.13-1.69l-0.08-4.34l-0.25-1.9l-0.3-0.8l0.04-0.46l-0.21-0.42l-0.67-0.63h-0.17l-0.21,0.13l-0.25-0.04l-0.38-0.34
	h-1.9l-1.35,0.21h-0.46l-0.46-0.21l-0.55,0.04l-0.29-0.17l-0.04-0.13l0.13-0.63l-0.55-0.25l-0.21-0.21v-0.84l0.5-0.59l0.84,0.34
	l0.25-0.46l0.34-0.08v-0.17l-0.42-0.17l-0.08-0.13l0.13-0.38l0.8-0.38l0.29-0.34l0.55-0.13l1.85,0.04l1.31,0.21h1.77l1.56-0.42
	l1.77-0.25l0.93,0.13l0.42,0.46h0.25l0.29,0.17l0.04,0.13l0.13,0.08l0.42,1.01l0.17,1.18l0.04,1.77l0.13,0.08h0.38l0.51-0.17
	l0.59-0.42l2.15-3.2l0.38-0.3l1.22-0.72l0.67-0.17l2.53-0.17l0.34-0.21h0.25l0.38,0.38l0.93-0.08l0.17-0.17v-0.34H671.75z
	 M694.17,26.46l0.38,0.42l1.26,0.17l0.42,0.42l0.88,0.17l0.46,0.25l1.85,0.29l0.21,0.21l0.72,0.38l0.46,0.38l0.29,0.46l1.01,0.17
	l0.25,0.42l0.04,0.46l0.38,0.38l0.17,0.42l0.46,0.59l0.34,0.8l0.13,0.8l0.29,0.25l0.25,0.63l0.25,0.25l0.25,2.02l0.17,0.51
	l-0.04,0.17l0.17,0.38l0.34,0.25l0.08,0.21l0.13,1.73l-0.08,2.4l-0.13,0.72l-0.21,0.59l-0.08,0.63v1.47l0.34,1.26l0.21,3.16
	l-0.17,1.77l0.08,0.17l-0.08,0.38l-0.38,0.51l0.13,0.25l-0.08,0.17l-0.13,0.04l-0.13-0.08l0.08-0.04v-0.38l-0.21-0.55v0.97
	l0.51,2.15l0.25,1.98l-0.04,1.56l-0.17,1.18l-0.42,1.6v0.88l0.29,0.55v0.72l0.3,0.51l1.43,1.52l0.08,0.21l0.34,0.29l0.08,0.21h0.13
	l0.21,0.84l-0.08,0.97l-0.67,0.8l-0.72,0.21h-3.16l-1.01,0.17l-2.07,0.13l-0.84,0.13l-1.9,0.59l-1.64,0.72l-0.72,0.04l-0.38-0.08
	l-0.34-0.29L694,70.54l-0.51-1.05l-0.08-0.76l0.08-1.26l0.38-1.22l0.25-0.42l0.55-0.46l0.8-0.34l2.19,0.25l0.46-0.13l0.46-0.46
	l0.34-0.55l0.17-0.63l0.08-1.35l-0.08-2.06l0.17-1.64l0.13-0.29l0.29-1.43l0.08-0.17l0.21-1.22v-1.52l-0.21-3.88l0.13-0.97v-2.74
	l-0.59-2.44l-0.38-1.22l0.04-0.08l-0.17-0.89l-0.08-0.08v-0.46l-0.13-0.08l-0.17-0.29v-0.97l0.13-0.51l-0.04-0.59l-0.13-0.21
	L698,38.21l-0.13-0.46l-0.25-0.29l-0.04-0.21l0.13-1.22h0.21l0.13,0.13l0.13,0.34l0.25,0.29l0.08,0.29l0.08,0.93l0.08,0.21
	l0.38,0.08l0.42-0.29l0.34,0.04l0.04,0.13l0.84,0.55l0.04,0.63l0.08,0.08l0.17-0.08l0.21,0.08l-0.17,0.29l0.25,0.63v1.14l0.76,0.29
	l0.21,0.17l0.13-0.34l-0.17-0.42l-0.13-0.13l-0.04-0.67l-0.25-0.67h-0.08l-0.21-0.34l0.04-0.55l-0.67-0.51l-0.59-0.67l-0.29-0.76
	l-0.29-0.25l-0.13-0.29l-1.01-0.38l-0.34-0.59h-0.46l-0.21,0.25l-0.63,0.08l-0.42-0.42h-0.67l-0.25-0.08l-1.01-0.8l-0.51-0.25
	l-0.42-0.59l-0.38-0.25l-0.38-0.13v0.08l-0.21,0.08h-0.38l-0.25-0.25h-0.08l-0.21-0.25v-0.59l-0.13-0.17h-0.67l-0.17-0.63
	l-0.21-0.34l-0.46-0.21l-0.67-0.46l-0.3-0.13l-1.35-1.05l-0.55-0.59l-0.25-0.04l-0.08-0.63l0.34,0.04l0.72-0.63l0.8-0.51h4.21
	l0.29-0.38l0.21-0.08H694.17z M702.22,42.09l-0.04,0.17l-0.34,0.21l-0.04,0.17l0.08,0.38l0.25,0.34l0.13,0.38l-0.04,0.25l-0.17,0.25
	l0.08,0.04l0.42-0.08l0.25,0.46l0.29,0.21l0.17,1.05l0.42,0.72l0.13,0.04v0.08l0.25-0.17l-0.25-0.55l-0.17-0.88l-0.38-1.05
	l-0.29-0.46l-0.42-0.38l-0.21-1.18H702.22z M712.54,64.55l0.29,0.13l0.08,0.17l0.46,0.29l0.46,0.46h2.57v4.64l-1.56,0.08l-0.17,0.21
	l-0.04,0.51l-0.59,0.59l-0.59,0.42l-0.5,0.17h-1.69l-1.05-0.25l-0.76-0.34l-1.1-0.25l-0.67-0.55l-0.25-0.55l0.13-0.59l0.21-0.08
	l0.29,0.17l0.04-0.21l-0.17-0.76l0.38-0.46v-0.72l-0.17-0.51l-0.13-0.08l-0.08-0.21l-0.46-0.59l-0.08-0.51l0.04-0.42l0.38-0.29
	l1.52-0.21l0.84-0.21l0.97-0.04H712.54z"/>
<path class="st1" d="M262.78,89.34l0.25,0.17v0.38l0.13,0.17l0.46,0.13l0.38-0.04l1.43,0.25l1.1,0.34l0.89,0.13l0.8,0.21l0.46,0.34
	l1.52,0.17l0.55,0.25l0.51,0.38l0.88,0.42l0.97,0.88l0.17,0.04l0.8,0.93l0.59,0.17l0.08,0.3v0.42h-0.17l-0.13,0.13l0.17,0.04
	l0.25-0.13l0.17,0.08l0.25,0.63l1.22,2.06l0.8,2.95l-0.04,0.63l-0.25,0.72l-0.04,0.76l-0.38,1.05l-0.46,1.81l-0.25,0.59l-0.46,0.04
	l-0.17,0.21v1.1l-0.34,0.29l-1.43,0.84l-1.05,0.17l-1.73,0.08l-0.21-0.04l-0.3-0.38l-1.64-0.04l-0.34-0.34l-0.46,0.04l-0.17-0.13
	l-0.46-0.67l-0.13-1.1l0.17-1.48l0.08-0.04l0.38-1.05l0.72-0.97l0.21-0.8l1.26-0.8l0.29-0.34l0.29-0.72l-0.04-0.72l-0.25-0.8
	l-0.46-0.76h-0.08l-0.76-0.84l-1.43-1.1l-1.77-0.67l-1.64-0.21l-2.95,0.25l-2.65,0.38l-0.29,0.13v0.08h-0.13l-0.55,0.59l-0.97,0.8
	l-0.21,0.67l-0.17,0.13l-0.46,0.17l-0.25,0.25l-0.72,0.46l-1.1,1.05l-0.08,0.46l-0.13,0.29l-0.29,0.17l-0.08,0.21v0.46l-0.08,0.17
	l-0.55,0.25l-0.38,1.69l-0.21,0.55l-0.72,1.35l-0.38,1.81l0.04,1.81l0.34,2.06l0.17,1.73l0.08,2.15l0.29,2.74l0.34,1.01l0.34,0.42
	v0.29l-0.21,0.21l0.13,0.29l0.38,0.38l0.13,1.43h0.25l0.17-0.08l0.13,0.04l0.55,0.93l0.13,0.42l0.17,0.25l0.25,0.13l0.29,0.29
	l0.29,0.63l0.25,0.21l0.17,0.25l-0.04,0.51l1.39,1.52l0.04,0.21l0.34,0.42l-0.08,0.42l0.08,0.08l0.25-0.08l0.34,0.17l0.51,0.42
	l0.42,0.04v-0.08l0.17-0.13l0.34,0.04l0.42,0.21l1.18,0.13l0.89-0.08l0.55-0.38l0.59-0.04l0.34-0.38l2.02-0.21l0.46-0.17l0.04-0.17
	l-0.13-0.25l0.04-0.13l0.34-0.21l1.01-0.17l0.59,0.13l2.74-2.53l0.42-0.55l0.17-0.51l0.46-0.55l0.21-0.8l0.51-1.26l0.21-1.1
	l0.25-0.46l0.13-0.04l0.42-0.67l-0.08-0.46l0.08-0.17l0.63-0.55l0.29-0.51l-0.08-0.38l0.04-0.17l0.97-0.93l0.42,0.04l0.63,0.42
	l0.67,0.08l0.67,0.63l0.42,0.59l0.34,1.14v1.01l-0.08,0.72l-0.38,1.6l-0.8,2.4l-0.29,1.73l-0.25,0.38l-0.55,1.22l-0.72,0.67
	l-0.34,0.13l-1.85,1.31l-0.8,0.8l-0.63,0.38l-0.63,0.76l-0.51,0.46l-0.55,0.17l-2.19,1.01l-0.88,0.08l-0.97,0.38l-0.42,0.29h-1.05
	l-0.51,0.76l-1.39,0.13l-1.39-0.13l-1.1-0.34l-0.59-0.04l-0.84-0.34l-2.02-0.34l-2.19-1.1l-1.22-0.93l-0.38-0.42l-0.67-0.42
	l-0.04-0.13l-0.42-0.34l-0.08-0.72l-0.51,0.04l-0.17-0.13l-0.17-0.29l-1.1-1.22l-0.59-1.05l-0.51-0.63l-0.13-1.01l-0.08-0.13
	l-0.51-0.25l-0.55-0.55l-0.17-0.25l0.04-0.21l-0.13-1.31l-0.21-0.21l-0.21-0.42l-0.04-2.82l-0.29-1.18l-0.55-3.24v-2.23l0.17-2.02
	l-0.17-3.83l0.13-2.44l0.46-1.77l0.21-0.25l0.51-0.88l0.34-1.14l-0.04-0.51l0.08-0.17l0.97-0.72l0.04-0.51l-0.08-0.04l-0.04-0.21
	l0.13-0.25l0.42-0.38l0.72-0.93l0.93-0.93l1.47-1.14l0.72-0.84v-0.34l0.08,0.08h0.25l0.13-0.13l0.08-0.55l0.21-0.29l0.25,0.04
	l0.21,0.55l0.21-0.04l0.25-0.8l0.55-0.72l0.72-0.55l1.14-0.13l1.39-0.42l2.87-0.13l1.43-0.25v-0.59l0.13-0.08H262.78z"/>
<g>
	<path class="st2" d="M326.08,123.13l-0.21-2.95l-0.17-0.59l0.21-0.67l-0.17-0.76l-0.08-0.08l0.08-0.34l-0.04-0.55l-0.59-0.42
		l-0.17-0.21l-1.64-0.34l-0.76,0.21l-0.38,0.46l-0.21,0.8l-0.08,0.08l-0.04,1.31l0.34,3.5v0.59l-0.38,3.2l-0.17,0.93l-0.25,0.55
		v0.17l-0.34,0.51l-0.42,0.21l-0.72,0.08l-1.1-0.25l-0.34-0.25l-0.67-0.8l-0.29-1.22l-0.21-0.21l-0.21,0.34l-0.04-0.04v0.13h-0.08
		l-0.17-1.52l0.34-0.42v-2.99l0.08-0.63l0.04-1.6l-0.08-1.6l-0.42-2.91v-0.76l0.29-1.94l0.13-2.23l-0.13-1.98l0.04-0.59l0.42-0.13
		l0.08-0.25v-0.88l-0.17-0.25l-0.38-0.08v-1.39l0.21-1.48l0.04-1.6l-0.13-0.72l-0.29-0.46l-0.04-0.67l-1.05-3.46l-0.34-0.29
		l-0.42-0.89l-0.04-0.84l-0.08-0.04V93.8l-0.59-0.25l-0.67-0.89l-0.29-0.59l-0.67-0.21l-0.34-0.3l-1.69-0.97l-1.35-0.42l-0.97-0.13
		l-2.87,0.13l-1.56-0.25l-2.53-0.21l-0.13,0.04l-1.26,0.21l-0.8,0.38l-1.14,0.17l-0.17,0.08l-0.08,0.21l0.13,0.38l-0.04,0.08
		l-0.38,0.08l-1.48,0.04l-0.46-0.38l-1.9,1.18l-0.34,0.59l-0.46,0.42v0.13l-1.52,2.28l-1.05,1.18l-0.46,0.25l-0.08,0.13v0.72
		l-0.29,0.67l-0.21,1.1v0.84l0.21,0.89l0.08,0.67l0.34-0.08l0.08,0.34l-0.25,0.21l-0.04,0.34l0.17,0.88l1.14,1.39l1.98,0.55
		l1.01,0.13l1.64-0.25l0.55-0.42l0.76-1.01l0.29-0.63l0.21-1.98l-0.17-1.22l0.04-0.25l-0.8-1.6v-0.93l0.25-0.59l0.97-0.97l1.18-0.21
		l0.29-0.13h0.25l0.25,0.29l0.25,0.08l1.1-0.21l0.25-0.17l-0.21-0.46l1.18-0.29l1.69-0.17l1.26,0.17l1.18,0.38h0.63l0.38,0.13
		l0.55,0.59l0.3,0.04l0.46,0.29l0.34,0.04l0.21-0.17h0.13l0.08,0.17l-0.13,0.3l0.04,0.21l0.59,0.42l0.29,0.34l0.88,1.35l0.04,2.91
		l-0.21,1.43l0.04,0.29l-0.29,0.72l-0.08,0.04l-0.38-0.08v0.67l-0.8,0.17l-0.72,0.51l-0.34,0.8L308,106.7l-0.46,0.08l-1.05,0.67
		l-0.46-0.04l-0.17,0.13l-0.38,0.59l-0.42,0.08l-1.9,0.04l-1.73,0.46l-2.06,0.13l-0.17,0.08l-0.29,0.51l-2.99,0.21l-2.11,0.51
		l-0.93,0.67l0.13,0.59l-0.21,0.13l-0.63-0.13l-0.8,0.59l-0.46-0.04l-0.46,0.21l-0.21,0.21v0.63l-0.34,0.42l-0.51-0.08l-0.34,0.55
		l-0.34,0.29l-0.17,0.34v0.25l0.17,0.34v0.25l-0.34,0.51l-0.21,0.59l-0.04,1.94l-1.05,5.52l0.38,2.02l0.34,1.1l0.63,0.93l0.38,0.88
		l1.22,1.6l0.04,0.63l0.88,0.76l0.34-0.08l0.59,0.46l0.63,0.34l0.51,0.46l0.46,0.29l1.26,0.29l3.08,0.51l0.38,0.17l1.05,0.08
		l0.29,0.13l1.35,0.04l0.84-0.25h0.42l1.26-0.72l2.87-1.31l0.42-0.29l1.1-0.25l1.26-1.18l0.29-0.67h0.51l0.29-0.59l0.46-0.25
		l0.67-0.67l0.34-0.13h0.51l0.42,0.17l0.46-0.08l0.17,0.25l0.17,2.28l0.72,0.97l0.13,0.29l0.08,0.46l0.25,0.29l0.42,0.3l0.59,0.04
		l0.29,0.25l1.1,0.46l1.05,0.29l1.1,0.04l0.72-0.17l0.42-0.72l2.36-0.13l0.46-0.13l0.29,0.34l0.3,0.04l0.29-0.29l0.38-0.21
		l0.42-0.42l0.29-0.5l0.51-1.43l0.17-2.15l0.25-0.93l0.29-1.81v-1.77L326.08,123.13z M311.75,117.57l-0.34,2.23l-0.38,1.31
		l-0.13,1.47l-0.84,1.35l-0.34,0.38l-0.72,0.42l-0.8,0.67l-0.72,0.38l-1.18,0.97l-6.74,2.15l-1.14,0.04l-1.35-0.34l-0.55-0.42
		l-0.13-0.17l-1.22-0.76l-0.63-0.8l-1.01-1.77l-0.17-2.06l-0.13-0.21l-0.17-0.04l-0.08,0.25l-0.13,0.13l-0.13-0.13v-0.88l0.21-0.25
		l0.08-2.19l0.13-0.63l0.34-0.63l0.63-0.72l0.29-0.59l0.08-0.42l0.84-0.13l0.97-1.05l0.8-0.17l0.29-0.13l1.73-0.04l0.97-0.17
		l0.38-0.13l0.63-0.04l0.51-0.21l2.44-0.59l1.39-0.25l2.53-0.21l0.8-0.38l0.46-0.42l0.08-0.17l0.42-0.42l0.59-0.29l0.25-0.04
		l0.46,0.08l0.34,0.55l0.34,3.83V117.57z"/>
</g>
<path class="st1" d="M336.78,74.84l0.76,0.08l1.31,0.34h0.8l1.52,0.42l2.78,0.04l1.31-0.17l1.01,0.34l0.46,0.51l0.13,0.84l0.42,0.13
	l0.38,0.25l0.29,1.39l0.04,2.4l-0.08,0.25l-0.13,0.13l-0.21,0.04l-0.17,0.13l-0.13,0.34v0.72l-0.21,0.8l-0.04,0.89l0.13,2.99
	l0.21,0.29l-0.04,0.25l-0.21,0.34l0.04,0.17l0.34,0.29l-0.04,0.3l-0.25,0.21l-0.04,0.29l0.34,0.25v5.98l0.08,0.17l0.38,0.04
	l0.13-0.17l0.29-0.04l0.17,0.17l0.08-0.04v-0.59l0.13-0.17l0.29-0.13l0.46-0.08l0.17-0.13v-0.55l0.21-0.38l0.21-0.08l0.34,0.13
	l0.25-0.13l0.25-0.55l1.56-1.39l0.42-0.13l0.42-0.25l0.08-0.13l0.8-0.34l1.18-0.08l1.35-0.25l2.82-0.88l1.56,0.08l1.1,0.29h0.34
	l0.29-0.08l0.21,0.08l0.34,0.34l0.21,0.08l0.25-0.08l0.38-0.38l0.63,0.04l0.29,0.55l0.93,0.08l0.55,0.21l0.46,0.51l0.67,0.04
	l0.72,0.38l0.13,0.21l0.8,0.76l0.67,0.8l0.63,0.34l0.29,0.38l0.17,0.38l0.04,0.59l0.34,0.46l0.93,2.4l0.59,2.74l0.21,0.42l0.67,1.9
	l0.17,2.44l-0.38,3.71l0.04,1.6l0.13,0.72l0.04,1.14l-0.08,0.34l-0.08,1.22l-0.42,2.32v1.43l0.25,2.82l0.25,1.6l0.08,2.4l0.25,0.72
	l0.46,0.72l0.42,0.34h0.55l0.08,0.63l0.76,0.17l1.22,0.08l0.3-0.08l0.25-0.51l0.34-0.13l0.84,0.08l0.93,0.25l0.04,0.13l0.25,0.08
	l0.29,0.21l0.51,0.89l-0.17,0.38h0.51l0.13,0.21v1.18l-0.08,0.29h-0.21l-0.17-0.29h-0.08l-0.3,0.88l-0.63,1.1l-0.13,0.08l-0.46,0.08
	h-3.03l-1.1,0.25l-1.01,0.04l-4.47-0.55l-0.13-0.08l-0.04,0.04l-0.04-0.29l-0.21-0.29l-0.21-0.04l-0.21,0.21l-0.04,0.25l0.08,0.21
	l-0.25,0.08l-1.69,0.17h-2.06l-1.64-0.29l-1.22-0.04l-0.8-0.21l-1.05-0.8l-0.42-0.46l-0.13-0.29v-2.57l0.17-0.34l0.55,0.21
	l0.38-0.59l0.17-0.04l0.51,0.29h0.72l2.78,0.67l1.18-0.13l1.01-0.84v-0.08l0.13-0.13l0.17-1.01l0.25-3.41l0.08-0.25l0.08-0.84
	l-0.08-3.5l-0.25-0.88l-0.13-1.81l0.04-1.52l0.38-2.95l-0.04-1.94l-0.34-2.61l-0.25-4.8l-0.17-0.51l-0.13-0.08l-0.38-0.76
	l-0.13-0.08l-0.25-0.76l-0.34-0.63l-1.52-1.64l-1.64-1.18l-0.84-0.46l-1.26-0.04l-0.63,0.13l-1.31,0.13v0.13h0.13v0.3l-0.21,0.13
	l-0.13-0.13l-0.04-0.25l0.17-0.13l-0.42-0.04l-0.59,0.08l-3.03,0.08l-0.46,0.13l-0.63,0.84h-0.51l-0.34,0.13l-0.17,0.21l-0.08,0.63
	l-0.93,0.84h-0.21l-0.59,0.34l-0.21,0.46l0.04,0.25l0.17,0.29l-0.51-0.04l-0.38,0.42l-0.8,1.52l-0.42,0.34l-0.51,1.39l-0.63,3.96
	l-0.3,1.35l-0.04,0.84l-0.38,0.8l-0.04,2.95l0.38,1.81l0.08,1.1l-0.08,5.18l0.17,1.85l0.17,0.72l0.13-0.04l0.21-0.25l0.25,0.29
	l-0.08,0.42l-0.38,0.13l0.04,0.38l0.46,0.29l0.08,1.81l0.25,0.5l0.72,0.38h1.1l1.56-0.67l1.64-0.04l0.46,0.08l0.89,0.97l0.34,0.93
	v1.05l-0.38,0.93l-0.21,0.17l-0.17,0.38l-1.31,1.22l-0.46,0.29l-0.63,0.21l-1.26-0.04l-3.96-0.93l-3.12-0.08l0.04-0.46l-0.17-0.13
	l-0.38,0.04l-0.13,0.13l-0.04,0.25l-0.08,0.08l-3.08-0.46l-1.31,0.04l-0.13,0.59l-0.76,0.21l-0.21-0.04l-0.21-0.46l-0.21-0.04
	l-0.34,0.59l-0.38,0.08l-0.46-0.08l-0.25-0.29l-0.55,0.25l-0.55-0.08l-0.59-0.29l-0.93-1.05l-0.38-0.93l-0.04-0.5l0.38-1.1
	l0.76-0.93l0.59-0.42l0.97-0.46l0.93,0.04l1.69,0.42l1.05,0.08l1.31-0.08l0.25-0.13l0.38-0.38l0.34-0.97l0.17-0.04l0.3,0.08
	l0.29-0.25l0.21-0.63l0.25-1.31l-0.25-0.51v-0.21l0.21-0.34v-2.82l-0.42-0.59l-0.08-1.18l-0.04-4.89l-0.59-3.62l-0.04-2.7l0.38-2.36
	l0.04-4.93l0.21-1.18l0.08-0.08l0.29-1.43l-0.04-0.13l0.08-0.67l-0.08-2.4l-0.34-3.29V87.4l-0.55-3.03l-0.42-1.26l-0.59-1.26
	l-0.3-0.97l-0.25-0.29l-0.34-0.17l-0.46-0.04l-0.08-0.3l-0.51-0.04l-0.46-0.25l-2.91,0.25l-0.76-0.04l-1.01-0.38l-0.67-0.97
	l-0.29-0.93l0.04-1.18l0.34-0.59l0.67-0.59l0.76-0.25l1.31-0.21L336.78,74.84z"/>
<path class="st1" d="M394.72,91.11l2.28,0.34l4.13-0.13l4.68,0.51l0.46,0.42l0.55,1.1l0.34,1.26l0.04,0.67l0.17,0.55l-0.13,2.99
	l0.13,0.76l-0.08,0.42l-0.25,0.38l0.17,5.48l0.13,0.17l0.29,0.13l0.04,0.59l-0.17,0.59l-0.17-0.04v-0.13l-0.25-0.21l-0.29,1.43
	l-0.04,2.91l0.29,2.19v2.74l-0.21,2.36l0.38,3.29l0.34,1.48v1.14l0.13,1.94l0.13,0.21l0.59,0.59l1.56,0.72l0.97,0.29l1.85,0.13
	l0.63,0.13l0.21,0.13l0.84,0.25l0.38,0.25l0.34,0.34l0.38,0.63l0.08,0.88l-0.13,0.84l-0.29,0.55l-1.22,0.84h-1.01l-0.84-0.29
	l-2.02-0.42h-3.83l-1.56-0.17l-0.84,0.04l-1.35,0.25l-1.77,0.8l-1.1,0.3l-4.89-0.04l-1.52-0.67l-0.25-0.29l-0.42-0.93l-0.42-0.21
	l-0.13-0.42l0.08-1.1l0.17-0.34h0.29l0.17,0.08l0.04-0.13l0.63-0.72l0.25-0.04l1.18-0.5h1.14l1.31,0.29l0.46-0.04l0.72-0.21
	l0.84-0.42l0.51-0.42l1.01-1.22l0.21-0.72v-0.72l0.17-1.73l0.29-1.31v-2.53l-0.38-2.49v-3.12l0.17-1.56v-2.44l-0.08-0.21v-0.93
	l-0.13-0.76v-2.11l0.42-0.72l-0.08-5.48l-0.13-0.76l-0.46,0.08l-0.25-0.29l-0.13-0.38l-0.67-0.76l-1.26-0.17l-1.01-0.42l-2.32-0.17
	L394,96.37l-0.25-0.63l-0.38-0.13l-0.08-0.17l0.13-0.51l-0.08-0.21l-0.34-0.17l-0.29-0.88l0.08-0.93l0.29-1.22l0.25-0.21l1.31-0.17
	L394.72,91.11z M403.4,77.88l0.34,0.08l0.97,0.46l0.51,0.42l0.42,0.25l0.38,0.55l0.34,0.8l0.29,2.57l-0.29,1.6l-0.13,0.17
	l-0.13,0.04l-0.17,0.34l0.21,0.34l0.04,0.21l-0.08,0.17l-0.59,0.17l-0.5,0.67l-0.17,0.59l-0.8,0.63l-0.88,0.17l-0.25,0.51
	l-0.29-0.04l-0.29-0.63l-0.93-0.46l-0.17-0.21l-0.76-0.55l-0.29-0.29l-0.08-0.38l0.13-0.29V85.5l-0.5-0.93l-0.04-1.1l-0.08-0.21
	l-0.34-0.17l-0.08-0.25l0.04-0.29l0.25-0.67l0.51-0.04l0.17-0.13l0.13-0.29l-0.13-1.1l0.08-0.17l1.35-1.31l1.35-0.89l0.42-0.04
	L403.4,77.88z"/>
<g>
	<path class="st2" d="M455.44,108.22l-0.13-0.21l-0.17-1.39l0.04-0.55l-0.29-4.05l-0.34-0.93l-0.46-0.72l-0.46-1.39l-0.8-1.14
		l-0.42-0.13v-0.59l-0.08-0.21l-0.84-0.97l-0.25-0.46l-0.55-0.55v-0.63l-0.17-0.21l-0.67-0.13l-1.73-1.48l-0.34-0.08l-0.63-0.29
		l-0.59-0.42l-0.3-0.13l-1.98-0.25l-1.1-0.42l-2.32-0.59l-1.31-0.21h-1.26l-0.55,0.13l-1.01,0.04l-1.73,0.34l-0.93,0.29l-1.64,0.17
		l-0.42-0.04l-0.42,0.17l-0.29,0.34l-0.21,0.46l-0.93,0.72l-0.29,0.42v0.08l-0.63,0.72l-0.59,0.8l-1.77,1.56l-0.21,0.25l-0.84,0.25
		l-0.21,0.29l0.04,0.51l-0.55,0.72l-1.14,2.61l-0.17,0.97l-0.17,0.42l-0.51,0.63l-0.34,0.8l-0.34,1.94l-0.04,0.97l0.34,4.05v0.63
		l-0.21,1.94l0.08,1.6l0.25,0.84l-0.04,0.04l0.17,0.88l0.04,0.63l0.46,2.02l0.04,1.9l0.59,2.7l0.13,1.1l0.59,0.51l0.34,0.72
		l0.63,0.88l0.46,0.93l2.78,3.12l2.07,1.56l0.8,0.25l0.17,0.17l-0.04,0.46l0.08,0.13l0.72,0.17l0.21-0.04l0.34-0.21l0.21,0.21
		l0.29,0.13l0.59-0.08l1.05,0.38l0.72,0.04l0.29,0.21l1.18,0.34l1.31,0.17l0.42-0.04l0.72-0.25l0.63-0.38l1.22-0.59l1.39-0.38
		l1.73-0.13l2.32-1.52l0.63-0.72l0.88-0.46l0.42-0.42l1.94-1.14l0.38-0.29l0.8-0.89l0.21-0.42l0.17-0.67l0.51-1.22l0.42-1.56
		l0.38-0.59l0.63-1.73l0.34-1.43l-0.17-1.14l-0.42-0.88l-0.84-0.93l-0.25-0.38l-0.17-0.13l-0.88-0.08l-0.89,0.38l-0.67,0.84
		l-0.8,1.9l-0.13,0.13l-0.51-0.08l-0.08,0.13l0.08,0.29l0.17,0.08v0.29l-0.08,0.13h-0.13l-0.13-0.51l-0.42,0.13l-0.08,0.63
		l0.13,0.21l0.34,0.25l0.04,0.59l-0.17,0.55l-0.17,0.21l-0.21,0.59v0.17l-0.46,0.72l-1.35,1.26l-0.72,0.46l-0.38,0.17l-0.76,0.76
		l-0.51,0.34l-0.97,0.42l-0.21,0.17l-1.35,0.38l-2.28,0.17l-2.23,0.63l-0.5-0.04l-1.05-0.59l-0.72-0.08l-0.63-0.38l-0.21-0.04
		l-0.51-0.55l-0.5,0.08l-0.55-0.67l-0.13-0.25l-0.46-0.46v-0.59l-0.63-1.1l-0.5-0.67l-0.34-0.8l-0.8-1.47l-0.55-1.18l-0.3-0.08
		l-0.08-0.13l-0.08-1.48l-0.13-0.25l-0.08-0.55l-0.17-0.04l-0.17,0.17v0.13l-0.08,0.08l-0.25-1.14v-1.35l0.38-0.38l0.08-1.81
		l0.13-0.21l0.25-0.08l2.4-0.25l0.67-0.17h2.23l2.06,0.46h2.61l2.23-0.17l2.61,0.25l0.63,0.17l1.69-0.04l0.59-0.17h0.25l1.39-0.29
		l4.38,0.08l1.01-0.42l0.29-0.34l0.21-0.84l0.08-0.08l0.34,0.13l0.21-0.04l0.38-1.14l0.34,0.17l0.21-0.21l0.13-1.05v-0.63
		L455.44,108.22z M449.21,105.98l-0.08,1.18l-0.17,0.25l-0.25,0.04l-1.73-0.13l-1.85,0.21l-1.52,0.25l-2.19-0.08l-0.88-0.17
		l-0.34-0.13h-0.59l-0.76-0.13l-4,0.29l-1.85-0.17l-0.63-0.21l-0.84-0.04l-0.38,0.42l-1.52,0.04l-0.34-0.34h-0.21l-0.21,0.29
		l-0.21,0.04l-0.25-0.34l-0.04-0.3l0.08-1.05l0.55-1.43l0.25-1.18l0.08-0.76l1.18-2.02l0.21-0.21L431,99.7l0.46-0.04l2.02-2.36
		l0.51-0.38l0.21-0.08l0.38-0.42l0.29-0.17l0.84-0.04l4.09-0.72l1.1,0.04l1.39,0.38l0.51,0.38l0.93,0.08l1.56,1.26l0.42,0.21
		l0.29,0.29l0.5,0.72l0.17,0.13l0.46-0.08l0.34,0.46l-0.13,0.59l0.25,0.21l0.34,0.13l0.25,0.38v1.1l1.1,3.88L449.21,105.98z"/>
</g>
<path class="st1" d="M489.24,90.39l2.06,0.25l0.25,0.17l0.76,0.17l0.42,0.21h0.55l1.69,0.42l0.46,0.38l0.67,0.76l0.13,0.67
	l1.35,1.85l0.59,1.43l0.34,0.59l0.55,3.79l0.13,0.34l0.04,2.74l-0.17,1.14l-0.63,1.31l-0.42,0.42l-0.63,0.97l-0.42,0.38l-0.46,0.21
	l-0.13,0.13l0.08,0.51l-0.21,0.21l-0.59,0.29l-0.55-0.13l-0.17,0.04l-0.38,0.34l-0.46-0.51l-0.67,0.21l-1.64,0.04l-0.55-0.17
	l-0.42-0.25l-0.59-0.88h-0.34l-0.25-0.29l-0.34-1.73l0.04-1.52l0.21-0.51l0.34-0.55l0.84-1.01l0.59-0.46l1.73-0.72l0.04-0.76
	l0.42-0.04l0.13-0.21l-0.04-0.59l-0.17-0.63l-0.67-1.18l-0.97-1.1l-1.05-0.93l-1.56-0.76l-1.31-0.13l-0.17,0.08l-0.13,0.17
	l-0.59,0.04l-0.17,0.17l-0.13,0.29l-0.63,0.04l-0.38,0.38l-0.8,0.04l-0.76,0.46l-0.42,0.63l-0.42,0.42l-0.55,0.04l-0.72,0.8
	l-0.21,0.42l-0.42,1.64l-0.25,0.51l-0.29,2.23l-0.25,0.67l-0.04,0.59l-0.34,0.42l-0.21,0.63l-0.34,1.85l0.17,1.05v2.49l-0.17,2.15
	l0.17,0.72l0.25,0.3v0.55l-0.13,0.25l-0.38,0.04l-0.08,0.21l0.04,0.29l0.13,0.13l0.38,0.08l0.21,1.9l-0.04,3.41l-0.17,0.13
	l-0.08,0.21l0.29,0.42l-0.04,0.3l-0.34,0.29l-0.13,0.21l0.08,1.1l-0.08,0.97l0.46,1.52l0.8,0.8l0.59,0.42l0.29,0.13l1.1,0.21
	l1.6-0.13l1.22-0.25l0.55,0.04l1.05,0.3l0.21,0.13l0.72,0.72l0.46,0.93v0.93l-0.25,0.84l-0.67,0.88l-0.51,0.46l-0.34,0.17v0.25
	l0.08,0.21l-0.25,0.25l-1.22,0.08l-0.51-0.46l-0.67-0.04l-0.38-0.21l-1.85-0.17l-3.5,0.42l-1.69,0.04l-0.93-0.17l-0.38,0.13h-2.57
	l-2.61,0.17l-2.7-0.17l-0.25-0.21h-0.59l-0.42-0.29l-0.38-0.13l-0.29-0.21l-0.84-1.22l-0.08-0.59l0.04-0.97l0.08-0.38l0.21-0.34
	l1.05-0.46l2.11-0.08l0.93,0.29l1.05-0.04l1.31-0.38l0.67-0.34l1.26-0.29l0.08-0.08v-0.72l0.17-0.51v-3.71l-0.13-2.74l0.13-1.43
	v-1.94l-0.38-2.61l-0.17-2.57l0.08-1.05l0.17-1.01l0.13-0.38l0.04,0.13l0.08-0.04l0.08,0.38l0.08,0.08l0.13-0.08v-0.38l-0.42-0.17
	l0.04-0.46l0.17-0.21h0.08l0.38-0.34v-0.34l-0.55-0.55l-0.13-1.94l0.08-0.25l0.04,0.08l0.29-0.08l0.08-0.08l-0.08-0.59l0.04-0.51
	l-0.38-0.04l-0.04,0.08l-0.04-2.19l0.17-0.84l-0.08-2.28l-0.17-0.42l-0.08-0.04l-0.34,0.13l-0.17-0.13l-0.04-0.76l-0.55-0.25
	l-0.34-0.46l-3.29-0.08l-1.6-0.25l-0.63-0.34v-0.08l-0.34-0.42l-0.38-0.8l-0.08-1.1l-0.13-0.25l0.04-0.46l0.21-0.17l0.63-0.25
	l0.08-0.21l0.42-0.34l0.46-0.17l3.03-0.38l1.98,0.04l0.93,0.17l0.38,0.17l3.54,0.04l0.93,0.38l0.34,0.42l0.34,0.97l0.04,0.59
	l-0.25,2.15l0.21,0.34l0.29-0.04l1.43-1.6l0.38-0.59l1.31-1.26l0.55-0.34l0.51-0.55l0.59-0.21l0.63-0.38l0.42-0.38l0.93-0.51h0.25
	l0.55-0.21l0.17,0.04l0.29,0.38l0.34-0.17l0.13-0.25l0.17-0.08L489.24,90.39z"/>
</svg>
