<?xml version="1.0" encoding="utf-8"?>
<!-- Generator: Adobe Illustrator 25.2.1, SVG Export Plug-In . SVG Version: 6.00 Build 0)  -->
<svg version="1.1" id="Capa_1" xmlns="http://www.w3.org/2000/svg" xmlns:xlink="http://www.w3.org/1999/xlink" x="0px" y="0px"
	 viewBox="0 0 2315.91 507.4" style="enable-background:new 0 0 2315.91 507.4;" xml:space="preserve">
<style type="text/css">
	.st0{fill:#991A15;}
	.st1{fill:#F9B03D;}
	.st2{fill:#9C9B94;}
	.st3{fill:#72160E;}
	.st4{fill:#F39323;}
	.st5{fill:#EB5B28;}
	.st6{fill:#B4B1A5;}
	.st7{fill:#CC1618;}
	.st8{fill:#9C9A93;}
	.st9{fill:#9C9B93;}
	.st10{fill:#9B9A93;}
	.st11{fill:#9A9992;}
	.st12{fill:#9B9992;}
	.st13{fill:#999891;}
	.st14{fill:#989790;}
</style>
<g>
	<path class="st0" d="M187.59,297.86c-22.82,0.02-45.63,0.16-68.45-0.03c-4.38-0.04-5.64,1.14-5.61,5.57
		c0.18,32.63,0.18,65.27,0.06,97.9c-0.08,19.54-12.76,37.11-30.71,43.09c-23.3,7.77-47.86-6.09-55.13-31.1
		c-0.54-1.87-0.48-3.99-2.15-5.41c0-1,0-2,0-3c1.46-1.72,0.98-3.81,0.98-5.76c0.02-107.11,0.02-214.22,0-321.34
		c0-1.96,0.42-4.03-0.98-5.77c0-0.67,0-1.33,0-2c1.58-1.89,1.43-4.33,2.01-6.52c6.34-23.86,29.21-38.06,52.39-32.45
		c19.04,4.61,33.53,23.33,33.59,43.92c0.12,40.79,0.04,81.57,0.05,122.36c0,6.92,0.01,6.93,6.68,6.93c20.32,0.01,40.63,0.01,60.95,0
		c6.49,0,6.5-0.02,6.5-6.65c0.01-39.12,0-78.24,0.03-117.37c0-1.97-0.41-4,0.5-5.91c0.18,3.94,0.35,7.89,0.53,11.83
		c-0.05,37.23-0.09,74.45-0.16,111.68c0,2.31-0.25,4.63-0.38,6.94c-2.16,0.11-4.31,0.31-6.47,0.32
		c-20.81,0.02-41.62,0.11-62.42-0.07c-4.21-0.04-5.85,0.95-5.81,5.52c0.19,26.96,0.19,53.92,0.01,80.87
		c-0.03,4.52,1.58,5.61,5.82,5.58c20.64-0.18,41.28-0.1,61.92-0.05C183.42,296.96,185.67,296.4,187.59,297.86z"/>
	<path class="st1" d="M427.56,27.04c2.45,1.86,5.54,1.53,8.29,2.4c18.65,5.88,31.67,23.94,31.69,44.4
		c0.05,47.46,0.01,94.92,0.01,142.38c0,60.61,0.06,121.23-0.04,181.84c-0.02,14.15-5.1,26.41-15.91,35.75
		c-19.6,16.94-47.96,13.41-62.96-7.72c-2.38-3.35-4.15-7.14-6.2-10.73c-3.1-10.01-3-20.3-2.87-30.62
		c0.64-51.04-0.51-102.08,0.78-153.14c1.09-43.06,0.24-86.17,0.22-129.26c-0.01-11.14-0.12-22.29-0.19-33.43
		c0.83-18.26,15.13-35.57,32.83-39.96c2.12-0.53,4.61-0.07,6.35-1.91C422.23,27.04,424.9,27.04,427.56,27.04z"/>
	<path class="st2" d="M2122.42,483.85c-0.03-5.99-0.32-11.99,0-17.96c0.22-4.11-0.78-5.62-5.16-4.97c-4.94,0.73-9.96,0.5-14.83-0.98
		c-3.92-1.2-7.42-3.19-9.82-6.5c-6.43-8.89-6.58-18.67-2.85-28.48c3.41-8.96,10.37-13.86,19.91-15.28
		c6.21-0.92,12.21-0.02,18.3,0.93c2.71,0.42,3.58,1.46,3.57,4.16c-0.09,21.63-0.06,43.26-0.02,64.89c0,1.54-0.23,2.93-1.11,4.2
		C2127.75,483.85,2125.08,483.85,2122.42,483.85z M2122.33,435.27c0-4.66-0.01-9.33,0-13.99c0-1.69,0.06-3.05-2.26-3.66
		c-6.25-1.65-14.48,0.51-18.3,5.18c-4.87,5.96-5.91,17.53-2.01,24.1c3.81,6.42,10.02,6.88,16.62,6.49c4.35-0.26,6.63-1.73,6.03-6.63
		C2121.96,442.98,2122.33,439.1,2122.33,435.27z"/>
	<path class="st2" d="M2290.4,447.87c-7.45,12.94-17.58,16.56-32.74,12.24c-3.33-0.95-2.82-2.62-2.21-4.7
		c0.58-1.97,0.78-4.26,4.2-3.15c4.59,1.49,9.36,2.32,14.22,0.75c3.44-1.12,6.13-3.04,6.33-6.82c0.19-3.63-2.29-5.69-5.45-6.95
		c-4-1.6-8.09-3.03-12-4.85c-4.91-2.27-6.99-6.3-6.7-11.73c0.29-5.38,2.85-9.26,7.64-11.35c7.38-3.23,14.97-2.32,22.48-0.28
		c3.13,0.85,1.48,3.17,1.18,4.94c-0.35,2.05-1.11,3.24-3.72,2.29c-4.11-1.49-8.45-1.95-12.78-1.01c-2.49,0.55-4.87,1.6-5.28,4.59
		c-0.42,3.07,1.29,5.11,3.81,6.4c1.91,0.98,3.94,1.86,6.02,2.34c7.45,1.73,12.87,5.62,14.99,13.29
		C2290.4,445.2,2290.4,446.54,2290.4,447.87z"/>
	<path class="st3" d="M25.6,72.02c1.4,1.74,0.98,3.81,0.98,5.77c0.02,107.11,0.02,214.22,0,321.34c0,1.95,0.48,4.03-0.98,5.76
		C25.6,293.93,25.6,182.98,25.6,72.02z"/>
	<path class="st4" d="M188.28,74.34c1.13-17.74,8.89-31.55,24.75-40.02c19.89-10.62,44.29-2.92,56.46,17.5
		c18.71,31.39,37.37,62.81,56.05,94.22c16.73,28.13,33.46,56.25,50.2,84.37c0.99,1.66,2.07,3.28,4,4.83c0-1.72,0-3.44,0-5.17
		c0-51.78-0.01-103.56,0.03-155.34c0-1.95-0.56-4,0.61-5.84c0.07,11.15,0.18,22.29,0.19,33.43c0.02,43.09,0.87,86.2-0.22,129.26
		c-1.29,51.06-0.13,102.09-0.78,153.14c-0.13,10.32-0.23,20.62,2.87,30.62c-9.93-16.46-19.94-32.88-29.78-49.39
		c-24.13-40.47-48.18-80.98-72.27-121.46c-1.27-2.13-2.67-4.18-4-6.26c-20.99-35.34-42.22-70.54-62.86-106.07
		c-8.74-15.04-19.72-28.93-24.73-45.99C188.63,82.23,188.45,78.29,188.28,74.34z"/>
	<path class="st5" d="M188.81,86.18c5.01,17.06,15.99,30.95,24.73,45.99c20.65,35.54,41.87,70.74,62.86,106.07
		c-0.96,1.9-0.49,3.93-0.49,5.89c-0.03,51.79,0.01,103.58-0.04,155.37c-0.02,20.25-11.19,37.49-28.4,44.18
		c-24.6,9.57-52.09-5.78-57.92-32.27c-1.01-4.59-1.25-9.22-1.25-13.87c-0.01-33.14-0.01-66.28-0.01-99.41
		c0-31.11-0.01-62.22-0.02-93.32c0.13-2.31,0.37-4.63,0.38-6.94C188.71,160.63,188.76,123.4,188.81,86.18z"/>
	<path class="st6" d="M1921.06,200.95c4.43-6.73,9.18-12.15,14.61-17.15c15.67-14.45,50.26-12.12,64.52-0.33
		c10.14,8.39,14.13,19.8,16.22,32.19c1,5.92,1.14,11.91,1.13,17.91c-0.05,31.81-0.08,63.62,0.05,95.44
		c0.01,3.48-0.67,4.76-4.51,5.16c-11.32,1.2-22.54,1.15-33.85-0.02c-3.69-0.38-4.68-1.55-4.66-5.15c0.14-27.98,0.1-55.96,0.06-83.94
		c-0.01-4.99-0.22-9.95-1.08-14.91c-2.46-14.23-8.36-21.32-27.15-17.46c-11.86,2.44-19.13,13.04-19.93,27.83
		c-1.53,28.12-0.36,56.27-0.68,84.4c-0.1,8.67,0.01,8.98-8.41,9.71c-10.45,0.91-20.93,0.73-31.38-0.62
		c-3.78-0.49-2.87-3.02-2.88-5.14c-0.04-27.98,0.03-55.96-0.07-83.94c-0.03-7.48-0.6-14.94-3.11-22.12
		c-2.42-6.93-7.27-10.46-14.51-10.95c-16.81-1.14-26.96,6.95-29.9,23.92c-0.74,4.26-1.13,8.55-1.12,12.91
		c0.07,26.48-0.05,52.96,0.12,79.45c0.03,4.03-0.65,5.67-5.23,6.11c-11.5,1.11-22.89,1.13-34.36-0.19
		c-2.75-0.31-3.64-1.15-3.64-3.92c0.07-49.8,0.07-99.6,0-149.4c0-2.73,0.83-3.62,3.57-4.02c9.29-1.35,18.51-1.32,27.82-0.08
		c3.59,0.48,4.86,2.29,5.46,5.27c1.05,5.14,2.04,10.29,3.14,15.87C1851.77,162.34,1910.11,168.29,1921.06,200.95z"/>
	<path class="st6" d="M981.35,198.02c11.2-16.93,26.33-24.95,46.13-24.17c19.57,0.77,35.35,7.38,43.6,27.13
		c3.8-6.11,8.06-11.39,13.15-15.99c12.34-11.12,27.22-12.77,42.62-10.49c24.22,3.59,36.91,17.64,39.73,42.26
		c0.76,6.64,1.02,13.26,1.02,19.92c-0.02,30.48-0.07,60.96,0.07,91.43c0.02,3.94-0.51,5.75-5.15,6.14
		c-10.99,0.92-21.88,1.02-32.86-0.06c-4.31-0.42-5.03-2.03-5.01-5.85c0.14-26.98,0.11-53.96,0.04-80.94
		c-0.01-5.65-0.01-11.3-1.11-16.91c-1.45-7.33-2.91-14.9-11.12-17.47c-9.16-2.87-18.23-2.02-25.87,4.46
		c-6.74,5.72-9.04,13.71-10.06,22.15c-1.05,8.79-0.63,17.62-0.65,26.44c-0.04,20.65-0.1,41.3,0.06,61.95
		c0.03,3.92-0.5,5.8-5.17,6.21c-10.99,0.97-21.87,1.01-32.86-0.07c-4.1-0.4-4.82-1.86-4.8-5.49c0.12-27.15,0.12-54.29,0.02-81.44
		c-0.02-5.97-0.43-11.93-1.48-17.86c-2.83-16.03-10.92-19.42-26.3-17.05c-8.21,1.27-13.55,6.5-16.88,14.02
		c-3.52,7.96-4.15,16.37-4.16,24.88c-0.02,25.81-0.07,51.63,0.07,77.44c0.02,3.73-0.85,5.07-4.86,5.48
		c-11.15,1.13-22.2,1.12-33.35,0.02c-3.99-0.39-4.84-1.68-4.82-5.4c0.14-29.31,0.08-58.62,0.08-87.94c0-19.65,0.07-39.31-0.07-58.96
		c-0.02-3.31,0.43-4.97,4.32-5.4c8.99-0.98,17.86-1.13,26.85,0.09c3.5,0.48,4.95,2.06,5.56,5.13
		C979.1,186.88,980.15,192.02,981.35,198.02z"/>
	<path class="st6" d="M1479.56,197.53c0,2.1,0,3.85,0,5.59c0,41.8-0.08,83.6,0.12,125.4c0.02,4.26-1.17,5.75-5.26,6.11
		c-9.79,0.86-19.53,0.97-29.33-0.15c-3.82-0.44-4.72-1.89-4.7-5.57c0.15-31.97,0.09-63.95,0.09-95.92
		c0-37.14,0.06-74.27-0.08-111.41c-0.01-3.94,0.99-5.32,5.12-5.8c9.17-1.07,18.23-1.04,27.37,0.09c3.15,0.39,5,1.63,6.63,4.33
		c25.62,42.39,51.34,84.72,77.05,127.05c1.16,1.91,2.43,3.75,3.86,5.96c1.16-2.24,0.67-4.07,0.67-5.8c0.04-41.8,0.1-83.6-0.08-125.4
		c-0.02-4.59,1.4-5.81,5.82-6.24c9.83-0.95,19.56-1.22,29.36,0.13c3.11,0.43,4.12,1.53,4.12,4.73c-0.09,69.78-0.09,139.55,0,209.33
		c0,2.99-0.93,3.88-3.82,4.32c-10.12,1.55-20.16,1.28-30.26-0.22c-3-0.44-3.58-2.72-4.72-4.57
		c-26.09-42.49-52.12-85.02-78.21-127.52C1482.42,200.53,1481.93,198.64,1479.56,197.53z"/>
	<path class="st6" d="M588.55,224.92c0-34.48,0.07-68.97-0.1-103.45c-0.02-4.14,1.32-5.25,5.27-5.63
		c11.15-1.09,22.23-1.04,33.4-0.08c4.94,0.43,5.9,2.19,5.87,6.7c-0.2,24.65,0.01,49.31-0.19,73.96c-0.04,4.32,0.96,5.64,5.48,5.58
		c20.83-0.26,41.66-0.23,62.49-0.01c4.05,0.04,4.89-1.19,4.87-5c-0.17-25.15,0.01-50.31-0.18-75.46c-0.03-4.08,1.21-5.26,5.22-5.67
		c11.49-1.17,22.91-1.2,34.39,0.05c3.43,0.37,4.91,1.19,4.9,5.02c-0.11,69.63-0.09,139.26-0.03,208.89c0,2.72-0.42,4.03-3.61,4.42
		c-12.12,1.49-24.16,1.35-36.3,0.16c-4.18-0.41-4.55-2.17-4.54-5.59c0.11-27.82-0.04-55.64,0.16-83.46
		c0.03-4.24-0.79-5.57-5.35-5.51c-20.83,0.29-41.66,0.23-62.49,0.04c-3.87-0.04-5.03,0.92-5.01,4.92
		c0.18,27.65-0.05,55.31,0.23,82.96c0.05,4.91-1.33,6.6-6.1,6.92c-11.47,0.78-22.88,1.02-34.34-0.35c-3.58-0.43-4.13-1.74-4.11-4.93
		c0.12-30.32,0.07-60.64,0.07-90.95C588.55,233.92,588.55,229.42,588.55,224.92z"/>
	<path class="st6" d="M1764.23,253.03c0,23.32-0.08,46.64,0.08,69.96c0.02,3.61-1.01,5.09-4.58,6.14
		c-27.73,8.23-55.84,10.39-84.39,5.69c-24.87-4.1-42.2-23.07-45.92-49.81c-1.45-10.42-1.81-20.86-1.77-31.36
		c0.07-23.65,0.15-47.31-0.09-70.96c-0.04-4.43,1.45-5.51,5.58-5.94c10.99-1.16,21.9-1.06,32.89,0.06c3.76,0.38,4.6,1.73,4.58,5.26
		c-0.14,25.82-0.09,51.64-0.06,77.46c0.01,6.5,0.5,12.96,1.81,19.35c3.06,14.98,11.6,22.25,27,22.96
		c5.84,0.27,11.63-0.27,17.44-0.91c3.79-0.42,4.75-2.01,4.74-5.73c-0.14-37.48-0.01-74.96-0.19-112.44
		c-0.02-4.32,1.18-5.55,5.44-5.99c10.99-1.14,21.9-1.09,32.88,0.07c3.68,0.39,4.67,1.65,4.65,5.23
		C1764.16,205.72,1764.23,229.38,1764.23,253.03z"/>
	<path class="st6" d="M914.31,252.75c0,23.48-0.01,46.96,0.01,70.43c0,2.32,0.37,4.53-2.77,5.46c-28.99,8.62-58.42,11.68-88.21,5.6
		c-24.79-5.06-40.09-22.78-43.85-48.77c-1.31-9.08-1.81-18.18-1.78-27.34c0.08-25.31,0.12-50.62-0.07-75.93
		c-0.03-3.96,1.28-4.99,5.02-5.4c11.15-1.23,22.22-1.15,33.37,0.02c3.68,0.39,4.68,1.56,4.66,5.17
		c-0.14,26.64-0.08,53.28-0.07,79.92c0,5.83,0.55,11.61,1.82,17.32c3.28,14.77,11.31,21.7,26.27,22.57
		c6.17,0.36,12.3-0.08,18.42-0.97c3.35-0.48,4.51-1.79,4.5-5.44c-0.17-37.46-0.03-74.93-0.21-112.39c-0.02-4.45,1.16-5.83,5.66-6.29
		c11-1.11,21.9-1.04,32.87,0.15c3.39,0.37,4.45,1.54,4.43,4.94C914.25,205.46,914.31,229.1,914.31,252.75z"/>
	<path class="st6" d="M1314.49,274.47c0,18.51-0.12,33.83,0.09,49.15c0.05,3.33-1.11,4.48-4.15,5.35
		c-24.57,6.99-49.5,10.06-74.96,6.92c-14.25-1.75-27.78-5.57-38.09-16.45c-23.64-24.96-13.76-66.37,18.9-79.49
		c14.35-5.76,29.37-6.76,44.6-6.28c1.49,0.05,2.99,0.19,4.48,0.22c7.77,0.2,8.25-0.39,6.91-8.24c-1.84-10.79-9.82-16.72-23.29-17.63
		c-13.94-0.94-27.57,0.41-40.8,4.97c-2.72,0.94-4.05,0.52-5.28-2.19c-3.67-8.09-6.69-16.28-6.51-25.34c0.03-1.67-0.08-3.04,2.2-3.73
		c26.03-7.93,52.37-11.84,78.95-3.52c22.01,6.89,33.4,22.98,35.97,45.58C1315.55,241.7,1313.93,259.7,1314.49,274.47z
		 M1272.49,281.93c0-5.65-0.04-11.31,0.02-16.96c0.02-1.83-0.14-3.08-2.45-3.41c-11.31-1.63-22.54-2.11-33.27,2.69
		c-8.75,3.91-12.05,10.55-11.28,21.7c0.51,7.41,5.6,13.49,13.78,15.85c10.3,2.97,20.67,2.42,31.08,0.24
		c2.19-0.46,2.11-1.62,2.11-3.13C1272.49,293.24,1272.49,287.59,1272.49,281.93z"/>
	<path class="st7" d="M188.27,204.8c0.01,31.11,0.01,62.22,0.02,93.32c-0.27,0.02-0.5-0.06-0.7-0.26c-1.92-1.47-4.17-0.9-6.28-0.91
		c-20.64-0.04-41.28-0.12-61.92,0.05c-4.24,0.04-5.85-1.05-5.82-5.58c0.18-26.96,0.19-53.92-0.01-80.87
		c-0.03-4.57,1.6-5.55,5.81-5.52c20.81,0.18,41.61,0.09,62.42,0.07C183.95,205.11,186.11,204.91,188.27,204.8z"/>
	<path class="st6" d="M1375.87,232.17c10.99,0,21.99,0.15,32.98-0.08c3.83-0.08,5.51,0.73,5.96,4.99
		c1.01,9.66,1.08,19.23-0.21,28.85c-0.34,2.53-1.25,3.39-3.74,3.39c-23.65-0.06-47.3-0.07-70.95,0.01
		c-2.59,0.01-3.31-0.99-3.67-3.42c-1.46-9.95-1.36-19.85-0.1-29.82c0.42-3.32,1.75-4.01,4.76-3.97
		C1352.56,232.25,1364.22,232.17,1375.87,232.17z"/>
	<path class="st2" d="M1409.82,417.43c7.01-9.4,20.63-12.44,28.8,0.13c4.48-6.12,10.14-9.42,17.97-7.94
		c6.64,1.25,10.27,4.51,11.96,11.01c1.16,4.43,0.89,8.92,0.91,13.41c0.03,6.83-0.08,13.66,0.04,20.49c0.07,3.52,0.31,6.44-4.82,6.42
		c-4.97-0.02-4.54-2.91-4.58-6.2c-0.11-8.98,0.53-17.98-0.43-26.95c-0.74-6.91-3.08-9.73-8.22-9.9c-5.73-0.19-10.01,3.23-10.98,9.38
		c-1.52,9.59-0.52,19.28-0.58,28.93c-0.02,3.54-1.28,4.64-4.6,4.67c-3.44,0.03-5.04-0.85-4.92-4.8c0.28-9.49,0.3-19-0.09-28.48
		c-0.17-4.22-0.87-8.92-6.55-9.8c-5.06-0.78-9.1,1.66-11.44,6.85c-1.32,2.93-1.86,6-1.83,9.21c0.06,7.5-0.21,15,0.11,22.48
		c0.16,3.8-1.62,4.53-4.69,4.51c-3.06-0.02-5.35-0.23-5.27-4.51c0.25-13.65,0.11-27.32,0.08-40.98c-0.01-2.72-0.4-5.36,3.74-5.49
		c4.08-0.13,5.36,1.79,5.14,5.44C1409.53,415.79,1409.68,416.28,1409.82,417.43z"/>
	<path class="st2" d="M1926.07,417.67c4.12-5.9,9.45-9.29,16.93-8.19c8.49,1.24,13.01,5.45,13.4,13.99
		c0.51,11.29,0.19,22.62,0.39,33.93c0.07,3.74-2.5,3.39-4.73,3.37c-2.19-0.02-4.77,0.4-4.69-3.39c0.18-8.15,0.09-16.31,0.03-24.46
		c-0.02-2.32-0.07-4.67-0.47-6.95c-0.73-4.18-2.43-7.68-7.39-8.07c-5.07-0.4-8.71,1.77-10.81,6.35c-1.05,2.28-1.35,4.76-1.33,7.3
		c0.06,7.99-0.16,15.98,0.1,23.96c0.12,3.74-0.8,5.36-4.84,5.42c-4.41,0.06-4.6-2.27-4.63-5.65c-0.07-9.47,0.61-18.97-0.41-28.42
		c-0.44-4.08-1.26-8.06-6.23-9.03c-4.93-0.96-9.27,1.5-11.61,6.57c-1.56,3.38-2.01,7.02-2.03,10.7c-0.04,6.66-0.18,13.32,0.05,19.97
		c0.13,3.7-0.37,5.91-4.92,5.89c-4.34-0.02-4.66-2.17-4.62-5.62c0.14-13.31,0.03-26.62,0.08-39.94c0.01-2.28-1.05-5.21,3.06-5.46
		c3.38-0.21,5.48,0.65,5.51,4.43c0.01,0.76,0.41,1.52,0.66,2.4C1906.17,406.86,1918.85,406.07,1926.07,417.67z"/>
	<path class="st2" d="M1029.18,425.21c0-10.32,0.1-20.65-0.06-30.97c-0.05-3.22,1.01-4.28,4.24-4.48c6.32-0.39,12.57-0.91,18.9,0.07
		c8.99,1.39,16.28,7,18.1,14.32c2.4,9.62-0.76,18.43-9.38,23.69c-4.15,2.54-4.42,4.25-1.51,8.03c5.26,6.85,9.87,14.19,14.86,21.26
		c1.67,2.37,1.57,3.31-1.64,3.57c-4.73,0.38-8.04-0.83-10.73-5.21c-4.7-7.64-10.11-14.84-15.23-22.23
		c-3.62-5.22-3.62-5.22,2.16-7.53c7.96-3.18,11.86-8.43,11.6-15.58c-0.33-9.2-11.91-16.19-20.3-12.3c-2.15,1-1.31,2.87-1.32,4.36
		c-0.07,17.65-0.04,35.3-0.05,52.94c0,4.96-3.56,7.24-8.09,5.31c-2.14-0.91-1.52-2.75-1.53-4.29
		C1029.16,445.85,1029.18,435.53,1029.18,425.21z"/>
	<path class="st2" d="M985.6,441.5c0,4.16-0.25,8.34,0.08,12.47c0.28,3.5-0.95,5.17-4.34,5.83c-8.05,1.58-16.14,2.51-24.23,0.77
		c-14.19-3.04-22.28-12.96-24.32-29.69c-0.96-7.9,0.09-15.62,3.22-22.95c5.5-12.89,18.1-20.07,32.7-18.75
		c2.81,0.26,5.62,0.66,8.37,1.23c2.64,0.55,5.71,0.62,4.52,5.1c-1.03,3.87-2.81,4.19-6.33,3.33c-12.27-3.03-22.16-0.28-27.15,8.08
		c-6.78,11.37-6.99,23.5-1.21,35.26c4.37,8.9,18.42,13.33,27.44,9.75c2.3-0.91,1.79-2.53,1.81-4.04c0.07-6.82,0.22-13.65-0.03-20.46
		c-0.15-4,2.3-3.62,4.82-3.64c2.6-0.03,4.98-0.2,4.73,3.74C985.37,432.16,985.6,436.84,985.6,441.5z"/>
	<path class="st8" d="M1151.28,424.02c0,10.32-0.13,20.64,0.08,30.96c0.06,3.18-1.07,4.41-4.06,4.95
		c-7.9,1.43-15.77,2.39-23.71,0.42c-12.53-3.11-17.64-13.63-16.56-26.06c1.58-18.16,12.3-26.56,30.47-24.33
		c3.71,0.46,4.52-0.35,4.3-3.84c-0.28-4.48,0.21-9.01-0.14-13.47c-0.34-4.36,2.36-3.83,5.06-3.87c2.67-0.04,4.76-0.14,4.66,3.78
		C1151.1,403.04,1151.28,413.54,1151.28,424.02z M1141.72,435.94c0-4.66,0.01-9.33,0-13.99c0-1.49,0.11-2.92-1.66-3.78
		c-4.7-2.29-13.95-0.84-17.92,2.95c-5.4,5.16-6.94,18.08-3.02,25.32c3.15,5.82,11.02,8.5,19.37,6.86c2.38-0.47,3.39-1.33,3.28-3.87
		C1141.59,444.94,1141.72,440.44,1141.72,435.94z"/>
	<path class="st2" d="M1297.57,417.8c5.37-6.44,11.08-9.46,18.52-8.29c8.05,1.27,12.89,5.6,13.3,13.7
		c0.58,11.46,0.29,22.97,0.41,34.46c0.04,3.8-2.84,3-4.97,3.09c-2.43,0.11-4.5-0.13-4.42-3.68c0.22-8.82,0.11-17.65,0.06-26.48
		c-0.04-8.14-2.75-12.25-8.25-12.71c-7.02-0.59-12.26,3.45-13.78,10.91c-1.81,8.9-0.69,17.93-0.78,26.9
		c-0.03,3.47-0.66,5.25-4.56,5.18c-3.55-0.06-4.83-1.13-4.8-4.94c0.2-20.98,0.19-41.97,0.01-62.95c-0.03-3.75,1.4-4.32,4.64-4.29
		c3.15,0.03,4.85,0.37,4.71,4.23C1297.37,400.84,1297.57,408.76,1297.57,417.8z"/>
	<path class="st2" d="M1677.9,437.87c-4.49,0-9,0.18-13.48-0.06c-2.98-0.16-3.22,1.21-2.95,3.58c0.83,7.49,6.59,12.19,15.55,12.36
		c3.5,0.07,6.96-0.52,10.31-1.55c2.2-0.67,3.86-0.84,4.32,2.14c0.34,2.24,1.73,4.54-1.9,5.43c-7.52,1.84-15.05,2.55-22.62,0.37
		c-7.84-2.26-12.83-7.33-14.87-15.26c-1.78-6.94-1.65-13.89,0.57-20.65c3.48-10.58,13.53-16.4,24.72-14.7
		c10.96,1.67,17.49,9.35,17.9,21.06c0.26,7.27,0.26,7.27-7.07,7.27C1684.89,437.87,1681.39,437.87,1677.9,437.87z M1673.73,430.79
		c2.98,0,5.98-0.13,8.95,0.04c3.11,0.17,3.58-1.09,2.99-3.9c-1.22-5.8-4.83-9.57-10.1-10.03c-6.63-0.58-10.98,2.39-13.3,8.73
		c-1.31,3.58-1.26,5.73,3.5,5.22C1668.4,430.56,1671.07,430.79,1673.73,430.79z"/>
	<path class="st2" d="M1190.76,437.88c-4.82,0-9.65,0.08-14.47-0.03c-2.29-0.05-2.75,0.77-2.45,2.96c1.12,8.2,6.4,12.73,15.59,12.94
		c3.67,0.08,7.3-0.5,10.78-1.66c2.21-0.74,3.59-0.19,3.98,2.12c0.34,2.01,1.38,4.15-1.54,5.47c-10.01,4.54-27.85,1.22-33.81-6.43
		c-7.38-9.47-7.09-26.95,0.6-36.41c5.3-6.52,15.81-9.36,24.59-6.64c7.59,2.35,12.74,9.17,13.58,17.95c0.06,0.66,0.14,1.32,0.17,1.99
		c0.36,7.74,0.35,7.74-7.56,7.74C1197.08,437.87,1193.92,437.87,1190.76,437.88z M1186.09,430.79c2.99,0,5.99-0.19,8.96,0.05
		c3.56,0.29,3.78-1.52,3.2-4.24c-1.17-5.48-4.95-9.2-9.94-9.69c-6.36-0.63-10.62,1.86-13.03,7.61c-2.35,5.62-1.96,6.25,3.84,6.27
		C1181.44,430.8,1183.76,430.79,1186.09,430.79z"/>
	<path class="st2" d="M1994.93,437.87c-4.49,0-8.98,0.11-13.47-0.04c-2.55-0.08-3.03,0.83-2.64,3.23c1.33,8.22,6.58,12.6,15.8,12.68
		c3.67,0.03,7.29-0.56,10.78-1.73c2.01-0.67,3.3-0.08,3.65,1.96c0.34,1.97,1.61,4.14-1.25,5.59c-18.14,9.24-39.13-3.18-39.36-23.37
		c-0.05-4.86,0.73-9.6,2.74-14.06c4.41-9.8,13.96-14.39,25.61-12.36c9.14,1.59,15.23,9.11,15.91,19.63
		c0.55,8.47,0.55,8.47-7.79,8.47C2001.58,437.87,1998.26,437.87,1994.93,437.87z M1991.07,430.79c2.82,0,5.67-0.22,8.46,0.05
		c4.13,0.41,4.32-1.68,3.51-4.77c-1.45-5.56-5.14-8.87-10.34-9.19c-6.28-0.38-10.15,2-12.51,7.68c-2.33,5.6-1.94,6.21,3.91,6.22
		C1986.42,430.8,1988.74,430.79,1991.07,430.79z"/>
	<path class="st2" d="M2227.58,437.87c-4.66,0-9.32,0.15-13.97-0.05c-2.96-0.13-3.2,1.08-2.73,3.56c1.33,7.03,4.51,10.34,11.6,11.89
		c4.88,1.07,9.61,0.22,14.26-1.08c2.34-0.66,3.91-0.59,4.41,2.09c0.42,2.26,1.27,4.67-2.16,5.53c-8.03,2-16.09,2.64-24.03-0.15
		c-6.51-2.29-10.81-6.84-12.9-13.51c-2.15-6.88-2.16-13.74-0.17-20.6c3.54-12.24,14.58-18.44,27.71-15.68
		c10.17,2.14,16.72,13.22,15.18,25.35c-0.29,2.24-1.28,2.7-3.22,2.67C2236.89,437.82,2232.24,437.87,2227.58,437.87z
		 M2222.99,430.79c2.99,0,5.99-0.19,8.96,0.05c3.56,0.29,3.79-1.51,3.21-4.23c-1.17-5.47-4.95-9.2-9.94-9.7
		c-6.37-0.63-10.62,1.86-13.04,7.61c-2.35,5.62-1.96,6.26,3.83,6.27C2218.34,430.8,2220.67,430.79,2222.99,430.79z"/>
	<path class="st9" d="M849.3,440.86c0,5.66-0.11,10.32,0.04,14.97c0.08,2.53-1.03,3.59-3.36,3.97c-7.22,1.15-14.39,2.32-21.77,1.14
		c-7.38-1.18-12.68-5.58-13.66-11.85c-1.28-8.16,2.1-14.71,9.31-18c5.32-2.43,10.99-2.53,16.64-2.12c2.85,0.2,3.42-0.86,3.18-3.39
		c-0.38-4.13-2.36-6.65-6.4-7.87c-4.88-1.47-9.67-0.65-14.26,0.63c-3.38,0.94-3.71-0.99-4.26-3.06c-0.61-2.29-0.52-4.03,2.64-4.63
		c6.25-1.19,12.45-1.98,18.77-0.73c7.05,1.39,11.35,5.98,12.53,13.04C849.74,429.25,849.06,435.57,849.3,440.86z M839.75,445.02
		c0-8.86,0-8.86-7.39-8.82c-8.18,0.04-12.86,3.53-12.71,9.46c0.14,5.41,3.97,8.12,11.46,8.13
		C839.75,453.79,839.75,453.79,839.75,445.02z"/>
	<path class="st9" d="M1543.77,417.83c5.39-6.7,11.73-9.69,19.94-8.18c6.31,1.16,10.36,4.79,11.54,10.86
		c2.44,12.5,0.97,25.2,1.08,37.81c0.03,3.57-3.47,2.2-5.49,2.4c-2.22,0.21-4.26-0.17-4.2-3.41c0.15-7.81,0.05-15.63,0.03-23.45
		c-0.01-1.99-0.06-3.99-0.18-5.98c-0.25-4.18-1.32-7.99-5.7-9.65c-4.16-1.58-10.04,0.37-13.03,4.14c-2.7,3.42-3.55,7.42-3.54,11.68
		c0.02,7.48-0.2,14.98,0.08,22.45c0.15,3.96-2.03,4.25-4.94,4.32c-3.26,0.08-5.11-0.56-5.03-4.67c0.28-13.8,0.15-27.61,0.07-41.41
		c-0.02-2.78,0.14-4.85,3.76-4.91c3.3-0.06,5.01,1.16,5.14,4.5C1543.36,415.29,1543.56,416.23,1543.77,417.83z"/>
	<path class="st9" d="M1784.7,418.14c3.44-3.88,6.39-6.79,10.45-8.06c11.86-3.71,21.66,2.88,22.19,15.42
		c0.44,10.47,0.01,20.97,0.26,31.44c0.09,3.91-2.29,3.8-4.82,3.86c-2.66,0.06-4.85-0.16-4.74-3.94c0.23-7.81,0.1-15.64,0.04-23.46
		c-0.02-2.15-0.27-4.3-0.48-6.45c-0.37-3.82-1.46-7.49-5.54-8.66c-4.39-1.26-8.59-0.35-11.99,3c-3.27,3.23-4.59,7.26-4.62,11.73
		c-0.06,7.65-0.26,15.32,0.08,22.96c0.17,3.91-1.4,4.91-4.85,4.87c-3.24-0.04-5.19-0.57-5.12-4.68c0.25-13.81,0.14-27.62,0.05-41.43
		c-0.02-2.85,0.28-4.87,3.86-4.88c3.2,0,5.18,0.93,5,4.51C1784.44,415.21,1784.57,416.04,1784.7,418.14z"/>
	<path class="st2" d="M1519.79,440.43c0,4.99-0.09,9.98,0.04,14.96c0.07,2.54-0.59,4.03-3.37,4.46c-7.22,1.12-14.4,2.27-21.76,1.07
		c-7.24-1.17-12.3-5.41-13.32-11.54c-1.39-8.36,1.72-14.76,8.88-18.16c5.28-2.51,10.95-2.77,16.59-2.24
		c3.53,0.33,3.97-1.19,3.55-3.95c-0.55-3.59-2.35-6.03-5.95-7.2c-5.01-1.63-9.96-0.78-14.74,0.49c-2.86,0.75-3.76-0.35-4.09-2.54
		c-0.29-1.93-1.42-4.29,2.07-5.03c6.73-1.42,13.45-2.28,20.2-0.57c7.06,1.78,10.94,6.53,11.64,13.8c0.1,0.99,0.23,1.99,0.23,2.98
		c0.03,4.49,0.01,8.98,0.01,13.46C1519.78,440.43,1519.79,440.43,1519.79,440.43z M1510.47,444.84c0-8.81-0.61-9.36-9.43-8.62
		c-0.33,0.03-0.66,0.06-0.99,0.1c-6.72,0.93-9.9,4.18-9.56,9.76c0.31,5.19,3.73,7.65,10.68,7.7
		C1510.47,453.84,1510.47,453.84,1510.47,444.84z"/>
	<path class="st8" d="M2188.19,434.76c0,6.83-0.13,13.66,0.06,20.48c0.08,2.7-0.92,3.88-3.43,4.43c-7.53,1.66-15.1,2.37-22.77,1.15
		c-8.02-1.28-14.04-7.37-14.54-16.08c-0.6-10.46-0.26-20.97-0.44-31.46c-0.07-3.73,2.57-3.33,4.79-3.33c2.22,0,4.71-0.33,4.62,3.44
		c-0.2,8.32-0.15,16.65-0.01,24.98c0.2,12.43,5.97,16.9,18.42,14.85c2.93-0.48,3.85-1.53,3.81-4.44
		c-0.14-11.16,0.07-22.32-0.13-33.47c-0.06-3.66,0.69-5.51,4.84-5.51c4.12,0,5,1.77,4.85,5.47
		C2188.01,421.76,2188.19,428.26,2188.19,434.76z"/>
	<path class="st9" d="M1872.77,434.6c0,6.83-0.13,13.66,0.06,20.48c0.08,2.89-0.95,4.21-3.74,4.72c-6.89,1.26-13.73,2.17-20.78,1.2
		c-8.47-1.17-14.29-5.91-15.73-14.29c-1.93-11.22-0.65-22.59-0.84-33.89c-0.06-3.73,3.13-2.69,5.21-2.85
		c2.55-0.19,4.39,0.42,4.34,3.82c-0.13,8.98-0.09,17.98,0.2,26.96c0.34,10.61,10.72,16.57,20.5,12.06c2.19-1.01,1.4-2.8,1.41-4.28
		c0.07-11.32,0.23-22.65-0.06-33.96c-0.11-4.1,1.79-4.65,5.05-4.69c3.43-0.05,4.57,1.34,4.45,4.76
		C1872.6,421.28,1872.77,427.94,1872.77,434.6z"/>
	<path class="st2" d="M1385.48,434.87c0,6.83-0.14,13.66,0.07,20.48c0.08,2.72-0.94,3.8-3.44,4.34c-7.37,1.58-14.75,2.31-22.27,1.2
		c-8.73-1.29-14.86-7.88-15.27-17.66c-0.42-9.97-0.06-19.98-0.21-29.97c-0.06-3.79,2.59-3.24,4.77-3.3c2.36-0.07,4.62-0.08,4.5,3.56
		c-0.23,6.82-0.09,13.65-0.05,20.48c0.01,2.33,0.04,4.67,0.29,6.98c1.19,10.68,10.28,15.89,20.4,11.87
		c2.48-0.99,1.83-2.91,1.84-4.58c0.06-11.16,0.19-22.32-0.05-33.47c-0.08-3.79,1.27-4.94,4.84-4.96c3.71-0.03,4.83,1.37,4.66,5.05
		C1385.26,421.53,1385.48,428.21,1385.48,434.87z"/>
	<path class="st8" d="M899.75,429.64c0-8.66-0.23-17.33,0.1-25.97c0.16-4.11-1.28-5.17-5.08-4.84c-3.47,0.3-7-0.1-10.49,0.11
		c-3.14,0.18-3.07-1.89-3.03-3.88c0.04-2.03-0.59-4.52,2.95-4.5c13.66,0.07,27.32,0.05,40.97,0.01c2.92-0.01,3.18,1.86,3.09,4
		c-0.09,2.11,0.21,4.49-3.2,4.36c-3.83-0.14-7.68,0.19-11.49-0.09c-3.35-0.25-4.16,0.98-4.13,4.19c0.14,17.48-0.02,34.97,0.14,52.45
		c0.03,3.66-0.58,5.42-4.84,5.31c-3.9-0.1-5.23-1.17-5.09-5.17C899.94,446.96,899.75,438.3,899.75,429.64z"/>
	<path class="st9" d="M1724.89,408.93c3.27,0.54,6.53,1.14,9.81,1.59c3.02,0.42,4.31,1.54,3.48,4.97c-0.89,3.69-2.83,3.25-5.45,2.39
		c-3.87-1.27-7.84-1.47-11.79-0.47c-2.33,0.59-4.38,1.63-4.66,4.48c-0.28,2.82,0.78,5.01,3.3,6.13c3.32,1.47,6.81,2.59,10.21,3.88
		c7.17,2.71,10.6,7.08,10.6,13.47c-0.01,6.59-4.08,12.07-10.98,14.5c-7.16,2.51-14.35,1.79-21.58,0.1
		c-3.06-0.71-2.54-2.48-1.85-4.49c0.68-1.96,0.74-4.28,4.2-3.2c4.42,1.38,9.02,2.33,13.71,0.88c3.56-1.1,6.5-2.79,6.72-6.97
		c0.22-4.06-2.58-5.84-5.83-7.14c-3.54-1.42-7.21-2.54-10.62-4.2c-5.97-2.91-8.32-6.92-7.66-12.67c0.71-6.07,4.14-10.04,10.02-11.68
		C1719.22,409.72,1722.05,409.44,1724.89,408.93z"/>
	<path class="st2" d="M1237.75,408.98c2.88,0.48,6.14,1.09,9.43,1.55c2.92,0.41,4.42,1.23,3.54,4.84c-0.88,3.63-2.53,3.57-5.29,2.54
		c-3.18-1.18-6.55-1.31-9.86-0.92c-3.03,0.36-6.22,1.09-6.84,4.71c-0.65,3.76,1.83,5.85,4.98,7.12c2.77,1.12,5.64,1.98,8.44,3.03
		c7.76,2.91,10.67,6.75,10.56,13.84c-0.11,6.87-3.91,11.82-11.12,14.28c-7.03,2.39-14.05,1.57-21.14,0.04
		c-3.2-0.69-2.48-2.58-1.91-4.43c0.57-1.89,0.56-4.45,4.06-3.35c4.61,1.45,9.35,2.35,14.22,0.82c3.45-1.08,6.19-2.95,6.47-6.71
		c0.29-3.9-2.45-5.93-5.75-7.25c-3.85-1.54-7.79-2.88-11.55-4.62c-5.11-2.36-7.23-6.54-6.81-12.16c0.42-5.6,3.38-9.21,8.38-11.37
		C1230.67,409.59,1234.05,409.62,1237.75,408.98z"/>
	<path class="st2" d="M1630.19,397.53c0.17,1.79,0.25,2.28,0.26,2.78c0.18,9.58,0.17,9.71,9.53,10.18c3.01,0.15,3.54,1.46,3.53,4.04
		c-0.01,2.58-0.95,3.38-3.52,3.5c-9.53,0.44-9.53,0.54-9.53,10.13c0,5.66-0.1,11.32,0.04,16.98c0.17,6.84,2.66,9.09,9.4,8
		c3.24-0.52,4.03,0.64,4.46,3.43c0.44,2.84-0.62,4.12-3.32,4.2c-2.99,0.09-6.02,0.34-8.97,0c-6.97-0.81-10.74-5.13-10.89-12.57
		c-0.17-8.49-0.2-16.98,0.02-25.46c0.09-3.57-0.76-5.4-4.67-4.81c-0.9,0.14-2.31,0.04-2.74-0.53c-0.93-1.22,0.48-2.1,1.18-2.89
		C1619.78,409.07,1624.65,403.69,1630.19,397.53z"/>
	<path class="st2" d="M784.21,420.37c0-9.15,0.18-18.3-0.09-27.44c-0.11-3.87,1.64-4.25,4.77-4.2c2.96,0.05,4.88,0.04,4.83,4.09
		c-0.23,17.29-0.11,34.59-0.09,51.89c0.01,6.95,0.83,7.95,7.84,8.34c3.19,0.18,2.63,2.41,2.98,4.18c0.43,2.16-0.38,3.3-2.78,3.67
		c-11.15,1.7-17.24-3.24-17.43-14.58C784.1,437.67,784.21,429.02,784.21,420.37z"/>
	<path class="st10" d="M1001.73,425.38c0-10.32,0.17-20.64-0.09-30.95c-0.1-4.1,1.85-4.55,5.14-4.62c3.5-0.07,4.94,0.83,4.91,4.74
		c-0.19,20.46-0.2,40.93,0,61.4c0.04,3.81-1.24,4.97-4.79,4.93c-3.52-0.05-5.42-0.77-5.28-5.05
		C1001.96,445.69,1001.73,435.53,1001.73,425.38z"/>
	<path class="st9" d="M2035.03,417.52c3.9-3.72,7.31-7.19,12.51-7.38c2.59-0.09,5.11-0.4,4.95,3.57c-0.12,3,0.14,5.31-4.28,5.31
		c-8.07-0.01-12.42,5.29-12.65,14.72c-0.18,7.48-0.22,14.98,0.04,22.46c0.13,3.56-1.21,4.67-4.52,4.66c-3.34,0-5.13-0.72-5.06-4.74
		c0.23-13.81,0.1-27.62,0.07-41.43c0-2.43-0.18-4.77,3.35-4.77c2.92,0,5.43,0.2,5.15,4.13
		C2034.52,414.97,2034.81,415.91,2035.03,417.52z"/>
	<path class="st2" d="M2074.51,435.94c0,6.98-0.21,13.97,0.08,20.93c0.17,3.87-2.12,3.89-4.69,3.94c-2.69,0.05-4.72-0.23-4.64-3.99
		c0.23-11.63,0.02-23.26,0.13-34.9c0.03-2.76-0.31-4.6-3.7-4.07c-2.82,0.44-3.27-1.27-3.29-3.6c-0.03-2.39,0.57-3.92,3.31-3.7
		c0.33,0.03,0.66,0,1-0.01c11.82-0.38,11.82-0.38,11.82,11.42C2074.51,426.63,2074.51,431.28,2074.51,435.94z"/>
	<path class="st2" d="M1603.46,435.94c0,6.99-0.21,13.99,0.08,20.98c0.16,3.92-2.24,3.82-4.76,3.89c-2.69,0.08-4.78-0.21-4.72-3.96
		c0.2-11.48,0.03-22.98,0.09-34.46c0.01-2.72,0.07-5.14-3.8-4.51c-3.1,0.51-2.92-1.63-3.01-3.72c-0.1-2.39,0.48-3.5,3.25-3.66
		c12.87-0.75,12.86-0.85,12.86,11.96C1603.46,426.95,1603.46,431.44,1603.46,435.94z"/>
	<path class="st11" d="M2006.04,390.44c-14.58,13.2-11.93,13.07-21.26,12.06C1988.47,392.89,1995.61,388.71,2006.04,390.44z"/>
	<path class="st12" d="M1688.92,390.58c-7.33,4.78-10.94,14.36-21.63,12C1670.65,393.28,1678.41,388.72,1688.92,390.58z"/>
	<path class="st13" d="M1602.37,394.46c1.03,4.53-1.36,5.23-5.23,5.33c-4.28,0.11-5.79-1.17-5.84-5.64
		c-0.05-4.73,2.41-5.02,5.92-5.09C1601.08,388.98,1603.44,390.02,1602.37,394.46z"/>
	<path class="st14" d="M2073.42,394.69c1.08,4.68-1.64,5-5.31,5.1c-4.02,0.1-5.52-1.19-5.61-5.35c-0.11-4.74,2.26-5.35,6.11-5.42
		C2072.87,388.93,2074.3,390.71,2073.42,394.69z"/>
</g>
</svg>
