<?xml version="1.0" encoding="utf-8"?>
<!-- Generator: Adobe Illustrator 25.2.1, SVG Export Plug-In . SVG Version: 6.00 Build 0)  -->
<svg version="1.1" id="Capa_1" xmlns="http://www.w3.org/2000/svg" xmlns:xlink="http://www.w3.org/1999/xlink" x="0px" y="0px"
	 viewBox="0 0 308.98 119.06" style="enable-background:new 0 0 308.98 119.06;" xml:space="preserve">
<style type="text/css">
	.st0{fill:#E61780;}
	.st1{fill:#4B484E;}
	.st2{fill:#E52787;}
	.st3{fill:#FFFFFF;}
	.st4{fill:#060709;}
</style>
<g>
	<path class="st0" d="M197.86,84.25c2.3-2.7,4.61-5.4,6.91-8.1c1.75-2.05,3.49-4.1,5.23-6.16c0.31-0.37,0.62-0.62,1.17-0.61
		c2.87,0.03,5.75,0.01,8.62,0.02c0.13,0,0.26,0.03,0.56,0.06c-1.65,1.94-3.2,3.76-4.76,5.58c-3.99,4.67-7.98,9.34-12,13.98
		c-0.54,0.62-0.56,0.95,0.04,1.55c5.28,5.24,10.52,10.52,15.78,15.77c0.27,0.27,0.63,0.47,0.94,0.7c-0.38,0.45-0.69,0.32-0.95,0.32
		c-2.91,0.01-5.82-0.01-8.73,0.02c-0.63,0.01-1.07-0.19-1.5-0.64c-3.43-3.53-6.88-7.04-10.34-10.54c-0.25-0.25-0.43-0.79-0.91-0.55
		c-0.41,0.21-0.28,0.7-0.28,1.08c-0.01,3.23-0.03,6.47,0.01,9.7c0.01,0.77-0.23,0.97-0.97,0.95c-1.94-0.05-3.88-0.05-5.82,0
		c-0.75,0.02-0.96-0.26-0.88-0.93c0.02-0.18,0-0.36,0-0.54c0-31.96,0-63.93,0-95.89c0-1.6-0.16-1.38,1.36-1.39
		c1.83-0.01,3.67,0.02,5.5-0.01c0.61-0.01,0.87,0.17,0.79,0.79c-0.03,0.25,0,0.5,0,0.75c0,24.24,0,48.49,0,72.73
		c0,0.42,0,0.85,0,1.27C197.71,84.19,197.78,84.22,197.86,84.25z"/>
	<path class="st1" d="M173.21,106.95c-2.8,0-5.61,0.03-8.41,0c-11.58-0.13-20.11-9.88-18.71-21.37c1.17-9.64,9.36-16.76,19.1-16.61
		c9.35,0.14,17.08,6.78,18.59,16c0.17,1.06,0.22,2.15,0.23,3.22c0.02,5.93-0.01,11.85,0.03,17.78c0.01,0.82-0.22,1.02-1.02,1
		C179.76,106.93,176.48,106.96,173.21,106.95C173.21,106.96,173.21,106.96,173.21,106.95z M176.32,92.91c0-1.54,0-3.09,0-4.63
		c-0.01-7.27-5.63-12.31-12.85-11.55c-5.47,0.58-9.82,5.46-9.89,11.09c-0.06,5.65,4.26,10.8,9.69,11.38
		c4.15,0.45,8.32,0.08,12.48,0.19c0.64,0.02,0.56-0.38,0.56-0.77C176.32,96.72,176.32,94.82,176.32,92.91z"/>
	<path class="st1" d="M296.94,106.95c-2.87,0-5.75,0.03-8.62,0c-10.73-0.12-19.05-8.87-18.67-19.6c0.33-9.44,7.25-17.06,16.59-18.28
		c11.27-1.47,21.41,7.39,21.42,18.74c0.01,6.03-0.01,12.07,0.02,18.1c0,0.81-0.15,1.09-1.03,1.07
		C303.4,106.92,300.17,106.96,296.94,106.95C296.94,106.95,296.94,106.95,296.94,106.95z M299.98,92.21
		c-0.07-1.88,0.24-4.17-0.19-6.39c-1.15-5.97-6.45-9.77-12.54-9.1c-5.58,0.62-9.96,5.42-10.01,10.98
		c-0.06,5.88,4.16,10.89,9.9,11.52c4.07,0.44,8.18,0.08,12.27,0.17c0.63,0.01,0.58-0.37,0.57-0.78
		C299.98,96.6,299.98,94.59,299.98,92.21z"/>
	<path class="st1" d="M253.53,96.28c0,3.27-0.02,6.54,0.02,9.8c0.01,0.69-0.17,0.9-0.88,0.89c-6.14-0.03-12.29,0.02-18.43-0.04
		c-10.72-0.1-18.99-8.73-18.72-19.45c0.24-9.47,7.13-17.14,16.55-18.42c11.14-1.52,21.32,7.24,21.46,18.48
		C253.56,90.46,253.53,93.37,253.53,96.28C253.53,96.28,253.53,96.28,253.53,96.28z M245.85,92.31c-0.07-1.91,0.25-4.23-0.18-6.49
		c-1.12-5.97-6.45-9.75-12.65-9.08c-5.49,0.59-9.87,5.5-9.91,11.08c-0.04,5.71,4.27,10.8,9.8,11.4c4.11,0.44,8.25,0.08,12.37,0.18
		c0.64,0.02,0.57-0.39,0.57-0.78C245.85,96.64,245.85,94.66,245.85,92.31z"/>
	<path class="st1" d="M103.6,95.84c0-3.09-0.16-6.18,0.03-9.26c0.55-8.88,7.11-15.99,15.89-17.4c9.4-1.51,18.54,4.16,21.28,13.21
		c0.47,1.55,0.77,3.14,0.77,4.76c0.02,6.32,0,12.64,0.04,18.96c0,0.77-0.28,0.86-0.93,0.85c-1.94-0.03-3.88-0.06-5.82,0.01
		c-0.84,0.03-1-0.25-0.99-1.03c0.03-6.03,0.05-12.07,0.01-18.1c-0.04-5.4-3.63-9.8-8.86-10.98c-7.01-1.58-13.82,3.8-13.84,10.97
		c-0.02,6.03-0.02,12.07,0.02,18.1c0.01,0.88-0.26,1.06-1.08,1.04c-1.9-0.06-3.81-0.05-5.71,0c-0.71,0.02-0.91-0.18-0.91-0.89
		c0.03-3.41,0.02-6.82,0.02-10.23C103.54,95.84,103.57,95.84,103.6,95.84z"/>
	<path class="st1" d="M257.87,66.41c0-13.11,0.01-26.22-0.02-39.33c0-0.9,0.13-1.26,1.15-1.21c1.86,0.1,3.74,0.06,5.6,0.01
		c0.76-0.02,0.96,0.21,0.96,0.96c-0.03,5.78-0.02,11.57-0.02,17.35c0,20.51-0.01,41.02,0.02,61.53c0,0.95-0.18,1.3-1.21,1.25
		c-1.79-0.09-3.59-0.08-5.39,0c-0.9,0.04-1.12-0.22-1.12-1.12C257.88,92.71,257.87,79.56,257.87,66.41z"/>
	<g>
		<path class="st0" d="M1.42,56.14c1.35-2.38,3.3-4.24,5.29-6.05c2.89-2.61,5.98-4.94,9.62-6.44c0.25-0.1,0.67-0.16,0.63-0.49
			c-0.05-0.43-0.5-0.31-0.79-0.32c-3.67-0.16-7.32,0.27-11.04,0.54c0.1-0.11,0.16-0.23,0.26-0.27c9.04-4.31,17.88-3.61,25.39,3.7
			c2.31,2.25,4.23,4.79,5.73,7.64c0.37,0.7,0.63,0.81,1.35,0.39c8.86-5.15,17.93-5.5,27.15-1.02c0.74,0.36,1.01,0.2,1.39-0.46
			c1.98-3.42,4.45-6.44,7.61-8.85c6.82-5.19,14.16-5.49,21.85-2.23c0.36,0.15,0.72,0.33,1.07,0.5c0.06,0.03,0.1,0.09,0.33,0.29
			c-4.05-0.21-7.92-0.79-11.86-0.26c6.37,3.05,11.61,7.36,15.67,13.11c-3.02-1.55-5.82-3.45-8.99-4.99c-0.01,0.55,0.3,0.76,0.5,1.02
			c1.3,1.63,2.57,3.28,3.51,5.15c2.87,5.76-0.17,13.05-6.3,14.95c-3.33,1.03-6.71,1.67-10.23,0.03c2.03,10.86-0.68,20.12-8.88,27.46
			c-5.66,5.07-12.46,7.35-20.05,6.84c-8.79-0.59-15.87-4.54-20.99-11.71c-5.1-7.14-6.24-15.09-4.18-23.6
			c-0.22,0.06-0.34,0.06-0.42,0.12c-3.4,2.43-7.09,2.57-11,1.56c-5.38-1.39-7.42-3.76-8.47-9.52c-0.58-3.16,0.55-5.7,2.21-8.15
			c0.82-1.21,1.73-2.37,2.6-3.55c0.03-0.07,0.06-0.13,0.09-0.2c-0.08,0.01-0.16,0.02-0.24,0.04c-2.73,1.22-5.19,2.91-7.76,4.41
			c-0.31,0.18-0.63,0.32-0.95,0.48C1.48,56.21,1.45,56.17,1.42,56.14z M52.44,57.91c-11.45-0.02-20.74,9.2-20.77,20.6
			c-0.02,11.42,9.25,20.75,20.63,20.78c11.4,0.02,20.75-9.27,20.78-20.63C73.11,67.25,63.84,57.93,52.44,57.91z"/>
		<path class="st2" d="M1.52,56.24c-0.05,0.05-0.12,0.14-0.13,0.13c-0.14-0.1-0.06-0.17,0.04-0.23C1.45,56.17,1.48,56.21,1.52,56.24
			z"/>
		<path class="st3" d="M10.23,51.35c0.08-0.01,0.16-0.02,0.24-0.04c-0.03,0.07-0.06,0.13-0.09,0.2
			C10.33,51.46,10.28,51.4,10.23,51.35z"/>
		<path class="st4" d="M59.01,70.83c2.3,0.79,4.28,5.58,3.9,9.08c-0.56,5.22-4.47,9.18-9.94,9.83c-4.41,0.52-9.31-1.94-11.29-7.04
			c-1.84-4.75-0.09-10.14,4.15-12.99c3.81-2.56,9.48-2.47,12.54,0.39c-1.44-0.54-2.66-0.82-3.93-0.39c-1.31,0.44-2.23,1.3-2.68,2.6
			c-0.61,1.8,0.19,3.72,1.89,4.68c1.83,1.02,4.14,0.63,5.49-0.93C60.44,74.55,60.43,72.63,59.01,70.83z"/>
	</g>
</g>
</svg>
