<svg xmlns="http://www.w3.org/2000/svg" viewBox="0 0 298.35 161.61"><defs><style>.cls-1{fill:#544d51;}.cls-2{fill:#c41827;}.cls-3{fill:#d4d2d3;}.cls-4{fill:#575756;}</style></defs><g id="Capa_2" data-name="Capa 2"><g id="Capa_1-2" data-name="Capa 1"><path class="cls-1" d="M162.06,84.31l-17.64,24.5a1.82,1.82,0,0,1-1.58.87h-.15a1.8,1.8,0,0,1-1.66-.87L123.39,84.39v45.29a1.93,1.93,0,0,1-3.86,0v-51a1.78,1.78,0,0,1,.79-1.49c0-.08.08-.08.16-.16a2,2,0,0,1,2.67.47l19.62,27.17L162.3,77.46A2,2,0,0,1,165,77a4.42,4.42,0,0,1,.55.63,2.72,2.72,0,0,1,.31,1v51a1.91,1.91,0,0,1-1.89,1.89,1.87,1.87,0,0,1-1.89-1.89Z"/><path class="cls-2" d="M174.84,95.58a1.82,1.82,0,0,1,1.81-1.81,1.87,1.87,0,0,1,2,1.81v21a11.81,11.81,0,0,0,11.81,11.89,12,12,0,0,0,12-11.89v-21a1.37,1.37,0,0,1,.32-1c0-.08.08-.16.08-.23s.08-.08.16-.08a1.39,1.39,0,0,1,.7-.48h.16c.08,0,.16-.07.24-.07h.47a4.24,4.24,0,0,1,.95.39,2,2,0,0,1,.47.63,1.5,1.5,0,0,1,.23.79v33.71a18.17,18.17,0,0,1-18.35,18.11,19.33,19.33,0,0,1-8-1.81,2,2,0,0,1-.79-2.52,2,2,0,0,1,2.44-.95,14.22,14.22,0,0,0,6.3,1.5,14.48,14.48,0,0,0,14.57-14.33v-2.52a16,16,0,0,1-12,5.51,15.77,15.77,0,0,1-15.59-15.75Z"/><path class="cls-1" d="M242.75,109.52a11.88,11.88,0,0,0-11.9-11.89,12.11,12.11,0,0,0-12,11.89v21.26a1.82,1.82,0,0,1-.39.87,1.7,1.7,0,0,1-1.42.71h-.47a2,2,0,0,1-1.26-1,.26.26,0,0,1-.08-.23.28.28,0,0,0-.08-.16V95.73a1.85,1.85,0,1,1,3.7,0v3.71a15.65,15.65,0,0,1,27.65,10.08v21a1.89,1.89,0,0,1-3.78,0Z"/><path class="cls-2" d="M255.52,78.44a1.93,1.93,0,0,1,3.86,0v37.1l22.84-22.76a1.9,1.9,0,0,1,2.68,2.68L270,110.34l15,18.19a1.85,1.85,0,0,1-1.42,3.16,1.65,1.65,0,0,1-1.5-.71l-14.8-17.88L259.38,121v8.83a1.93,1.93,0,0,1-3.86,0Z"/><path class="cls-1" d="M294.49,78.44a1.91,1.91,0,0,1,1.89-1.89,1.94,1.94,0,0,1,2,1.89V129.8a1.94,1.94,0,0,1-2,1.89,1.91,1.91,0,0,1-1.89-1.89Z"/><path class="cls-3" d="M252.81,24.35c-1.29-1.79-2.53-3.62-3.26-4.67,1.73-2.4,3.77-4.09,4-6,.14-1.21-2.18-3.26-3.82-4-2.09-.92-3.12,1-4,3.7l-.13.06c-1.84-2.41-3.31-4.15-4.55-6s-2.38-1.94-4-.72c-1.86,1.43-3.7,2.9-5.6,4.28a8.61,8.61,0,0,1-2,.82,7.58,7.58,0,0,1-.62-2c0-2.21-1.26-3.16-3.27-3.39-2.86-.33-5.28,1.09-6,3.51s.16,3.72,3.29,5.34c1.7.87,1.8,1.91.36,3-1.26,1-2.63,1.82-3.95,2.71-2.7,1.82-2.76,2.25-.53,4.56,1.87,1.93,3.83,3.78,5.65,5.75s1.51,3.32-1.12,4.12c-.32.1-.65.17-1,.29a3.31,3.31,0,0,0-2.2,4.23,5.62,5.62,0,0,0,5.58,3.85c2-.24,2.68-1.47,2.63-3.34a14.72,14.72,0,0,1,.5-2.39c2.19,2.16,4,3.84,5.68,5.62,1.28,1.34,2.38,1.68,3.71,0,.94-1.18,2.11-2.16,3.13-3.28,1.94-2.12,1.66-3.19-.78-4.7-.81-.5-1.9-2.12-1.71-2.39a28.11,28.11,0,0,1,3.54-3.53,10.68,10.68,0,0,1,1.9,2.53c.74,2.1,1.91,2.67,3.73,1.31a39.31,39.31,0,0,0,4.37-3.79C254.49,27.83,254.48,26.67,252.81,24.35Z"/><path class="cls-3" d="M161.8,2.47c.6,1.73,1.54,2.2,3,1.09"/><path class="cls-3" d="M145.45,1.48c1.72,1.82,1.42,2.81-1,3.55-2,.64-2.9,2-2.34,3.84a4.7,4.7,0,0,0,4.51,2.94c2.06-.24,2.18-1.73,2.15-3.33a6.25,6.25,0,0,1,.47-1.28c1.71,1.69,3.17,3.06,4.55,4.51,1,1.09,1.94,1.38,3,0,.73-.9,1.62-1.67,2.42-2.52,1.78-1.91,1.59-2.69-.67-4.05-.61-.37-1.39-1.66-1.23-1.88"/><path class="cls-1" d="M291.62,39.55c.62-2.29,2.42-5.33,1.56-6.67-1.12-1.74-4.31-2.21-6.67-3.07-3.29-1.19-3.49-.88-4.09,2.53a4.63,4.63,0,0,1-2.38,3c-.71.3-2.42-.57-3-1.39-1-1.41-.31-2.86,1-4,2.26-1.92,2.16-2.7-.48-4.09a12.83,12.83,0,0,0-1.59-.75c-8.08-2.95-6.94-3.72-10.27,4.38-1.95,4.72-1.34,5.32,3.56,5,1-.06,2.78.62,3.08,1.39a4.39,4.39,0,0,1-.74,3.55c-1.28,1.74-3.12,1.55-5-.13-2.51-2.22-3.41-2-4.7,1a18,18,0,0,0-.79,2.12c-2.07,7.49-2.95,6,4,9a7.57,7.57,0,0,0,1.84.79,31.06,31.06,0,0,0,3.35.16,16.81,16.81,0,0,0,0-2.84c-.46-2.58.26-3.77,2.49-3.89a3.52,3.52,0,0,1,3.74,2.38c.69,1.66-.18,2.66-1.42,3.61-2.3,1.78-2.11,2.84.68,4,2,.83,4.12,1.47,6.09,2.41s3.19.71,3.89-1.61c.79-2.61,1.88-5.13,3.06-8.28.89,1,1.31,1.37,1.63,1.82,1.53,2.07,3.31,2.53,5.42,1.36a4.69,4.69,0,0,0,2.23-5.59c-.78-2-2.54-2.76-5-2.19-2.19.52-2.54.17-2-2.09C291.23,40.84,291.45,40.2,291.62,39.55Z"/><path class="cls-1" d="M201.46,37.25c-1.31-1.15-2.46-2.48-3.74-3.66-2.21-2-2.64-2-4.07.73-.72,1.36-1.82,2.25-3.29,1.66a3.55,3.55,0,0,1-1.88-2.2c-.33-1.54.72-2.51,2.19-3,2.7-.87,2.86-1.45,1.05-3.68a14.16,14.16,0,0,0-1.21-1.36c-5.35-5-4.19-5.23-9.61,0-2.28,2.18-3,3.2-2,4.11l0,0,.06,0A10.74,10.74,0,0,0,182,31.44a3.38,3.38,0,0,1,1.91,2.16,3.39,3.39,0,0,1-1.43,2.49c-1.95,1.34-3.55.56-4.72-2-1-2.22-2-2.52-3.7-.84a44.87,44.87,0,0,0-4.62,5.3,2.47,2.47,0,0,0,.11,2.31A29.14,29.14,0,0,0,173.35,45a14.66,14.66,0,0,0,2.83,1.59,24.7,24.7,0,0,1,1.14-2.51c.51-.85,1.13-2.22,1.78-2.27a4.37,4.37,0,0,1,3.16,1.24c1.62,1.7.69,3.93-1.71,4.6-2.58.72-2.84,1.6-1,3.51,1,1.08,2.19,2.1,3.24,3.18,3.3,3.39,2.67,3.16,5.82,0,1.42-1.4,2.78-2.85,4.43-4.55a16.71,16.71,0,0,1,.75,1.92c.54,2.33,1.77,3.35,3.92,3.18a4.28,4.28,0,0,0,3.93-3.76c.11-2-1.06-3.31-3.47-3.66-1.73-.25-2-1-.94-2.24a48.9,48.9,0,0,1,4.27-4.71C202.86,39.29,202.77,38.4,201.46,37.25Z"/><path class="cls-2" d="M202.6,3.09c.39.66.93,1.73,1.44,1.74,3.26.11,4.62-1.57,4.18-4.83"/><path class="cls-2" d="M185.42.74a28.89,28.89,0,0,1,1.1,3.42c.19,1,.06,2,.17,3,.32,3,1.43,3.88,4.31,3.19,2.2-.53,4.38-1.14,6.52-1.86,2.56-.86,2.61-1.51,1.24-3.75a4.26,4.26,0,0,1-.33-3.34"/><path class="cls-1" d="M101.28,34.22c-1.29-.56-1.56,1.08-2.1,1.93a1.35,1.35,0,0,1-.2.27,1.53,1.53,0,0,1-2.38.07c-.75-.81-.37-1.56.41-2.15.27-.2.58-.34.87-.52,1.5-1,1.55-1.45.21-2.69-.91-.85-1.86-1.65-2.81-2.44-1.77-1.45-2.36-1.38-3.87.43l-1.77,2.14c-2.09-2.08-4.86-1.9-6.14.19A2.29,2.29,0,0,0,85,35.09c1.42.32,1.61.79.64,1.95-.61.73-1.39,1.32-2,2-1.32,1.42-1.28,2.14.23,3.32,1.06.83,2.16,1.62,3.28,2.37,2,1.36,2.16,1.26,3.08-1a2.27,2.27,0,0,1,1.55-1.25,2.07,2.07,0,0,1,1.64,1.08c.17.42-.44,1.16-.72,1.75-.2.42-.68.88-.61,1.22.32,1.4,3.11,2,4.11,1l2.08-2.2c.69,1.28,1.06,3.05,2.59,2.31a6.35,6.35,0,0,0,2.69-3c.23-.52-.92-1.64-1.62-2.8.75-.89,1.82-2.1,2.82-3.36.28-.35.61-1.15.49-1.26A16.84,16.84,0,0,0,101.28,34.22Z"/><path class="cls-2" d="M142.36,51c-2-1.9-2.77-1.78-4.22.53-.12.19-.25.51-.4.52-.76.06-1.74.34-2.23,0-.85-.62-.47-1.51.32-2.11.35-.27.77-.45,1.15-.69,1.05-.66,1.25-1.41.24-2.28s-2-1.8-3.06-2.67c-1.78-1.48-2.37-1.41-3.87.37l-1.87,2.24c-1.87-2.23-4.88-1.95-6.13.23a2.28,2.28,0,0,0,1.54,3.52c1.46.33,1.66.78.71,1.92-.68.81-1.54,1.48-2.26,2.27-1,1-1.06,2.07.24,3,1.1.77,2.16,1.62,3.28,2.38,2.17,1.47,2.19,1.4,3.29-1a1.68,1.68,0,0,1,3.21.06c.16.36-.44,1.06-.72,1.6S130.83,62,130.9,62a9.91,9.91,0,0,0,2.4,1.75c.37.17,1.15-.22,1.56-.57A27.36,27.36,0,0,0,137,61l0,.66c.9.54,2.12,1.72,2.65,1.47a6.32,6.32,0,0,0,2.74-2.88c.24-.52-.86-1.66-1.35-2.52l-.56.06c.7-.85,1.39-1.72,2.11-2.55C144.76,52.72,144.88,53.38,142.36,51Z"/><path class="cls-2" d="M108,4c-2,.56-2.25,1.21-1.62,3.19a3.62,3.62,0,0,1-.28,2.27c-.1.26-1.31.42-1.43.24a3.59,3.59,0,0,1-.69-2c.16-2.47,0-2.64-2.47-2.26-.33,0-.67.07-1,.14-3.71.81-5.34-.13-3.87,5.34a1.44,1.44,0,0,1-.74,1.2,3.64,3.64,0,0,0-2.94,4.34c.51,2.1,2.44,2.68,4.11,1.25a8.32,8.32,0,0,1,.91-.61,4.79,4.79,0,0,1,.69,1.24c.17.93.2,1.89.3,2.84.21,2.23.94,2.78,3.09,2.27,1.09-.26,2.17-.59,3.25-.91,2.74-.82,2.68-.79,1.47-3.23a2.17,2.17,0,0,1,.17-2,2.24,2.24,0,0,1,1.92-.48c.38.11.55,1,.79,1.58s.2,1.1.51,1.28c1.14.65,3.48-1,3.36-2.38-.09-.93-.22-1.86-.38-3.2,1.52.42,3.08,1,3.46-.59a5.85,5.85,0,0,0-.58-3.8c-.29-.56-1.8-.46-2.77-.65a5.38,5.38,0,0,1-1-2.59c-.61-3.2-.6-3.2-3.77-2.61"/><path class="cls-1" d="M142.68,23.79c-.24-.33-.81-.74-1-.65-.4.15-.66.67-.94,1.06s-.69,1-1,1.56a9.89,9.89,0,0,1-1.51-1.6,2.93,2.93,0,0,1-.35-1.79,1.58,1.58,0,0,1,.93-1.08c1.77-.48,2.07-.86,1.6-2.67a19.61,19.61,0,0,0-.71-2.08c-1-2.52-1.49-2.65-3.51-.88-1.15,1-2.33,2-3.79,3.23-.35-1.5.39-3.35-1.45-3.27a3.6,3.6,0,0,0-2.38,1.73c-1,1.92,0,3.27,2.05,4.24-1.4,1.14-3.18,2-2.16,4,.73,1.43,1,3.21,2.78,4l1.44-1.73c1.28,1.6,1.4,2.67.26,3.24s-1.13,1.56-.8,2.55.81,2,1.22,3a1.35,1.35,0,0,0,2.16.77c.73-.38,1.45-.79,2.34-1.29.09.48.18.66.14.8-.3,1.21-.28,2.32,1.17,2.71a2.7,2.7,0,0,0,3.24-1.19c.7-1.18.17-2.1-.82-2.91-1.22-1-1.17-1.72.16-2.64s2.55-1.64,3.85-2.44a1.23,1.23,0,0,0,.41-2.07C144.83,26.82,143.8,25.27,142.68,23.79Z"/><path class="cls-1" d="M70.42,58.88l-.62.48c.44.45.87.91,1.32,1.34a29.56,29.56,0,0,1,3.17,3c.85,1.09.33,2-1,2.34s-2.58.61-2.15,2.27,1.17,3.21,3.55,3.41a6.91,6.91,0,0,0-.49-1c-1.82-2.56-1.79-2.5.82-4.17a2.66,2.66,0,0,0,1.07-2C76,62.81,72.46,59.37,70.42,58.88Z"/><path class="cls-4" d="M13.82,109.57a6.87,6.87,0,0,0-.86-.17,3,3,0,0,0-3.49,1.75c-1.5,3.2-3.69,6.25-2.38,10.14a.47.47,0,0,1-.25.58c-.37.16-.62.27-.87.36-3.51,1.25-4,2.5-3,6.19a2.85,2.85,0,0,1-.75,2.34c-2.76,2.52-3,3.91-.38,6.6.84.87.94,1.48.24,2.3a2.92,2.92,0,0,0-.66,2.88h.3q.24.5.54,1a14,14,0,0,0,1.88,2.19,4.34,4.34,0,0,1,1.22,4A9.28,9.28,0,0,0,9,159c3.93,3.1,8.09,3.25,12.66,1.67,3.39-1.17,6.8-2.58,10.58-1.27a4.57,4.57,0,0,0,2.75-.58c1.83-.76,3.58-1.69,5.38-2.52,1.64-.77,2.83-1.9,2.69-3.82-.11-1.5.53-2.1,1.88-2.52,2.49-.78,3.44-2,3.08-4.22-.25-1.62.53-1.89,1.73-2.37a16.5,16.5,0,0,0,1.62-.73.36.36,0,0,1,.21-.05h.89a.44.44,0,0,0,.31-.13,3.3,3.3,0,0,0,.47-.52c1.3-1.85,3-3.61,2.91-6.2a.72.72,0,0,1,0-.19L14.05,109.57A.45.45,0,0,1,13.82,109.57Zm8,49c-3.94,1.82-9,.05-11.43-1.9a8.07,8.07,0,0,1-3.22-8.24.47.47,0,0,1,.86-.14,2,2,0,0,1,.32.87c.25,5.86,6.77,10.38,12.73,8l.56-.2C22.56,156.68,21.85,158.51,21.77,158.54ZM26,156.68a4.91,4.91,0,0,1-.67-.09c-2.59-.57-8.15-3.62-11.82-6.29a.46.46,0,0,1,.47-.78l12.34,5.81C30.67,156.79,26.13,156.68,26,156.68Zm11.86-2.2a17.8,17.8,0,0,1-2.6,1.57,3.62,3.62,0,0,1-2.1-.1c-7.64-1.9-14.54-5.54-21.39-9.25-2.34-1.27-4.54-2.77-6.81-4.16a3.75,3.75,0,0,1-1-.81H3.7a2.31,2.31,0,0,1,.66-1.67,9.22,9.22,0,0,0,.85-1.41.46.46,0,0,1,.66-.17q3.12,2.06,6.27,4a.51.51,0,0,0,.24.07h1.09a.46.46,0,0,1,.23.06,108,108,0,0,0,24.07,11.06A.46.46,0,0,1,37.89,154.48Zm15.8-16.76a.46.46,0,0,1,.11.63c-1.18,1.71-2.24,3.19-4.58,3.38H46.81a.45.45,0,0,0-.32.12c-.72.72-.9,1.87-.65,3.49.06.4,0,.82.1,1.67-.19-.08-.79.19-1,.36a4.46,4.46,0,0,1-1.21.64,2,2,0,0,1-.43.14c-1.65.9-2.83,1.93-2.47,3.85a.47.47,0,0,1-.44.55h-.31a.45.45,0,0,0-.3.1,2.7,2.7,0,0,1-2,.44,24.35,24.35,0,0,1-3.51-1.17c-1.43-.77-4.17-2.46-4.21-2.49A147.55,147.55,0,0,1,15,141.79a.46.46,0,0,0-.23-.06H13.62a.48.48,0,0,1-.23-.07,75.77,75.77,0,0,1-10.71-7.48.47.47,0,0,1,0-.64L6,129.39a.47.47,0,0,1,.62-.1,213,213,0,0,0,23.56,13.2.49.49,0,0,0,.2,0h1a.46.46,0,0,0,.32-.79l-.1-.1-.12-.08A165.74,165.74,0,0,1,4.68,126a.47.47,0,0,1,0-.77l4.87-3.09a.47.47,0,0,1,.5,0c7.4,4.48,14.89,9.24,22.87,13.19l0-.05a3.52,3.52,0,0,1-.39-.31c-1.15-1.14-2.36-2.21-3.6-3.25l-.08-.05c-4.31-2.32-8.53-4.82-12.7-7.41l-5.88-3.62a3,3,0,0,1-1.39-4,33.5,33.5,0,0,1,1.93-3.89c.6-1.12,1.4-.82,2.26-.28q11.63,7.23,23.27,14.44,8.47,5.26,16.92,10.55C53.43,137.52,53.54,137.61,53.69,137.72Z"/><path class="cls-1" d="M113.13,60.47c-2.41-3.56-2.44-3.59-6.13-2v.12a8.27,8.27,0,0,0-.47,1.43l-.43.37c.07.09.15.17.23.26.43.46,1,.89,1.07,1.42s-.38,1.26-.6,1.9c-.47-.22-1.11-.32-1.37-.69-2-2.75-3-3-5.9-1.06C95.43,65,95.4,65,92.62,60.67l.06.23c-.18-.28-.36-.56.09-.84a11.42,11.42,0,0,0,2.15-1.86,5.15,5.15,0,0,0,.37-2.1c-.58.07-1.31-.06-1.72.24-2.11,1.59-3.74,1.4-5.23-.81a7.5,7.5,0,0,1-1-2c-.73-2.43-2.24-2.7-4.85-1.36-1.23.62-1.44,1.56-.39,2.75.63.71,1.48,2.17,1.21,2.54a7.92,7.92,0,0,1-3.23,2.48c-.42.18-1.53-.4-2-1a.87.87,0,0,1-.15-.26,9.76,9.76,0,0,0-.38-.9c-.64-1.31-1.52-1.84-3.43-.5l0-.94A13.67,13.67,0,0,1,78,55.19c.63,0,1.22,1.42,1.9,2.13a10.3,10.3,0,0,0,1.45,1.08c.2-.7.79-1.61.54-2.08-1.85-3.5-1.89-3.46,1.64-5.58.93-.55,2-1,2.19-2a2.55,2.55,0,0,0-.35-1.8c-.13-.24-.26-.46-.38-.65-.9-1.46-1.6-1.45-3.19-.09-.53.45-1.85.86-2.12.59a12.09,12.09,0,0,1-.83-.92,11.85,11.85,0,0,1-1.64-2.6c-.19-.41.58-1.38,1.08-1.94a4.09,4.09,0,0,1,.47-.44c.66-.54,1.53-1.07,1.46-1.22a8.65,8.65,0,0,0-2.42-3.38c-.51-.36-2.1.32-2.88.93C72.71,39,72,39.3,71,37.74a7.66,7.66,0,0,1-.47-.75c-.11-.17-.21-.35-.32-.55-.28-.5-1.19-1.15-1.51-1a9.83,9.83,0,0,0-2.92,1.93c-.19.17.29,1.33.72,1.81,1.71,1.92,1.42,3-1.84,3.8,2.2-1.39,1.8-2.38.59-3.61s-.8-2.65.64-3.61c1.29-.87,2.64-1.67,4.26-2.68a23.66,23.66,0,0,0,2.43,2.54,5.64,5.64,0,0,0,2.06.59,8.93,8.93,0,0,0,.4-2.4c-.06-.5-.76-.9-1.11-1.39-1.52-2.09-1.2-3.47.84-5,.62-.46.85-1.44,1.26-2.17a6.09,6.09,0,0,0-2.4.16c-2.55,1.33-3.24,1.25-4.79-1.12a9.93,9.93,0,0,1-.94-1.8c-1.2-2.9-2.94-3.25-5-.82a2.34,2.34,0,0,0,.29,2.21c1,1.11,1.33,2.25.17,3.12a15.29,15.29,0,0,1-4.06,1.85c-.18.06-.92-.66-.94-1-.16-2.48-1.53-2.59-3.48-1.7,1-2.23,3.15-2.71,4.63-1.15.45.48.65,1.24,1.15,1.65a4.56,4.56,0,0,0,1.64.48c.13-.61.57-1.35.36-1.8-1.71-3.66-1.55-4.1,2.17-6.21.66-.37,1.63-1.36,1.51-1.68a9.27,9.27,0,0,0-1.08-1.91A43.4,43.4,0,0,0,47.66,19a49.27,49.27,0,0,0-9,5c-10.33,7.16-16.84,16.79-18.6,29.42-1.32,9.53-.6,19,0,28.55.4,6.18-.06,12.21-3.13,17.83-1.56,2.86-2.84,5.87-2.57,9.37a.46.46,0,0,1-.34.47L56.19,135.5a2.2,2.2,0,0,1,.69-.75l.14-.09c3.74-2.46,6.3-5.92,8.6-9.69A37.08,37.08,0,0,1,71,117.79c4-4,9.37-6,14.5-8.05,10-4.11,17.75-11.06,23.8-19.78.38-.54.74-1.1,1.09-1.65.72-1.15,1.38-2.32,2-3.5A40.08,40.08,0,0,0,115.88,75c0-.13.05-.26.08-.39.12-.61.23-1.22.32-1.84,0-.24.07-.48.1-.72a43,43,0,0,0,.26-9.17C115.19,63.13,114.5,62.52,113.13,60.47Zm-64.25,1c-1.77,1-1.73,1.69.42,4.53-2.19-.23-4-2.26-3.55-3.92a2.89,2.89,0,0,1,1.88-1.49c1.79-.47,2.15-1.43,1-2.73a40.55,40.55,0,0,0-3.23-2.89,8.23,8.23,0,0,1-1-1.55l.62-.63a15.37,15.37,0,0,1,1.58,1.17,26.6,26.6,0,0,1,3.13,3.15C51.44,59.23,51.19,60.1,48.88,61.42ZM53.16,54l-1.61-3.79.87-.45,2,3.65ZM56,35.3c-.71.78-2.15,1.28-2.3,2.09s.78,2,1.42,3.38a4.13,4.13,0,0,1-3.43-3.45c-.43-1.62.73-2,2-2.33,1.65-.37,1.94-1.46.93-2.66a34,34,0,0,0-3.08-2.78,13.8,13.8,0,0,1-1.14-1.37c2.41,0,6,3.55,6.22,5.37A2.5,2.5,0,0,1,56,35.3Zm6.31,8.54c-.16.56-1,.92-1.42,1.22l-1.75-6.64C60.78,39.24,62.73,42.34,62.3,43.84Zm3.53,7c.42-2.68,1.09-3.37,2.71-2.7l-.08,0,.27.45Zm26.85,10c.16.56.26,1.15.43,1.7C92.94,62.05,92.84,61.46,92.68,60.9Z"/></g></g></svg>