<svg xmlns="http://www.w3.org/2000/svg" viewBox="0 0 298.35 180.75"><defs><style>.cls-1{fill:#544d51;}.cls-2{fill:#c41827;}.cls-3{fill:#d4d2d3;}.cls-4{fill:#575756;}</style></defs><g id="Capa_2" data-name="Capa 2"><g id="Capa_1-2" data-name="Capa 1"><path class="cls-1" d="M162.06,103.45,144.42,128a1.81,1.81,0,0,1-1.58.86h-.15A1.79,1.79,0,0,1,141,128l-17.64-24.42v45.29a1.93,1.93,0,0,1-3.86,0v-51a1.81,1.81,0,0,1,.79-1.5c0-.07.08-.07.16-.15a2,2,0,0,1,2.67.47l19.62,27.17L162.3,96.6a2,2,0,0,1,2.68-.47,3.94,3.94,0,0,1,.55.63,2.66,2.66,0,0,1,.31,1v51a1.91,1.91,0,0,1-1.89,1.89,1.87,1.87,0,0,1-1.89-1.89Z"/><path class="cls-2" d="M174.84,114.72a1.83,1.83,0,0,1,1.81-1.82,1.88,1.88,0,0,1,2,1.82v20.95a11.81,11.81,0,0,0,11.81,11.89,12,12,0,0,0,12-11.89V114.72a1.37,1.37,0,0,1,.32-1c0-.08.08-.16.08-.24s.08-.08.16-.08a1.43,1.43,0,0,1,.7-.47h.16c.08,0,.16-.08.24-.08h.47a4.81,4.81,0,0,1,.95.4,1.89,1.89,0,0,1,.47.63,1.47,1.47,0,0,1,.23.79v33.7a18.17,18.17,0,0,1-18.35,18.12,19.33,19.33,0,0,1-8-1.81,2,2,0,0,1-.79-2.52,2,2,0,0,1,2.44-1,14.22,14.22,0,0,0,6.3,1.5,14.49,14.49,0,0,0,14.57-14.34V145.9a15.94,15.94,0,0,1-12,5.52,15.77,15.77,0,0,1-15.59-15.75Z"/><path class="cls-1" d="M242.75,128.66a11.89,11.89,0,0,0-11.9-11.9,12.11,12.11,0,0,0-12,11.9v21.26a1.82,1.82,0,0,1-.39.87,1.7,1.7,0,0,1-1.42.71h-.47a2.08,2.08,0,0,1-1.26-1,.28.28,0,0,1-.08-.23.28.28,0,0,0-.08-.16V114.87a1.85,1.85,0,1,1,3.7,0v3.7a15.66,15.66,0,0,1,27.65,10.09v21a1.89,1.89,0,0,1-3.78,0Z"/><path class="cls-2" d="M255.52,97.58a1.93,1.93,0,0,1,3.86,0v37.1l22.84-22.76a1.89,1.89,0,1,1,2.68,2.67L270,129.48l15,18.19a2,2,0,0,1-.16,2.76,2,2,0,0,1-1.26.39,1.63,1.63,0,0,1-1.5-.71l-14.8-17.87-7.88,7.87v8.82a1.93,1.93,0,0,1-3.86,0Z"/><path class="cls-1" d="M294.49,97.58a1.91,1.91,0,0,1,1.89-1.89,1.94,1.94,0,0,1,2,1.89v51.35a1.93,1.93,0,0,1-2,1.89,1.91,1.91,0,0,1-1.89-1.89Z"/><path class="cls-3" d="M252.81,43.49c-1.29-1.79-2.53-3.62-3.26-4.67,1.73-2.41,3.77-4.09,4-6,.14-1.21-2.18-3.27-3.82-4-2.09-.91-3.12,1-4,3.71l-.13.05c-1.84-2.4-3.31-4.15-4.55-6s-2.38-1.94-4-.72c-1.86,1.43-3.7,2.9-5.6,4.28a9.08,9.08,0,0,1-2,.82,7.58,7.58,0,0,1-.62-2c0-2.22-1.26-3.16-3.27-3.39-2.86-.34-5.28,1.09-6,3.51s.16,3.72,3.29,5.33c1.7.88,1.8,1.91.36,3-1.26,1-2.63,1.81-3.95,2.71-2.7,1.82-2.76,2.25-.53,4.56,1.87,1.93,3.83,3.77,5.65,5.75s1.51,3.31-1.12,4.12c-.32.1-.65.17-1,.29a3.3,3.3,0,0,0-2.2,4.23,5.62,5.62,0,0,0,5.58,3.84c2-.23,2.68-1.46,2.63-3.33a14.72,14.72,0,0,1,.5-2.39c2.19,2.15,4,3.84,5.68,5.61,1.28,1.34,2.38,1.69,3.71,0,.94-1.17,2.11-2.16,3.13-3.27,1.94-2.12,1.66-3.19-.78-4.7-.81-.5-1.9-2.13-1.71-2.4a28,28,0,0,1,3.54-3.52,10.68,10.68,0,0,1,1.9,2.53c.74,2.1,1.91,2.67,3.73,1.31A40.38,40.38,0,0,0,252.49,49C254.49,47,254.48,45.81,252.81,43.49Z"/><path class="cls-3" d="M168.68,15.13c-1.05-1.47-2.06-3-2.68-3.84,1.41-1.93,3-3.28,3.28-4.86.16-.92-1.64-2.63-2.91-3.22-1.94-.91-2.74,1-3.64,2.92-1.27-1.64-2.34-2.92-3.3-4.28-1.57-2.24-2-2.33-4.2-.61-1.3,1-2.59,2-3.93,3a7.63,7.63,0,0,1-1.6.68,6.11,6.11,0,0,1-.51-1.66c0-1.8-1-2.57-2.66-2.77a4.36,4.36,0,0,0-4.82,2.65c-.65,1.9.09,3.25,2.62,4.56,1.38.71,1.5,1.55.31,2.47a43.12,43.12,0,0,1-3.74,2.54c-1.4.86-1.51,1.8-.36,3,1.65,1.65,3.31,3.28,4.91,5s1.42,2.82-1,3.56c-2,.64-2.9,2-2.34,3.84A4.7,4.7,0,0,0,146.65,31c2.06-.24,2.18-1.73,2.15-3.34a6.3,6.3,0,0,1,.47-1.27c1.71,1.69,3.17,3.06,4.55,4.5,1,1.09,1.94,1.39,3,.05.73-.9,1.62-1.67,2.42-2.52,1.78-1.91,1.59-2.69-.67-4.05-.61-.37-1.39-1.66-1.23-1.88a24.57,24.57,0,0,1,2.89-2.88,8.21,8.21,0,0,1,1.55,2.05c.6,1.73,1.54,2.2,3,1.09a32.82,32.82,0,0,0,3.57-3.09C170,18,170,17,168.68,15.13Z"/><path class="cls-1" d="M291.62,58.68c.62-2.28,2.42-5.32,1.56-6.66-1.12-1.74-4.31-2.22-6.67-3.07-3.29-1.2-3.49-.88-4.09,2.53a4.63,4.63,0,0,1-2.38,3c-.71.3-2.42-.57-3-1.4-1-1.4-.31-2.85,1-4,2.26-1.91,2.16-2.69-.48-4.08a12.83,12.83,0,0,0-1.59-.75c-8.08-3-6.94-3.72-10.27,4.37-1.95,4.73-1.34,5.33,3.56,5,1-.06,2.78.61,3.08,1.38a4.37,4.37,0,0,1-.74,3.55c-1.28,1.75-3.12,1.56-5-.12-2.51-2.22-3.41-2-4.7,1a17.37,17.37,0,0,0-.79,2.12c-2.07,7.49-2.95,5.95,4,9a7.57,7.57,0,0,0,1.84.79,31.06,31.06,0,0,0,3.35.15,16.7,16.7,0,0,0,0-2.83c-.46-2.58.26-3.78,2.49-3.89a3.52,3.52,0,0,1,3.74,2.38c.69,1.66-.18,2.66-1.42,3.61-2.3,1.78-2.11,2.84.68,4,2,.83,4.12,1.47,6.09,2.41s3.19.71,3.89-1.61c.79-2.61,1.88-5.13,3.06-8.28.89,1,1.31,1.37,1.63,1.82,1.53,2.07,3.31,2.53,5.42,1.36a4.69,4.69,0,0,0,2.23-5.59c-.78-2-2.54-2.77-5-2.19-2.19.52-2.54.17-2-2.09C291.23,60,291.45,59.33,291.62,58.68Z"/><path class="cls-2" d="M201.46,56.38c-1.31-1.14-2.46-2.47-3.74-3.65-2.21-2-2.64-1.95-4.07.73-.72,1.36-1.82,2.25-3.29,1.66a3.56,3.56,0,0,1-1.88-2.21c-.33-1.53.72-2.51,2.19-3,2.7-.86,2.86-1.44,1.05-3.67a14.16,14.16,0,0,0-1.21-1.36c-5.35-5-4.19-5.23-9.61,0-2.28,2.18-3,3.2-2,4.11l0,0h.06A10.7,10.7,0,0,0,182,50.58a3.36,3.36,0,0,1,1.91,2.16,3.39,3.39,0,0,1-1.43,2.49c-1.95,1.34-3.55.56-4.72-2-1-2.22-2-2.53-3.7-.85a45.78,45.78,0,0,0-4.62,5.31,2.45,2.45,0,0,0,.11,2.3,28.61,28.61,0,0,0,3.83,4.18,14.15,14.15,0,0,0,2.83,1.59,23.59,23.59,0,0,1,1.14-2.5c.51-.85,1.13-2.22,1.78-2.27a4.37,4.37,0,0,1,3.16,1.24c1.62,1.7.69,3.93-1.71,4.6-2.58.72-2.84,1.6-1,3.5,1,1.09,2.19,2.1,3.24,3.19,3.3,3.39,2.67,3.16,5.82,0,1.42-1.4,2.78-2.85,4.43-4.56a16.66,16.66,0,0,1,.75,1.93c.54,2.33,1.77,3.34,3.92,3.18a4.29,4.29,0,0,0,3.93-3.76c.11-2-1.06-3.31-3.47-3.66-1.73-.25-2-1-.94-2.24a47.74,47.74,0,0,1,4.27-4.71C202.86,58.43,202.77,57.54,201.46,56.38Z"/><path class="cls-1" d="M207.93,16.83c2.11-.84,4.69-1.18,4.92-2.11a9.26,9.26,0,0,0-.9-5.85c-.34-.71-2.62-.48-4.67-.76-.28-1.49-.62-3.68-1.11-5.84-.18-.83-.81-2.31-1-2.27-2.44.38-5,.6-7.19,1.68-1.87.94-.17,2.77.05,4.25a4.46,4.46,0,0,1-.86,2.86,2,2,0,0,1-2,.23,3.94,3.94,0,0,1-1.11-2.51c.14-4.45.2-4.45-4.31-3.78l-.75.1c-6.91,1.09-6.89,1.08-5.78,7.93a2.74,2.74,0,0,1-.81,1.85c-3.58-.61-4.2,2.21-4.55,4.43a6,6,0,0,0,1.76,4.51c1.32,1.27,3.12.67,4.4-.81a7.48,7.48,0,0,1,1.41-.86,28.89,28.89,0,0,1,1.1,3.42c.19,1,.06,2,.17,3,.32,3,1.43,3.88,4.31,3.19,2.2-.53,4.38-1.14,6.52-1.86,2.56-.87,2.61-1.51,1.24-3.75a4.26,4.26,0,0,1-.33-3.34,2.89,2.89,0,0,1,2.7-1c.73.32.93,1.75,1.47,2.64.39.66.93,1.72,1.44,1.74,3.26.11,4.62-1.58,4.18-4.83C208.09,18.17,208,17.2,207.93,16.83Z"/><path class="cls-2" d="M101.28,53.36c-1.29-.56-1.56,1.07-2.1,1.93a1.35,1.35,0,0,1-.2.27,1.52,1.52,0,0,1-2.38.06c-.75-.8-.37-1.56.41-2.14.27-.2.58-.35.87-.53,1.5-1,1.55-1.45.21-2.69-.91-.84-1.86-1.64-2.81-2.43-1.77-1.46-2.36-1.38-3.87.43L89.64,50.4c-2.09-2.09-4.86-1.9-6.14.18A2.3,2.3,0,0,0,85,54.23c1.42.32,1.61.79.64,2-.61.73-1.39,1.32-2,2-1.32,1.42-1.28,2.14.23,3.31,1.06.83,2.16,1.63,3.28,2.38,2,1.35,2.16,1.25,3.08-1a2.28,2.28,0,0,1,1.55-1.26A2.08,2.08,0,0,1,93.4,62.7c.17.42-.44,1.16-.72,1.75-.2.42-.68.88-.61,1.22.32,1.4,3.11,2,4.11,1l2.08-2.2c.69,1.28,1.06,3,2.59,2.3a6.28,6.28,0,0,0,2.69-3c.23-.52-.92-1.65-1.62-2.8.75-.89,1.82-2.1,2.82-3.36.28-.35.61-1.15.49-1.26A16.32,16.32,0,0,0,101.28,53.36Z"/><path class="cls-1" d="M142.36,70.16c-2-1.9-2.77-1.78-4.22.52-.12.19-.25.51-.4.52-.76.06-1.74.35-2.23,0-.85-.62-.47-1.51.32-2.11.35-.27.77-.45,1.15-.69,1.05-.66,1.25-1.41.24-2.28s-2-1.81-3.06-2.67c-1.78-1.48-2.37-1.42-3.87.36l-1.87,2.25c-1.87-2.23-4.88-2-6.13.22a2.29,2.29,0,0,0,1.54,3.53c1.46.33,1.66.77.71,1.91-.68.82-1.54,1.49-2.26,2.28-1,1.05-1.06,2.06.24,3,1.1.78,2.16,1.62,3.28,2.38,2.17,1.48,2.19,1.41,3.29-1a2.22,2.22,0,0,1,1.64-1.15,2.24,2.24,0,0,1,1.57,1.2c.16.36-.44,1.07-.72,1.61s-.75,1.11-.68,1.17a9.91,9.91,0,0,0,2.4,1.75c.37.16,1.15-.23,1.56-.57a27.5,27.5,0,0,0,2.1-2.21l0,.67c.9.53,2.12,1.72,2.65,1.46a6.25,6.25,0,0,0,2.74-2.87c.24-.52-.86-1.66-1.35-2.52l-.56.06c.7-.85,1.39-1.72,2.11-2.56C144.76,71.86,144.88,72.52,142.36,70.16Z"/><path class="cls-1" d="M116,28.9c-.29-.55-1.8-.45-2.77-.65a5.3,5.3,0,0,1-1-2.59c-.61-3.19-.6-3.19-3.77-2.6l-.49.11c-2,.57-2.25,1.21-1.62,3.2a3.62,3.62,0,0,1-.28,2.27c-.1.25-1.31.42-1.43.24a3.59,3.59,0,0,1-.69-2c.16-2.47,0-2.64-2.47-2.27-.33.05-.67.07-1,.15-3.71.81-5.34-.13-3.87,5.34a1.44,1.44,0,0,1-.74,1.2,3.63,3.63,0,0,0-2.94,4.33c.51,2.11,2.44,2.69,4.11,1.25a10.3,10.3,0,0,1,.91-.6,4.79,4.79,0,0,1,.69,1.24c.17.93.2,1.89.3,2.84.21,2.23.94,2.78,3.09,2.27,1.09-.27,2.17-.59,3.25-.91,2.74-.82,2.68-.8,1.47-3.24a2.18,2.18,0,0,1,.17-2,2.24,2.24,0,0,1,1.92-.47c.38.11.55,1,.79,1.58s.2,1.1.51,1.28c1.14.65,3.48-1.05,3.36-2.38-.09-.94-.22-1.86-.38-3.2,1.52.42,3.08,1,3.46-.59A5.88,5.88,0,0,0,116,28.9Z"/><path class="cls-2" d="M142.68,42.92c-.24-.32-.81-.73-1-.64-.4.15-.66.66-.94,1s-.69,1.05-1,1.57a10.32,10.32,0,0,1-1.51-1.6,2.93,2.93,0,0,1-.35-1.79,1.62,1.62,0,0,1,.93-1.09c1.77-.48,2.07-.86,1.6-2.66a19.61,19.61,0,0,0-.71-2.08c-1-2.53-1.49-2.65-3.51-.89-1.15,1-2.33,2-3.79,3.24-.35-1.5.39-3.35-1.45-3.27a3.56,3.56,0,0,0-2.38,1.73c-1,1.92,0,3.27,2.05,4.24-1.4,1.14-3.18,2-2.16,4,.73,1.43,1,3.21,2.78,4L132.61,47c1.28,1.6,1.4,2.67.26,3.25s-1.13,1.55-.8,2.54.81,2,1.22,3a1.35,1.35,0,0,0,2.16.77c.73-.38,1.45-.79,2.34-1.29.09.48.18.65.14.8-.3,1.2-.28,2.32,1.17,2.71a2.7,2.7,0,0,0,3.24-1.19c.7-1.18.17-2.1-.82-2.91-1.22-1-1.17-1.72.16-2.64s2.55-1.65,3.85-2.44a1.23,1.23,0,0,0,.41-2.07C144.83,46,143.8,44.41,142.68,42.92Z"/><path class="cls-1" d="M70.42,78l-.62.48c.44.45.87.9,1.32,1.34a28.62,28.62,0,0,1,3.17,3c.85,1.09.33,2-1,2.34s-2.58.6-2.15,2.27,1.17,3.21,3.55,3.41a6.91,6.91,0,0,0-.49-1c-1.82-2.56-1.79-2.5.82-4.18a2.62,2.62,0,0,0,1.07-2C76,82,72.46,78.51,70.42,78Z"/><path class="cls-4" d="M13.82,128.71a6.87,6.87,0,0,0-.86-.17,3,3,0,0,0-3.49,1.75c-1.5,3.19-3.69,6.25-2.38,10.13a.48.48,0,0,1-.25.59c-.37.16-.62.27-.87.36-3.51,1.25-4,2.5-3,6.19a2.85,2.85,0,0,1-.75,2.34c-2.76,2.51-3,3.91-.38,6.6.84.87.94,1.48.24,2.3a2.91,2.91,0,0,0-.66,2.87h.3a10.78,10.78,0,0,0,.54,1,14.92,14.92,0,0,0,1.88,2.19,4.34,4.34,0,0,1,1.22,4A9.28,9.28,0,0,0,9,178.09c3.93,3.1,8.09,3.25,12.66,1.67,3.39-1.17,6.8-2.58,10.58-1.28a4.49,4.49,0,0,0,2.75-.57c1.83-.76,3.58-1.69,5.38-2.52,1.64-.77,2.83-1.9,2.69-3.82-.11-1.5.53-2.1,1.88-2.52,2.49-.78,3.44-2,3.08-4.22-.25-1.63.53-1.89,1.73-2.37a16.5,16.5,0,0,0,1.62-.73.37.37,0,0,1,.21-.06h.89a.43.43,0,0,0,.31-.12,3.3,3.3,0,0,0,.47-.52c1.3-1.85,3-3.61,2.91-6.21a.65.65,0,0,1,0-.18L14.05,128.7A.44.44,0,0,1,13.82,128.71Zm8,49c-3.94,1.82-9,0-11.43-1.9a8.08,8.08,0,0,1-3.22-8.25A.47.47,0,0,1,8,167.4a2,2,0,0,1,.32.87c.25,5.85,6.77,10.38,12.73,8l.56-.2C22.56,175.81,21.85,177.65,21.77,177.68ZM26,175.81a3.72,3.72,0,0,1-.67-.08c-2.59-.57-8.15-3.62-11.82-6.29a.46.46,0,0,1,.47-.78l12.34,5.81C30.67,175.93,26.13,175.81,26,175.81Zm11.86-2.19a17.72,17.72,0,0,1-2.6,1.56,3.54,3.54,0,0,1-2.1-.09c-7.64-1.91-14.54-5.55-21.39-9.26-2.34-1.26-4.54-2.77-6.81-4.16a3.39,3.39,0,0,1-1-.81H3.7a2.3,2.3,0,0,1,.66-1.66,8.88,8.88,0,0,0,.85-1.42.47.47,0,0,1,.66-.16q3.12,2.06,6.27,4a.5.5,0,0,0,.24.06h1.09a.48.48,0,0,1,.23.07A108.4,108.4,0,0,0,37.77,172.8.46.46,0,0,1,37.89,173.62Zm15.8-16.77a.46.46,0,0,1,.11.63c-1.18,1.72-2.24,3.2-4.58,3.38H46.81a.46.46,0,0,0-.32.13c-.72.72-.9,1.87-.65,3.49.06.4,0,.81.1,1.67-.19-.08-.79.19-1,.36a4.14,4.14,0,0,1-1.21.63,1.28,1.28,0,0,1-.43.14c-1.65.91-2.83,1.94-2.47,3.85a.48.48,0,0,1-.44.56h-.31a.45.45,0,0,0-.3.1,2.74,2.74,0,0,1-2,.44A24.27,24.27,0,0,1,34.26,171c-1.43-.76-4.17-2.45-4.21-2.49A145.38,145.38,0,0,1,15,160.93a.48.48,0,0,0-.23-.07H13.62a.46.46,0,0,1-.23-.06,74.92,74.92,0,0,1-10.71-7.49.45.45,0,0,1,0-.63L6,148.53a.47.47,0,0,1,.62-.1,213,213,0,0,0,23.56,13.2.48.48,0,0,0,.2,0h1a.46.46,0,0,0,.32-.78l-.1-.1-.12-.08A165.8,165.8,0,0,1,4.68,145.13a.46.46,0,0,1,0-.76l4.87-3.09a.47.47,0,0,1,.5,0c7.4,4.49,14.89,9.25,22.87,13.2l0-.05a3.52,3.52,0,0,1-.39-.31c-1.15-1.14-2.36-2.21-3.6-3.25l-.08-.06c-4.31-2.32-8.53-4.81-12.7-7.4l-5.88-3.62a3,3,0,0,1-1.39-4,35.16,35.16,0,0,1,1.93-3.89c.6-1.12,1.4-.81,2.26-.27Q24.75,138.83,36.39,146q8.47,5.25,16.92,10.55A4.37,4.37,0,0,1,53.69,156.85Z"/><path class="cls-2" d="M113.13,79.61c-2.41-3.56-2.44-3.59-6.13-2v.12a8.44,8.44,0,0,0-.47,1.42l-.43.38c.07.09.15.17.23.26.43.45,1,.89,1.07,1.42s-.38,1.26-.6,1.9c-.47-.23-1.11-.32-1.37-.69-2-2.76-3-3-5.9-1.06-4.1,2.7-4.13,2.69-6.91-1.59l.06.23c-.18-.28-.36-.56.09-.84a11.47,11.47,0,0,0,2.15-1.87,5.07,5.07,0,0,0,.37-2.09c-.58.07-1.31-.06-1.72.24-2.11,1.59-3.74,1.4-5.23-.81a7.5,7.5,0,0,1-1-2c-.73-2.44-2.24-2.7-4.85-1.37-1.23.63-1.44,1.56-.39,2.75.63.71,1.48,2.18,1.21,2.55a7.92,7.92,0,0,1-3.23,2.48c-.42.18-1.53-.4-2-1a1,1,0,0,1-.15-.26,9.76,9.76,0,0,0-.38-.9c-.64-1.31-1.52-1.84-3.43-.5l0-.94c1.31-.44,2.62-1.18,3.94-1.18.63,0,1.22,1.42,1.9,2.13a11.14,11.14,0,0,0,1.45,1.08c.2-.7.79-1.61.54-2.08C80.06,72,80,72,83.55,69.88c.93-.56,2-1,2.19-2a2.54,2.54,0,0,0-.35-1.8c-.13-.25-.26-.46-.38-.65-.9-1.46-1.6-1.45-3.19-.1-.53.46-1.85.87-2.12.6a12.09,12.09,0,0,1-.83-.92,11.85,11.85,0,0,1-1.64-2.6c-.19-.41.58-1.38,1.08-1.94a4.09,4.09,0,0,1,.47-.44c.66-.54,1.53-1.08,1.46-1.22a8.65,8.65,0,0,0-2.42-3.38c-.51-.36-2.1.32-2.88.93-2.23,1.77-2.91,2.06-4,.5-.15-.22-.31-.46-.47-.75s-.21-.35-.32-.55c-.28-.5-1.19-1.15-1.51-1a9.83,9.83,0,0,0-2.92,1.93c-.19.17.29,1.33.72,1.81,1.71,1.92,1.42,3-1.84,3.8,2.2-1.39,1.8-2.39.59-3.62s-.8-2.64.64-3.6c1.29-.87,2.64-1.67,4.26-2.69a23.7,23.7,0,0,0,2.43,2.55,5.84,5.84,0,0,0,2.06.59,9,9,0,0,0,.4-2.41c-.06-.49-.76-.9-1.11-1.38-1.52-2.09-1.2-3.47.84-5,.62-.45.85-1.43,1.26-2.17a6.28,6.28,0,0,0-2.4.17c-2.55,1.33-3.24,1.24-4.79-1.12a10.64,10.64,0,0,1-.94-1.8c-1.2-2.9-2.94-3.25-5-.82A2.34,2.34,0,0,0,63.09,43c1,1.1,1.33,2.25.17,3.12A15.27,15.27,0,0,1,59.2,48c-.18.07-.92-.65-.94-1-.16-2.48-1.53-2.59-3.48-1.69,1-2.23,3.15-2.71,4.63-1.15.45.48.65,1.24,1.15,1.65a4.56,4.56,0,0,0,1.64.48c.13-.61.57-1.35.36-1.8-1.71-3.66-1.55-4.11,2.17-6.21.66-.37,1.63-1.36,1.51-1.69a9.2,9.2,0,0,0-1.08-1.9,43.56,43.56,0,0,0-17.5,3.43,50.5,50.5,0,0,0-9,5c-10.33,7.17-16.84,16.8-18.6,29.43-1.32,9.52-.6,19,0,28.55.4,6.18-.06,12.21-3.13,17.83-1.56,2.85-2.84,5.86-2.57,9.37a.44.44,0,0,1-.34.46l42.14,25.94a2.11,2.11,0,0,1,.69-.75l.14-.09c3.74-2.47,6.3-5.92,8.6-9.7A37.7,37.7,0,0,1,71,136.92c4-4,9.37-5.94,14.5-8,10-4.11,17.75-11.06,23.8-19.78.38-.55.74-1.1,1.09-1.66.72-1.14,1.38-2.31,2-3.49a40.22,40.22,0,0,0,3.47-9.86c0-.13.05-.26.08-.39.12-.61.23-1.22.32-1.84,0-.24.07-.48.1-.72a43.05,43.05,0,0,0,.26-9.17C115.19,82.27,114.5,81.65,113.13,79.61Zm-64.25.94c-1.77,1-1.73,1.7.42,4.54-2.19-.23-4-2.26-3.55-3.92a2.89,2.89,0,0,1,1.88-1.49c1.79-.47,2.15-1.43,1-2.74a42.48,42.48,0,0,0-3.23-2.88,8.23,8.23,0,0,1-1-1.55l.62-.63A15.28,15.28,0,0,1,46.65,73a27.46,27.46,0,0,1,3.13,3.16C51.44,78.36,51.19,79.24,48.88,80.55Zm4.28-7.41-1.61-3.8.87-.45,2,3.66ZM56,54.44c-.71.78-2.15,1.28-2.3,2.09s.78,2,1.42,3.37a4.11,4.11,0,0,1-3.43-3.44c-.43-1.62.73-2,2-2.33,1.65-.37,1.94-1.46.93-2.66a34,34,0,0,0-3.08-2.78,13.8,13.8,0,0,1-1.14-1.37c2.41,0,6,3.54,6.22,5.36A2.51,2.51,0,0,1,56,54.44ZM62.3,63c-.16.56-1,.92-1.42,1.22l-1.75-6.64C60.78,58.38,62.73,61.48,62.3,63Zm3.53,7c.42-2.69,1.09-3.37,2.71-2.71l-.08.06.27.44ZM92.68,80c.16.55.26,1.15.43,1.7C92.94,81.19,92.84,80.59,92.68,80Z"/></g></g></svg>